<svg width="1440" height="264" viewBox="0 0 1440 264" fill="none" xmlns="http://www.w3.org/2000/svg">
<g filter="url(#filter0_d_24_238)">
<rect x="-12" y="9" width="1452" height="255" fill="black"/>
<mask id="path-2-inside-1_24_238" fill="white">
<path fill-rule="evenodd" clip-rule="evenodd" d="M1477.34 12.132H-12.8977Z"/>
</mask>
<path d="M1477.34 12.532C1477.56 12.532 1477.74 12.3529 1477.74 12.132C1477.74 11.9111 1477.56 11.732 1477.34 11.732V12.532ZM-12.8977 11.732C-13.1186 11.732 -13.2977 11.9111 -13.2977 12.132C-13.2977 12.3529 -13.1186 12.532 -12.8977 12.532V11.732ZM1477.34 11.732H-12.8977V12.532H1477.34V11.732Z" fill="#5EF5FF" mask="url(#path-2-inside-1_24_238)"/>
<mask id="path-4-inside-2_24_238" fill="white">
<path fill-rule="evenodd" clip-rule="evenodd" d="M1451.16 14.0041H-12.9043Z"/>
</mask>
<path d="M1451.16 14.4041C1451.38 14.4041 1451.56 14.225 1451.56 14.0041C1451.56 13.7832 1451.38 13.6041 1451.16 13.6041V14.4041ZM-12.9043 13.6041C-13.1252 13.6041 -13.3043 13.7832 -13.3043 14.0041C-13.3043 14.225 -13.1252 14.4041 -12.9043 14.4041V13.6041ZM1451.16 13.6041H-12.9043V14.4041H1451.16V13.6041Z" fill="#5EF5FF" mask="url(#path-4-inside-2_24_238)"/>
<mask id="path-6-inside-3_24_238" fill="white">
<path fill-rule="evenodd" clip-rule="evenodd" d="M1451.16 16.7598H-12.9043Z"/>
</mask>
<path d="M1451.16 17.1598C1451.38 17.1598 1451.56 16.9807 1451.56 16.7598C1451.56 16.5388 1451.38 16.3598 1451.16 16.3598V17.1598ZM-12.9043 16.3598C-13.1252 16.3598 -13.3043 16.5388 -13.3043 16.7598C-13.3043 16.9807 -13.1252 17.1598 -12.9043 17.1598V16.3598ZM1451.16 16.3598H-12.9043V17.1598H1451.16V16.3598Z" fill="#5EF5FF" mask="url(#path-6-inside-3_24_238)"/>
<mask id="path-8-inside-4_24_238" fill="white">
<path fill-rule="evenodd" clip-rule="evenodd" d="M1451.16 19.7889H-12.9043Z"/>
</mask>
<path d="M1451.16 20.1889C1451.38 20.1889 1451.56 20.0098 1451.56 19.7889C1451.56 19.568 1451.38 19.3889 1451.16 19.3889V20.1889ZM-12.9043 19.3889C-13.1252 19.3889 -13.3043 19.568 -13.3043 19.7889C-13.3043 20.0098 -13.1252 20.1889 -12.9043 20.1889V19.3889ZM1451.16 19.3889H-12.9043V20.1889H1451.16V19.3889Z" fill="#5EF5FF" mask="url(#path-8-inside-4_24_238)"/>
<mask id="path-10-inside-5_24_238" fill="white">
<path fill-rule="evenodd" clip-rule="evenodd" d="M1451.16 23.1282H-12.9043Z"/>
</mask>
<path d="M1451.16 23.5282C1451.38 23.5282 1451.56 23.3491 1451.56 23.1282C1451.56 22.9072 1451.38 22.7282 1451.16 22.7282V23.5282ZM-12.9043 22.7282C-13.1252 22.7282 -13.3043 22.9072 -13.3043 23.1282C-13.3043 23.3491 -13.1252 23.5282 -12.9043 23.5282V22.7282ZM1451.16 22.7282H-12.9043V23.5282H1451.16V22.7282Z" fill="#5EF5FF" mask="url(#path-10-inside-5_24_238)"/>
<mask id="path-12-inside-6_24_238" fill="white">
<path fill-rule="evenodd" clip-rule="evenodd" d="M1451.16 26.8351H-12.9043Z"/>
</mask>
<path d="M1451.16 27.2351C1451.38 27.2351 1451.56 27.056 1451.56 26.8351C1451.56 26.6142 1451.38 26.4351 1451.16 26.4351V27.2351ZM-12.9043 26.4351C-13.1252 26.4351 -13.3043 26.6142 -13.3043 26.8351C-13.3043 27.056 -13.1252 27.2351 -12.9043 27.2351V26.4351ZM1451.16 26.4351H-12.9043V27.2351H1451.16V26.4351Z" fill="#5EF5FF" mask="url(#path-12-inside-6_24_238)"/>
<mask id="path-14-inside-7_24_238" fill="white">
<path fill-rule="evenodd" clip-rule="evenodd" d="M1451.16 30.9701H-12.9043Z"/>
</mask>
<path d="M1451.16 31.3701C1451.38 31.3701 1451.56 31.191 1451.56 30.9701C1451.56 30.7492 1451.38 30.5701 1451.16 30.5701V31.3701ZM-12.9043 30.5701C-13.1252 30.5701 -13.3043 30.7492 -13.3043 30.9701C-13.3043 31.191 -13.1252 31.3701 -12.9043 31.3701V30.5701ZM1451.16 30.5701H-12.9043V31.3701H1451.16V30.5701Z" fill="#5EF5FF" mask="url(#path-14-inside-7_24_238)"/>
<mask id="path-16-inside-8_24_238" fill="white">
<path fill-rule="evenodd" clip-rule="evenodd" d="M1451.16 35.6159H-12.9043Z"/>
</mask>
<path d="M1451.16 36.0159C1451.38 36.0159 1451.56 35.8368 1451.56 35.6159C1451.56 35.395 1451.38 35.2159 1451.16 35.2159V36.0159ZM-12.9043 35.2159C-13.1252 35.2159 -13.3043 35.395 -13.3043 35.6159C-13.3043 35.8368 -13.1252 36.0159 -12.9043 36.0159V35.2159ZM1451.16 35.2159H-12.9043V36.0159H1451.16V35.2159Z" fill="#5EF5FF" mask="url(#path-16-inside-8_24_238)"/>
<mask id="path-18-inside-9_24_238" fill="white">
<path fill-rule="evenodd" clip-rule="evenodd" d="M1451.16 40.866H-12.9043Z"/>
</mask>
<path d="M1451.16 41.266C1451.38 41.266 1451.56 41.0869 1451.56 40.866C1451.56 40.645 1451.38 40.466 1451.16 40.466V41.266ZM-12.9043 40.466C-13.1252 40.466 -13.3043 40.645 -13.3043 40.866C-13.3043 41.0869 -13.1252 41.266 -12.9043 41.266V40.466ZM1451.16 40.466H-12.9043V41.266H1451.16V40.466Z" fill="#5EF5FF" mask="url(#path-18-inside-9_24_238)"/>
<mask id="path-20-inside-10_24_238" fill="white">
<path fill-rule="evenodd" clip-rule="evenodd" d="M1451.16 46.8517H-12.9043Z"/>
</mask>
<path d="M1451.16 47.2517C1451.38 47.2517 1451.56 47.0726 1451.56 46.8517C1451.56 46.6308 1451.38 46.4517 1451.16 46.4517V47.2517ZM-12.9043 46.4517C-13.1252 46.4517 -13.3043 46.6308 -13.3043 46.8517C-13.3043 47.0726 -13.1252 47.2517 -12.9043 47.2517V46.4517ZM1451.16 46.4517H-12.9043V47.2517H1451.16V46.4517Z" fill="#5EF5FF" mask="url(#path-20-inside-10_24_238)"/>
<mask id="path-22-inside-11_24_238" fill="white">
<path fill-rule="evenodd" clip-rule="evenodd" d="M1451.16 53.7397H-12.9043Z"/>
</mask>
<path d="M1451.16 54.1397C1451.38 54.1397 1451.56 53.9606 1451.56 53.7397C1451.56 53.5188 1451.38 53.3397 1451.16 53.3397V54.1397ZM-12.9043 53.3397C-13.1252 53.3397 -13.3043 53.5188 -13.3043 53.7397C-13.3043 53.9606 -13.1252 54.1397 -12.9043 54.1397V53.3397ZM1451.16 53.3397H-12.9043V54.1397H1451.16V53.3397Z" fill="#5EF5FF" mask="url(#path-22-inside-11_24_238)"/>
<mask id="path-24-inside-12_24_238" fill="white">
<path fill-rule="evenodd" clip-rule="evenodd" d="M1451.16 61.7518H-12.9043Z"/>
</mask>
<path d="M1451.16 62.1518C1451.38 62.1518 1451.56 61.9727 1451.56 61.7518C1451.56 61.5308 1451.38 61.3518 1451.16 61.3518V62.1518ZM-12.9043 61.3518C-13.1252 61.3518 -13.3043 61.5308 -13.3043 61.7518C-13.3043 61.9727 -13.1252 62.1518 -12.9043 62.1518V61.3518ZM1451.16 61.3518H-12.9043V62.1518H1451.16V61.3518Z" fill="#5EF5FF" mask="url(#path-24-inside-12_24_238)"/>
<mask id="path-26-inside-13_24_238" fill="white">
<path fill-rule="evenodd" clip-rule="evenodd" d="M1451.16 71.1795H-12.9043Z"/>
</mask>
<path d="M1451.16 71.5795C1451.38 71.5795 1451.56 71.4004 1451.56 71.1795C1451.56 70.9586 1451.38 70.7795 1451.16 70.7795V71.5795ZM-12.9043 70.7795C-13.1252 70.7795 -13.3043 70.9586 -13.3043 71.1795C-13.3043 71.4004 -13.1252 71.5795 -12.9043 71.5795V70.7795ZM1451.16 70.7795H-12.9043V71.5795H1451.16V70.7795Z" fill="#5EF5FF" mask="url(#path-26-inside-13_24_238)"/>
<mask id="path-28-inside-14_24_238" fill="white">
<path fill-rule="evenodd" clip-rule="evenodd" d="M1451.16 82.4428H-12.9043Z"/>
</mask>
<path d="M1451.16 82.8428C1451.38 82.8428 1451.56 82.6637 1451.56 82.4428C1451.56 82.2219 1451.38 82.0428 1451.16 82.0428V82.8428ZM-12.9043 82.0428C-13.1252 82.0428 -13.3043 82.2219 -13.3043 82.4428C-13.3043 82.6637 -13.1252 82.8428 -12.9043 82.8428V82.0428ZM1451.16 82.0428H-12.9043V82.8428H1451.16V82.0428Z" fill="#5EF5FF" mask="url(#path-28-inside-14_24_238)"/>
<mask id="path-30-inside-15_24_238" fill="white">
<path fill-rule="evenodd" clip-rule="evenodd" d="M1451.16 96.1336H-13.2148Z"/>
</mask>
<path d="M1451.16 96.5336C1451.38 96.5336 1451.56 96.3545 1451.56 96.1336C1451.56 95.9127 1451.38 95.7336 1451.16 95.7336V96.5336ZM-13.2148 95.7336C-13.4358 95.7336 -13.6148 95.9127 -13.6148 96.1336C-13.6148 96.3545 -13.4358 96.5336 -13.2148 96.5336V95.7336ZM1451.16 95.7336H-13.2148V96.5336H1451.16V95.7336Z" fill="#5EF5FF" mask="url(#path-30-inside-15_24_238)"/>
<mask id="path-32-inside-16_24_238" fill="white">
<path fill-rule="evenodd" clip-rule="evenodd" d="M1451.16 113.127H-12.9043Z"/>
</mask>
<path d="M1451.16 113.527C1451.38 113.527 1451.56 113.348 1451.56 113.127C1451.56 112.906 1451.38 112.727 1451.16 112.727V113.527ZM-12.9043 112.727C-13.1252 112.727 -13.3043 112.906 -13.3043 113.127C-13.3043 113.348 -13.1252 113.527 -12.9043 113.527V112.727ZM1451.16 112.727H-12.9043V113.527H1451.16V112.727Z" fill="#5EF5FF" mask="url(#path-32-inside-16_24_238)"/>
<mask id="path-34-inside-17_24_238" fill="white">
<path fill-rule="evenodd" clip-rule="evenodd" d="M1451.16 134.791H-12.9043Z"/>
</mask>
<path d="M1451.16 135.191C1451.38 135.191 1451.56 135.012 1451.56 134.791C1451.56 134.57 1451.38 134.391 1451.16 134.391V135.191ZM-12.9043 134.391C-13.1252 134.391 -13.3043 134.57 -13.3043 134.791C-13.3043 135.012 -13.1252 135.191 -12.9043 135.191V134.391ZM1451.16 134.391H-12.9043V135.191H1451.16V134.391Z" fill="#5EF5FF" mask="url(#path-34-inside-17_24_238)"/>
<mask id="path-36-inside-18_24_238" fill="white">
<path fill-rule="evenodd" clip-rule="evenodd" d="M1451.16 163.351H-12.9043Z"/>
</mask>
<path d="M1451.16 163.751C1451.38 163.751 1451.56 163.572 1451.56 163.351C1451.56 163.13 1451.38 162.951 1451.16 162.951V163.751ZM-12.9043 162.951C-13.1252 162.951 -13.3043 163.13 -13.3043 163.351C-13.3043 163.572 -13.1252 163.751 -12.9043 163.751V162.951ZM1451.16 162.951H-12.9043V163.751H1451.16V162.951Z" fill="#5EF5FF" mask="url(#path-36-inside-18_24_238)"/>
<mask id="path-38-inside-19_24_238" fill="white">
<path fill-rule="evenodd" clip-rule="evenodd" d="M1451.16 202.722H-12.9043Z"/>
</mask>
<path d="M1451.16 203.122C1451.38 203.122 1451.56 202.943 1451.56 202.722C1451.56 202.501 1451.38 202.322 1451.16 202.322V203.122ZM-12.9043 202.322C-13.1252 202.322 -13.3043 202.501 -13.3043 202.722C-13.3043 202.943 -13.1252 203.122 -12.9043 203.122V202.322ZM1451.16 202.322H-12.9043V203.122H1451.16V202.322Z" fill="#5EF5FF" mask="url(#path-38-inside-19_24_238)"/>
<mask id="path-40-inside-20_24_238" fill="white">
<path fill-rule="evenodd" clip-rule="evenodd" d="M1451.16 260.479H-12.9043Z"/>
</mask>
<path d="M1451.16 260.879C1451.38 260.879 1451.56 260.699 1451.56 260.479C1451.56 260.258 1451.38 260.079 1451.16 260.079V260.879ZM-12.9043 260.079C-13.1252 260.079 -13.3043 260.258 -13.3043 260.479C-13.3043 260.699 -13.1252 260.879 -12.9043 260.879V260.079ZM1451.16 260.079H-12.9043V260.879H1451.16V260.079Z" fill="#5EF5FF" mask="url(#path-40-inside-20_24_238)"/>
</g>
<defs>
<filter id="filter0_d_24_238" x="-24.6147" y="0" width="1517.35" height="281" filterUnits="userSpaceOnUse" color-interpolation-filters="sRGB">
<feFlood flood-opacity="0" result="BackgroundImageFix"/>
<feColorMatrix in="SourceAlpha" type="matrix" values="0 0 0 0 0 0 0 0 0 0 0 0 0 0 0 0 0 0 127 0" result="hardAlpha"/>
<feOffset dx="2" dy="4"/>
<feGaussianBlur stdDeviation="6.5"/>
<feComposite in2="hardAlpha" operator="out"/>
<feColorMatrix type="matrix" values="0 0 0 0 0.6364 0 0 0 0 0.023125 0 0 0 0 0.925 0 0 0 1 0"/>
<feBlend mode="screen" in2="BackgroundImageFix" result="effect1_dropShadow_24_238"/>
<feBlend mode="normal" in="SourceGraphic" in2="effect1_dropShadow_24_238" result="shape"/>
</filter>
</defs>
</svg>
