<svg width="1440" height="262" viewBox="0 0 1440 262" fill="none" xmlns="http://www.w3.org/2000/svg">
<path d="M719.127 9.48547L718.614 266.582" stroke="#5EF5FF" stroke-width="0.4" stroke-linecap="round" stroke-linejoin="round"/>
<path d="M353.065 266.582L653.627 9.48547" stroke="#5EF5FF" stroke-width="0.4" stroke-linecap="round" stroke-linejoin="round"/>
<path d="M784.631 9.48547L1084.16 266.582" stroke="#5EF5FF" stroke-width="0.4" stroke-linecap="round" stroke-linejoin="round"/>
<path d="M-12.9036 110.131L457.122 9.48572" stroke="#5EF5FF" stroke-width="0.4" stroke-linecap="round" stroke-linejoin="round"/>
<path d="M-12.9036 16.0846L64.1134 9.48523" stroke="#5EF5FF" stroke-width="0.4" stroke-linecap="round" stroke-linejoin="round"/>
<path d="M-12.9036 23.0518L129.613 9.48547" stroke="#5EF5FF" stroke-width="0.4" stroke-linecap="round" stroke-linejoin="round"/>
<path d="M-12.9036 31.7627L195.118 9.48523" stroke="#5EF5FF" stroke-width="0.4" stroke-linecap="round" stroke-linejoin="round"/>
<path d="M-12.9036 42.9592L260.618 9.48523" stroke="#5EF5FF" stroke-width="0.4" stroke-linecap="round" stroke-linejoin="round"/>
<path d="M-12.9036 57.8859L326.117 9.48462" stroke="#5EF5FF" stroke-width="0.4" stroke-linecap="round" stroke-linejoin="round"/>
<path d="M-12.9036 78.787L391.624 9.4856" stroke="#5EF5FF" stroke-width="0.4" stroke-linecap="round" stroke-linejoin="round"/>
<path d="M-12.9036 162.357L522.622 9.4856" stroke="#5EF5FF" stroke-width="0.4" stroke-linecap="round" stroke-linejoin="round"/>
<path d="M-22 270.658L578.605 13.5613" stroke="#5EF5FF" stroke-width="0.4" stroke-linecap="round" stroke-linejoin="round"/>
<path d="M1451.16 10.3816L1439.65 9.48523" stroke="#5EF5FF" stroke-width="0.4" stroke-linecap="round" stroke-linejoin="round"/>
<path d="M1451.16 16.0846L1374.15 9.48523" stroke="#5EF5FF" stroke-width="0.4" stroke-linecap="round" stroke-linejoin="round"/>
<path d="M1451.16 23.0574L1308.65 9.48523" stroke="#5EF5FF" stroke-width="0.4" stroke-linecap="round" stroke-linejoin="round"/>
<path d="M1451.16 31.7721L1243.14 9.48584" stroke="#5EF5FF" stroke-width="0.4" stroke-linecap="round" stroke-linejoin="round"/>
<path d="M1451.16 42.9743L1177.64 9.48578" stroke="#5EF5FF" stroke-width="0.4" stroke-linecap="round" stroke-linejoin="round"/>
<path d="M1112.14 9.48547L1451.16 57.914" stroke="#5EF5FF" stroke-width="0.4" stroke-linecap="round" stroke-linejoin="round"/>
<path d="M1046.64 9.48499L1451.28 78.8533" stroke="#5EF5FF" stroke-width="0.4" stroke-linecap="round" stroke-linejoin="round"/>
<path d="M981.137 9.48474L1451.16 110.216" stroke="#5EF5FF" stroke-width="0.4" stroke-linecap="round" stroke-linejoin="round"/>
<path d="M915.638 9.4856L1451.16 162.531" stroke="#5EF5FF" stroke-width="0.4" stroke-linecap="round" stroke-linejoin="round"/>
<path d="M850.132 9.48572L1449.71 266.583" stroke="#5EF5FF" stroke-width="0.4" stroke-linecap="round" stroke-linejoin="round"/>
<g filter="url(#filter0_d_24_212)">
<mask id="path-23-inside-1_24_212" fill="white">
<path fill-rule="evenodd" stroke="#5EF5FF" stroke-width="0.4" stroke-linecap="round" stroke-linejoin="round" clip-rule="evenodd" d="M1477.34 10.132H-12.8977Z"/>
</mask>
<path d="M1477.34 10.532C1477.56 10.532 1477.74 10.3529 1477.74 10.132C1477.74 9.91105 1477.56 9.73197 1477.34 9.73197V10.532ZM-12.8977 9.73197C-13.1186 9.73197 -13.2977 9.91105 -13.2977 10.132C-13.2977 10.3529 -13.1186 10.532 -12.8977 10.532V9.73197ZM1477.34 9.73197H-12.8977V10.532H1477.34V9.73197Z" fill="#5EF5FF" mask="url(#path-23-inside-1_24_212)"/>
<mask id="path-25-inside-2_24_212" fill="white">
<path fill-rule="evenodd" stroke="#5EF5FF" stroke-width="0.4" stroke-linecap="round" stroke-linejoin="round" clip-rule="evenodd" d="M1451.16 12.0041H-12.9043Z"/>
</mask>
<path d="M1451.16 12.4041C1451.38 12.4041 1451.56 12.225 1451.56 12.0041C1451.56 11.7832 1451.38 11.6041 1451.16 11.6041V12.4041ZM-12.9043 11.6041C-13.1252 11.6041 -13.3043 11.7832 -13.3043 12.0041C-13.3043 12.225 -13.1252 12.4041 -12.9043 12.4041V11.6041ZM1451.16 11.6041H-12.9043V12.4041H1451.16V11.6041Z" fill="#5EF5FF" mask="url(#path-25-inside-2_24_212)"/>
<mask id="path-27-inside-3_24_212" fill="white">
<path fill-rule="evenodd" stroke="#5EF5FF" stroke-width="0.4" stroke-linecap="round" stroke-linejoin="round" clip-rule="evenodd" d="M1451.16 14.7598H-12.9043Z"/>
</mask>
<path d="M1451.16 15.1598C1451.38 15.1598 1451.56 14.9807 1451.56 14.7598C1451.56 14.5388 1451.38 14.3598 1451.16 14.3598V15.1598ZM-12.9043 14.3598C-13.1252 14.3598 -13.3043 14.5388 -13.3043 14.7598C-13.3043 14.9807 -13.1252 15.1598 -12.9043 15.1598V14.3598ZM1451.16 14.3598H-12.9043V15.1598H1451.16V14.3598Z" fill="#5EF5FF" mask="url(#path-27-inside-3_24_212)"/>
<mask id="path-29-inside-4_24_212" fill="white">
<path fill-rule="evenodd" stroke="#5EF5FF" stroke-width="0.4" stroke-linecap="round" stroke-linejoin="round" clip-rule="evenodd" d="M1451.16 17.7889H-12.9043Z"/>
</mask>
<path d="M1451.16 18.1889C1451.38 18.1889 1451.56 18.0098 1451.56 17.7889C1451.56 17.568 1451.38 17.3889 1451.16 17.3889V18.1889ZM-12.9043 17.3889C-13.1252 17.3889 -13.3043 17.568 -13.3043 17.7889C-13.3043 18.0098 -13.1252 18.1889 -12.9043 18.1889V17.3889ZM1451.16 17.3889H-12.9043V18.1889H1451.16V17.3889Z" fill="#5EF5FF" mask="url(#path-29-inside-4_24_212)"/>
<mask id="path-31-inside-5_24_212" fill="white">
<path fill-rule="evenodd" stroke="#5EF5FF" stroke-width="0.4" stroke-linecap="round" stroke-linejoin="round" clip-rule="evenodd" d="M1451.16 21.1282H-12.9043Z"/>
</mask>
<path d="M1451.16 21.5282C1451.38 21.5282 1451.56 21.3491 1451.56 21.1282C1451.56 20.9072 1451.38 20.7282 1451.16 20.7282V21.5282ZM-12.9043 20.7282C-13.1252 20.7282 -13.3043 20.9072 -13.3043 21.1282C-13.3043 21.3491 -13.1252 21.5282 -12.9043 21.5282V20.7282ZM1451.16 20.7282H-12.9043V21.5282H1451.16V20.7282Z" fill="#5EF5FF" mask="url(#path-31-inside-5_24_212)"/>
<mask id="path-33-inside-6_24_212" fill="white">
<path fill-rule="evenodd" stroke="#5EF5FF" stroke-width="0.4" stroke-linecap="round" stroke-linejoin="round" clip-rule="evenodd" d="M1451.16 24.8351H-12.9043Z"/>
</mask>
<path d="M1451.16 25.2351C1451.38 25.2351 1451.56 25.056 1451.56 24.8351C1451.56 24.6142 1451.38 24.4351 1451.16 24.4351V25.2351ZM-12.9043 24.4351C-13.1252 24.4351 -13.3043 24.6142 -13.3043 24.8351C-13.3043 25.056 -13.1252 25.2351 -12.9043 25.2351V24.4351ZM1451.16 24.4351H-12.9043V25.2351H1451.16V24.4351Z" fill="#5EF5FF" mask="url(#path-33-inside-6_24_212)"/>
<mask id="path-35-inside-7_24_212" fill="white">
<path fill-rule="evenodd" stroke="#5EF5FF" stroke-width="0.4" stroke-linecap="round" stroke-linejoin="round" clip-rule="evenodd" d="M1451.16 28.9701H-12.9043Z"/>
</mask>
<path d="M1451.16 29.3701C1451.38 29.3701 1451.56 29.191 1451.56 28.9701C1451.56 28.7492 1451.38 28.5701 1451.16 28.5701V29.3701ZM-12.9043 28.5701C-13.1252 28.5701 -13.3043 28.7492 -13.3043 28.9701C-13.3043 29.191 -13.1252 29.3701 -12.9043 29.3701V28.5701ZM1451.16 28.5701H-12.9043V29.3701H1451.16V28.5701Z" fill="#5EF5FF" mask="url(#path-35-inside-7_24_212)"/>
<mask id="path-37-inside-8_24_212" fill="white">
<path fill-rule="evenodd" stroke="#5EF5FF" stroke-width="0.4" stroke-linecap="round" stroke-linejoin="round" clip-rule="evenodd" d="M1451.16 33.6159H-12.9043Z"/>
</mask>
<path d="M1451.16 34.0159C1451.38 34.0159 1451.56 33.8368 1451.56 33.6159C1451.56 33.395 1451.38 33.2159 1451.16 33.2159V34.0159ZM-12.9043 33.2159C-13.1252 33.2159 -13.3043 33.395 -13.3043 33.6159C-13.3043 33.8368 -13.1252 34.0159 -12.9043 34.0159V33.2159ZM1451.16 33.2159H-12.9043V34.0159H1451.16V33.2159Z" fill="#5EF5FF" mask="url(#path-37-inside-8_24_212)"/>
<mask id="path-39-inside-9_24_212" fill="white">
<path fill-rule="evenodd" stroke="#5EF5FF" stroke-width="0.4" stroke-linecap="round" stroke-linejoin="round" clip-rule="evenodd" d="M1451.16 38.866H-12.9043Z"/>
</mask>
<path d="M1451.16 39.266C1451.38 39.266 1451.56 39.0869 1451.56 38.866C1451.56 38.645 1451.38 38.466 1451.16 38.466V39.266ZM-12.9043 38.466C-13.1252 38.466 -13.3043 38.645 -13.3043 38.866C-13.3043 39.0869 -13.1252 39.266 -12.9043 39.266V38.466ZM1451.16 38.466H-12.9043V39.266H1451.16V38.466Z" fill="#5EF5FF" mask="url(#path-39-inside-9_24_212)"/>
<mask id="path-41-inside-10_24_212" fill="white">
<path fill-rule="evenodd" stroke="#5EF5FF" stroke-width="0.4" stroke-linecap="round" stroke-linejoin="round" clip-rule="evenodd" d="M1451.16 44.8517H-12.9043Z"/>
</mask>
<path d="M1451.16 45.2517C1451.38 45.2517 1451.56 45.0726 1451.56 44.8517C1451.56 44.6308 1451.38 44.4517 1451.16 44.4517V45.2517ZM-12.9043 44.4517C-13.1252 44.4517 -13.3043 44.6308 -13.3043 44.8517C-13.3043 45.0726 -13.1252 45.2517 -12.9043 45.2517V44.4517ZM1451.16 44.4517H-12.9043V45.2517H1451.16V44.4517Z" fill="#5EF5FF" mask="url(#path-41-inside-10_24_212)"/>
<mask id="path-43-inside-11_24_212" fill="white">
<path fill-rule="evenodd" stroke="#5EF5FF" stroke-width="0.4" stroke-linecap="round" stroke-linejoin="round" clip-rule="evenodd" d="M1451.16 51.7397H-12.9043Z"/>
</mask>
<path d="M1451.16 52.1397C1451.38 52.1397 1451.56 51.9606 1451.56 51.7397C1451.56 51.5188 1451.38 51.3397 1451.16 51.3397V52.1397ZM-12.9043 51.3397C-13.1252 51.3397 -13.3043 51.5188 -13.3043 51.7397C-13.3043 51.9606 -13.1252 52.1397 -12.9043 52.1397V51.3397ZM1451.16 51.3397H-12.9043V52.1397H1451.16V51.3397Z" fill="#5EF5FF" mask="url(#path-43-inside-11_24_212)"/>
<mask id="path-45-inside-12_24_212" fill="white">
<path fill-rule="evenodd" stroke="#5EF5FF" stroke-width="0.4" stroke-linecap="round" stroke-linejoin="round" clip-rule="evenodd" d="M1451.16 59.7518H-12.9043Z"/>
</mask>
<path d="M1451.16 60.1518C1451.38 60.1518 1451.56 59.9727 1451.56 59.7518C1451.56 59.5308 1451.38 59.3518 1451.16 59.3518V60.1518ZM-12.9043 59.3518C-13.1252 59.3518 -13.3043 59.5308 -13.3043 59.7518C-13.3043 59.9727 -13.1252 60.1518 -12.9043 60.1518V59.3518ZM1451.16 59.3518H-12.9043V60.1518H1451.16V59.3518Z" fill="#5EF5FF" mask="url(#path-45-inside-12_24_212)"/>
<mask id="path-47-inside-13_24_212" fill="white">
<path fill-rule="evenodd" stroke="#5EF5FF" stroke-width="0.4" stroke-linecap="round" stroke-linejoin="round" clip-rule="evenodd" d="M1451.16 69.1795H-12.9043Z"/>
</mask>
<path d="M1451.16 69.5795C1451.38 69.5795 1451.56 69.4004 1451.56 69.1795C1451.56 68.9586 1451.38 68.7795 1451.16 68.7795V69.5795ZM-12.9043 68.7795C-13.1252 68.7795 -13.3043 68.9586 -13.3043 69.1795C-13.3043 69.4004 -13.1252 69.5795 -12.9043 69.5795V68.7795ZM1451.16 68.7795H-12.9043V69.5795H1451.16V68.7795Z" fill="#5EF5FF" mask="url(#path-47-inside-13_24_212)"/>
<mask id="path-49-inside-14_24_212" fill="white">
<path fill-rule="evenodd" stroke="#5EF5FF" stroke-width="0.4" stroke-linecap="round" stroke-linejoin="round" clip-rule="evenodd" d="M1451.16 80.4428H-12.9043Z"/>
</mask>
<path d="M1451.16 80.8428C1451.38 80.8428 1451.56 80.6637 1451.56 80.4428C1451.56 80.2219 1451.38 80.0428 1451.16 80.0428V80.8428ZM-12.9043 80.0428C-13.1252 80.0428 -13.3043 80.2219 -13.3043 80.4428C-13.3043 80.6637 -13.1252 80.8428 -12.9043 80.8428V80.0428ZM1451.16 80.0428H-12.9043V80.8428H1451.16V80.0428Z" fill="#5EF5FF" mask="url(#path-49-inside-14_24_212)"/>
<mask id="path-51-inside-15_24_212" fill="white">
<path fill-rule="evenodd" stroke="#5EF5FF" stroke-width="0.4" stroke-linecap="round" stroke-linejoin="round" clip-rule="evenodd" d="M1451.16 94.1336H-13.2148Z"/>
</mask>
<path d="M1451.16 94.5336C1451.38 94.5336 1451.56 94.3545 1451.56 94.1336C1451.56 93.9127 1451.38 93.7336 1451.16 93.7336V94.5336ZM-13.2148 93.7336C-13.4358 93.7336 -13.6148 93.9127 -13.6148 94.1336C-13.6148 94.3545 -13.4358 94.5336 -13.2148 94.5336V93.7336ZM1451.16 93.7336H-13.2148V94.5336H1451.16V93.7336Z" fill="#5EF5FF" mask="url(#path-51-inside-15_24_212)"/>
<mask id="path-53-inside-16_24_212" fill="white">
<path fill-rule="evenodd" stroke="#5EF5FF" stroke-width="0.4" stroke-linecap="round" stroke-linejoin="round" clip-rule="evenodd" d="M1451.16 111.127H-12.9043Z"/>
</mask>
<path d="M1451.16 111.527C1451.38 111.527 1451.56 111.348 1451.56 111.127C1451.56 110.906 1451.38 110.727 1451.16 110.727V111.527ZM-12.9043 110.727C-13.1252 110.727 -13.3043 110.906 -13.3043 111.127C-13.3043 111.348 -13.1252 111.527 -12.9043 111.527V110.727ZM1451.16 110.727H-12.9043V111.527H1451.16V110.727Z" fill="#5EF5FF" mask="url(#path-53-inside-16_24_212)"/>
<mask id="path-55-inside-17_24_212" fill="white">
<path fill-rule="evenodd" stroke="#5EF5FF" stroke-width="0.4" stroke-linecap="round" stroke-linejoin="round" clip-rule="evenodd" d="M1451.16 132.791H-12.9043Z"/>
</mask>
<path d="M1451.16 133.191C1451.38 133.191 1451.56 133.012 1451.56 132.791C1451.56 132.57 1451.38 132.391 1451.16 132.391V133.191ZM-12.9043 132.391C-13.1252 132.391 -13.3043 132.57 -13.3043 132.791C-13.3043 133.012 -13.1252 133.191 -12.9043 133.191V132.391ZM1451.16 132.391H-12.9043V133.191H1451.16V132.391Z" fill="#5EF5FF" mask="url(#path-55-inside-17_24_212)"/>
<mask id="path-57-inside-18_24_212" fill="white">
<path fill-rule="evenodd" stroke="#5EF5FF" stroke-width="0.4" stroke-linecap="round" stroke-linejoin="round" clip-rule="evenodd" d="M1451.16 161.351H-12.9043Z"/>
</mask>
<path d="M1451.16 161.751C1451.38 161.751 1451.56 161.572 1451.56 161.351C1451.56 161.13 1451.38 160.951 1451.16 160.951V161.751ZM-12.9043 160.951C-13.1252 160.951 -13.3043 161.13 -13.3043 161.351C-13.3043 161.572 -13.1252 161.751 -12.9043 161.751V160.951ZM1451.16 160.951H-12.9043V161.751H1451.16V160.951Z" fill="#5EF5FF" mask="url(#path-57-inside-18_24_212)"/>
<mask id="path-59-inside-19_24_212" fill="white">
<path fill-rule="evenodd" stroke="#5EF5FF" stroke-width="0.4" stroke-linecap="round" stroke-linejoin="round" clip-rule="evenodd" d="M1451.16 200.722H-12.9043Z"/>
</mask>
<path d="M1451.16 201.122C1451.38 201.122 1451.56 200.943 1451.56 200.722C1451.56 200.501 1451.38 200.322 1451.16 200.322V201.122ZM-12.9043 200.322C-13.1252 200.322 -13.3043 200.501 -13.3043 200.722C-13.3043 200.943 -13.1252 201.122 -12.9043 201.122V200.322ZM1451.16 200.322H-12.9043V201.122H1451.16V200.322Z" fill="#5EF5FF" mask="url(#path-59-inside-19_24_212)"/>
<mask id="path-61-inside-20_24_212" fill="white">
<path fill-rule="evenodd" stroke="#5EF5FF" stroke-width="0.4" stroke-linecap="round" stroke-linejoin="round" clip-rule="evenodd" d="M1451.16 258.479H-12.9043Z"/>
</mask>
<path fill-rule="evenodd" stroke="#5EF5FF" stroke-width="0.4" stroke-linecap="round" stroke-linejoin="round" clip-rule="evenodd" d="M1451.16 258.479H-12.9043Z" fill="#00FFF9"/>
<path d="M1451.16 258.879C1451.38 258.879 1451.56 258.699 1451.56 258.479C1451.56 258.258 1451.38 258.079 1451.16 258.079V258.879ZM-12.9043 258.079C-13.1252 258.079 -13.3043 258.258 -13.3043 258.479C-13.3043 258.699 -13.1252 258.879 -12.9043 258.879V258.079ZM1451.16 258.079H-12.9043V258.879H1451.16V258.079Z" fill="#5EF5FF" mask="url(#path-61-inside-20_24_212)"/>
</g>
<defs>
<filter id="filter0_d_24_212" x="-24.6147" y="0.731995" width="1517.35" height="275.147" filterUnits="userSpaceOnUse" color-interpolation-filters="sRGB">
<feFlood flood-opacity="0" result="BackgroundImageFix"/>
<feColorMatrix in="SourceAlpha" type="matrix" values="0 0 0 0 0 0 0 0 0 0 0 0 0 0 0 0 0 0 127 0" result="hardAlpha"/>
<feOffset dx="2" dy="4"/>
<feGaussianBlur stdDeviation="6.5"/>
<feComposite in2="hardAlpha" operator="out"/>
<feColorMatrix type="matrix" values="0 0 0 0 0.6364 0 0 0 0 0.023125 0 0 0 0 0.925 0 0 0 1 0"/>
<feBlend mode="screen" in2="BackgroundImageFix" result="effect1_dropShadow_24_212"/>
<feBlend mode="normal" in="SourceGraphic" in2="effect1_dropShadow_24_212" result="shape"/>
</filter>
</defs>
</svg>
