<svg width="444" height="141" viewBox="0 0 444 141" fill="none" xmlns="http://www.w3.org/2000/svg">
<path fill-rule="evenodd" clip-rule="evenodd" d="M371.966 19.631C369.066 21.9503 367.602 23.1148 366.89 23.3772C364.465 24.2705 362.681 23.47 357.471 22.1287C351.863 20.6837 353.667 21.7611 347.677 19.9935C336.247 16.6213 330.532 14.9349 330.639 14.1932C330.813 12.9838 339.175 14.2657 358.915 14.1932C368.459 14.1584 375.921 13.7951 376.316 15.6432C376.374 15.913 376.227 16.2225 371.966 19.631ZM443.17 4.47984C442.532 2.27355 435.33 2.57154 432.657 2.66724C413.213 3.36763 393.724 0.976456 374.292 1.94221C343.768 3.45971 299.407 5.66383 281.833 1.2875C281.833 1.2875 270.394 -1.5619 269.161 1.21717C268.895 1.81823 269.31 2.3649 269.318 4.17605C269.597 5.61162 270.286 9.8995 268.197 11.3677C267.579 11.8027 266.936 11.8353 263.605 11.8513C260.358 11.8665 258.735 11.8745 258.288 11.8513C254.764 11.6693 247.343 11.3931 236.897 11.0052C211.161 10.1467 191.913 9.41445 182.882 9.19259C174.598 8.98885 167.517 8.88807 158.111 9.79727C146.078 10.9602 137.159 13.1092 135.392 13.5428C100.675 22.0671 89.2321 40.805 72.6759 35.2939C70.0614 34.4239 62.9437 31.4918 61.0753 33.8439C59.5853 35.721 62.5471 39.563 60.7127 41.8193C59.4251 43.4042 56.7374 43.0178 54.5499 42.9068C51.0132 42.7278 46.8754 43.8755 38.5991 46.1695C32.0056 47.9973 26.2278 53.43 14.6728 64.2955C9.32061 69.328 6.05504 72.9952 3.43475 78.0712C1.06678 82.6585 -0.545708 85.1889 0.172079 88.2217C1.56053 94.0873 9.62222 95.5917 9.11687 99.5802C8.88123 101.44 7.07661 101.534 5.49168 105.38C4.77172 107.128 3.87847 109.296 4.76664 110.698C5.69397 112.161 8.03584 111.953 12.8602 111.785C23.9794 111.399 25.1663 112.07 26.2734 110.698C27.9135 108.666 26.3184 106.536 24.8234 97.2847C23.8554 91.298 23.1224 86.5186 24.0983 80.6088C24.9546 75.4226 26.6287 72.3854 27.4393 71.0586C28.7277 68.9509 30.1981 66.546 32.8024 65.0814C37.9494 62.1863 45.1019 64.3237 49.4746 67.5581C51.0226 68.7022 52.058 69.8637 58.5376 83.8715C63.4664 94.5266 65.9461 99.9166 66.6682 102.968C68.1045 109.032 67.5426 111.172 69.7757 112.873C72.0835 114.631 74.5523 113.768 86.1123 113.771C87.9205 113.771 89.728 113.831 91.5363 113.836C102.436 113.864 118.447 115.485 125.241 116.136C170.512 120.467 161.253 115.592 175.994 118.673C178.702 119.239 186.79 121.028 188.682 117.948C189.716 116.266 188.14 114.371 186.869 108.885C185.701 103.838 185.745 99.876 185.782 96.5596C185.811 93.9111 185.916 88.2079 187.957 82.0589C189.705 76.7937 192.558 68.1962 200.282 64.2955C210.516 59.1274 223.819 64.9661 230.372 71.9084C231.685 73.299 233.301 75.9773 236.534 81.3338C243.975 93.6588 243.277 96.0405 247.41 99.0973C253.373 103.506 258.108 100.977 261.548 105.26C264.732 109.224 263.776 115.249 262.619 119.428C262.621 119.426 262.623 119.424 262.625 119.422C262.63 119.414 262.634 119.407 262.636 119.398C277.344 117.647 280.037 117.586 280.037 117.586C282.649 117.526 284.646 117.64 286.348 117.844C292.889 118.628 297.076 119.385 299.25 119.761C308.41 121.345 310.918 116.07 324.267 114.323C328.51 113.768 334.105 114.194 345.293 115.048C353.006 115.636 360.86 114.288 368.494 115.531C369.994 115.775 373.393 116.385 375.427 114.485C377.465 112.581 375.829 110.309 377.192 107.798C380.507 101.694 396.506 103.459 406.027 101.127C406.691 100.964 407.214 100.796 407.64 100.671C412.464 99.2582 414.473 98.1946 415.619 96.1971C418.467 91.2321 412.745 86.1416 415.619 80.6088C417.571 76.8509 420.685 78.1778 424.319 72.6334C425.786 70.3959 426.352 68.542 428.561 67.4849C431.027 66.3045 432.435 67.6024 433.745 66.4706C435.69 64.7892 433.43 61.4569 433.745 54.87C433.954 50.4878 435.552 49.0718 434.47 46.8946C433.281 44.5019 430.371 43.7312 428.672 43.2694C410.923 38.445 418.264 38.2093 402.571 34.9314C394.385 33.2218 390.315 32.8535 389.517 30.2187C389.069 28.7345 390.237 27.8166 392.417 22.2433C395.648 13.9916 395.484 14.0213 395.922 13.5595C399.176 10.1279 404.262 12.622 421.056 13.1803C427.124 13.3819 430.951 13.2057 435.195 11.3677C439.119 9.66821 443.728 6.40626 443.17 4.47984Z" fill="url(#paint0_linear_54_190)"/>
<path fill-rule="evenodd" clip-rule="evenodd" d="M291.003 103.84C291.48 101.864 274.533 101.233 263.814 87.5265C261.234 84.2261 261.719 83.6272 252.939 69.4005C248.316 61.9116 246.006 58.1668 244.601 56.7123C234.058 45.7962 217.452 46.5023 216.324 46.5618C203.381 47.2419 190.943 54.7439 185.147 65.4128C181.823 71.5336 181.35 77.4723 180.435 88.9765C179.907 95.6106 177.166 102.032 180.435 108.19C181.031 109.313 182.481 112.043 183.697 111.815C187.8 111.048 177.251 78.9232 191.673 64.3252C199.817 56.0816 212.406 56.9871 213.424 57.0749C224.293 58.0138 231.29 65.2279 233.362 67.5879C239.499 74.5722 237.255 78.5817 243.513 86.4389C248.766 93.0324 255.011 96.0645 259.826 98.402C274.72 105.631 290.546 105.742 291.003 103.84Z" fill="url(#paint1_linear_54_190)"/>
<path fill-rule="evenodd" clip-rule="evenodd" d="M73.6444 110.385C72.3502 109.181 71.2141 106.835 71.8318 104.947C72.7693 102.085 77.8083 100.081 120.047 101.322C144.418 102.038 147.097 102.834 154.124 102.41C159.071 102.112 164.041 103.088 168.987 102.772C171.103 102.637 173.253 102.415 175.281 103.723C178.309 105.675 179.885 110.279 178.412 112.198C177.434 113.473 175.283 113.337 174.425 113.285C152.335 111.961 130.087 113.113 108.084 110.748C95.1056 109.353 93.1886 109.371 90.6828 109.66C82.5232 110.6 76.8788 113.395 73.6444 110.385Z" fill="url(#paint2_linear_54_190)"/>
<path fill-rule="evenodd" clip-rule="evenodd" d="M65.6291 87.4947C65.6175 87.4592 63.4468 64.6016 50.4033 56.6806C49.8697 56.3565 43.762 52.769 36.2644 54.143C25.2924 56.1535 19.3674 67.3184 19.951 67.9187C20.4817 68.4632 26.3002 60.2144 36.9894 58.4932C39.3501 58.1125 44.967 57.2084 49.6776 60.3058C53.3673 62.731 54.742 66.4541 57.2912 73.3565C60.0369 80.791 61.574 88.6968 63.454 88.5823C64.1036 88.5424 65.6284 87.4933 65.6291 87.4947Z" fill="url(#paint3_linear_54_190)"/>
<path fill-rule="evenodd" clip-rule="evenodd" d="M263.307 105.874C261.879 107.48 265.094 110.567 263.891 115.25C263.287 117.601 262.088 118.334 262.539 119.22C263.284 120.683 267.003 119.486 273.136 119.015C283.109 118.249 288.446 117.84 292.916 119.491C293.899 119.855 294.549 120.008 295.098 120.07C296.247 120.201 297.121 120.15 297.401 120.127C301.867 119.743 306.077 121.656 310.676 119.65C312.547 118.834 312.789 118.107 315.268 117.233C316.735 116.715 319.181 116.079 319.137 115.886C319.132 115.867 319.107 115.863 319.107 115.85C319.116 115.664 323.261 115.776 323.261 115.776C328.472 115.917 333.979 115.128 344.023 115.017C351.814 114.931 355.711 114.887 359.306 115.499C359.601 115.549 362.463 116.04 366.262 116.266C367.515 116.341 369.015 116.396 370.854 116.266C374.03 116.044 375.618 115.926 376.654 114.816C377.343 114.079 377.364 113.389 377.863 110.225C378.409 106.764 378.682 105.034 378.829 104.666C380.828 99.7102 390.031 102.611 395.023 96.4678C396.399 94.7749 397.012 92.9202 397.923 90.1651C398.93 87.1163 399.843 84.351 398.648 83.1561C397.822 82.3325 396.866 83.1257 392.826 83.1467C389.165 83.1655 388.074 82.5232 386.563 83.3983C385.163 84.2089 384.5 85.688 384.164 86.7748C384.164 86.7748 383.637 86.595 383.923 81.941C381.756 85.3979 380.902 85.506 380.902 85.506C380.201 85.5944 380.018 85.1159 378.908 84.7809C377.213 84.2683 375.701 84.7962 375.101 84.9622C372.196 85.7663 367.296 84.7853 357.882 84.9622C348.371 85.1398 339.419 85.6126 339.418 85.6133C339.185 81.3073 338.711 80.7396 338.711 80.7396C337.809 79.66 336.221 80.0087 332.427 80.256C328.721 80.4974 333.081 79.9783 322.355 80.4307C317.252 80.6453 314.699 80.749 314.337 80.8918C309.855 82.6638 311.107 86.057 304.833 91.9182C300.261 96.1923 297.974 98.3297 295.528 99.2817C294.914 99.521 293.275 100.102 292.447 101.638C291.596 103.217 292.476 104.188 291.903 105.263C291.011 106.94 287.897 106.406 278.309 106.17C271.624 106.004 272.666 106.222 270.152 105.988C265.732 105.576 264.166 104.908 263.307 105.874Z" fill="url(#paint4_linear_54_190)"/>
<path fill-rule="evenodd" clip-rule="evenodd" d="M71.5642 112.035C69.7204 111.192 69.2542 109.243 67.6576 104.87C66.8108 102.552 65.7856 100.301 64.9388 97.9821C63.6794 94.5345 62.3823 91.1015 61.1323 87.6503C54.7716 70.0986 51.7902 65.9782 47.8996 63.724C46.7918 63.0824 45.8956 62.7576 45.5433 62.6365C38.9345 60.3664 32.668 64.2366 31.7676 64.8116C29.5598 66.2225 28.212 67.8299 27.5986 68.618C25.3887 71.4573 24.7224 74.2305 24.1003 76.8197C23.9335 77.5128 23.1483 80.8915 23.2846 85.4295C23.3303 86.947 23.6174 89.0692 24.1909 93.3143C24.4251 95.0471 24.6883 96.822 25.0066 99.6584C25.1436 100.883 25.1393 100.994 25.3162 102.658C25.9005 108.156 26.2065 109.661 26.7285 109.718C27.2353 109.774 27.6812 108.436 28.1438 108.568C28.4875 108.666 28.531 109.486 28.5397 109.628C28.7202 112.576 32.0597 119.065 32.436 119.796C34.5256 123.856 38.3204 125.886 39.7792 126.666C42.4843 128.112 44.3919 128.224 57.7239 128.116C67.5721 128.036 68.9083 127.957 70.9203 126.802C74.9283 124.504 76.614 120.815 78.352 117.014C78.7674 116.106 79.2909 114.791 78.7145 113.933C78.2802 113.287 77.458 113.252 75.2705 112.845C73.0983 112.442 72.0115 112.241 71.5642 112.035Z" fill="url(#paint5_radial_54_190)"/>
<path d="M228.814 100.207C228.814 114.564 221.518 126.203 212.518 126.203C203.518 126.203 196.222 114.564 196.222 100.207C196.222 85.849 203.518 74.2107 212.518 74.2107C221.518 74.2107 228.814 85.849 228.814 100.207Z" fill="#928989"/>
<path d="M59.1316 95.3761C59.1316 107.903 52.4765 118.057 44.2676 118.057C36.0587 118.057 29.4043 107.903 29.4043 95.3761C29.4043 82.8503 36.0587 72.6954 44.2676 72.6954C52.4765 72.6954 59.1316 82.8503 59.1316 95.3761Z" fill="#928989"/>
<path fill-rule="evenodd" clip-rule="evenodd" d="M59.1724 94.9878C59.1724 106.018 53.4417 114.959 46.3718 114.959C39.3027 114.959 33.572 106.018 33.572 94.9878C33.572 83.9578 39.3027 75.0159 46.3718 75.0159C53.4417 75.0159 59.1724 83.9578 59.1724 94.9878Z" fill="url(#paint6_radial_54_190)"/>
<path fill-rule="evenodd" clip-rule="evenodd" d="M367.67 36.8735C367.725 36.1898 354.751 34.7926 348.42 34.2307C339.576 33.4455 345.196 34.4251 336.856 33.9734C335.79 33.9154 332.435 33.7232 328.518 35.0609C327.343 35.4626 326.311 35.8149 326.343 36.1485C326.431 37.0736 334.598 36.8271 347.732 36.8735C362.63 36.9264 367.637 37.2976 367.67 36.8735Z" fill="url(#paint7_linear_54_190)"/>
<path fill-rule="evenodd" clip-rule="evenodd" d="M346.578 94.1084C346.578 96.9803 345.158 99.3084 343.406 99.3084C341.654 99.3084 340.234 96.9803 340.234 94.1084C340.234 91.2358 341.654 88.9077 343.406 88.9077C345.158 88.9077 346.578 91.2358 346.578 94.1084Z" fill="url(#paint8_radial_54_190)"/>
<path fill-rule="evenodd" clip-rule="evenodd" d="M338.838 94.1084C338.838 96.9803 337.336 99.3084 335.484 99.3084C333.632 99.3084 332.13 96.9803 332.13 94.1084C332.13 91.2358 333.632 88.9077 335.484 88.9077C337.336 88.9077 338.838 91.2358 338.838 94.1084Z" fill="url(#paint9_radial_54_190)"/>
<path fill-rule="evenodd" clip-rule="evenodd" d="M393.116 92.5482C393.116 95.2019 391.696 97.3516 389.944 97.3516C388.192 97.3516 386.772 95.2019 386.772 92.5482C386.772 89.8961 388.192 87.7449 389.944 87.7449C391.696 87.7449 393.116 89.8961 393.116 92.5482Z" fill="url(#paint10_radial_54_190)"/>
<path fill-rule="evenodd" clip-rule="evenodd" d="M394.065 92.5297C394.065 95.0427 395.323 97.0786 396.874 97.0786C398.425 97.0786 399.684 95.0427 399.684 92.5297C399.684 90.0182 398.425 87.9816 396.874 87.9816C395.323 87.9816 394.065 90.0182 394.065 92.5297Z" fill="url(#paint11_radial_54_190)"/>
<path fill-rule="evenodd" clip-rule="evenodd" d="M398.417 65.1911C396.904 64.688 396.271 65.2803 395.498 64.8279C393.909 63.897 395.111 60.5212 395.105 55.3096C395.098 49.4121 393.55 46.1335 395.105 45.1591C396.223 44.458 397.446 45.8899 399.092 45.1591C401.081 44.2767 400.476 41.6673 401.993 40.0838C404.02 37.9681 407.936 39.6669 418.306 42.2589C427.38 44.5268 429.857 44.595 430.994 46.9717C431.657 48.3543 431.044 48.8046 430.632 56.0346C430.332 61.2926 430.61 61.8552 429.907 62.9225C428.333 65.3093 425.525 64.6387 418.306 65.8234C408.992 67.3503 403.857 70.0765 401.465 67.5983C400.907 67.0219 400.104 65.7531 398.417 65.1911Z" fill="url(#paint12_linear_54_190)"/>
<path d="M398.508 65.1158C399.663 65.4704 400.591 66.3165 401.336 67.2286C401.71 67.6861 402.194 68.0254 402.738 68.2248C403.283 68.4278 403.877 68.4604 404.46 68.4474C405.631 68.4068 406.789 68.1436 407.938 67.8761C409.088 67.6034 410.232 67.2902 411.38 66.993C413.674 66.3832 415.996 65.8518 418.343 65.4378C420.686 65.0129 423.072 64.799 425.41 64.5257C425.992 64.4503 426.572 64.3712 427.126 64.24C427.681 64.1153 428.217 63.9449 428.663 63.6585C429.115 63.3816 429.473 62.9748 429.757 62.5217C430.027 62.0924 430.082 61.5704 430.124 60.9831C430.223 58.6376 430.314 56.2407 430.51 53.8763C430.606 52.6916 430.716 51.5054 430.861 50.3258C430.93 49.7371 431.011 49.1469 431.055 48.5734C431.108 47.9919 431.053 47.4909 430.791 46.9913C430.554 46.4874 430.209 46.0568 429.755 45.7334C429.302 45.4086 428.773 45.1737 428.234 44.9627C427.139 44.5632 425.99 44.2696 424.845 43.9745L417.945 42.2366L411.062 40.437C409.914 40.1441 408.766 39.8541 407.608 39.6221C406.453 39.4038 405.273 39.2095 404.134 39.3204C403.572 39.3944 403.032 39.5626 402.593 39.8896C402.161 40.2275 401.828 40.6813 401.612 41.2019C401.385 41.7196 401.246 42.2844 401.085 42.8608C400.924 43.4329 400.734 44.047 400.33 44.5784C399.932 45.1186 399.308 45.4622 398.659 45.5949C397.993 45.7204 397.331 45.5572 396.772 45.3992C396.201 45.2375 395.689 45.1425 395.328 45.4187C394.965 45.6696 394.817 46.1721 394.809 46.7383C394.796 47.8665 394.998 49.0548 395.122 50.2323C395.264 51.4134 395.348 52.606 395.376 53.7987C395.451 56.1885 395.2 58.5659 394.938 60.9172C394.881 61.5052 394.822 62.0953 394.829 62.6833C394.848 63.2605 394.874 63.8833 395.207 64.3553C395.29 64.4713 395.381 64.5793 395.503 64.6569C395.609 64.7519 395.742 64.8113 395.875 64.8577C396.148 64.9411 396.444 64.9201 396.739 64.902C397.332 64.8527 397.944 64.9186 398.508 65.1158ZM398.485 65.1847C397.925 64.9977 397.333 64.9418 396.746 64.9977C396.453 65.0187 396.145 65.0477 395.844 64.9607C395.697 64.9121 395.554 64.849 395.436 64.7483C395.303 64.6649 395.202 64.5496 395.109 64.4242C394.743 63.913 394.714 63.2728 394.687 62.6862C394.676 62.0881 394.716 61.4943 394.748 60.9012C394.925 58.5347 395.087 56.1718 394.922 53.819C394.852 52.6423 394.708 51.4728 394.558 50.3019C394.416 49.1259 394.19 47.968 394.181 46.7216L394.213 46.2438C394.249 46.0793 394.266 45.9154 394.325 45.7508C394.431 45.4209 394.65 45.0889 394.961 44.8829C395.26 44.6698 395.654 44.5799 395.999 44.6031C396.346 44.6219 396.65 44.7104 396.937 44.788C397.509 44.9562 398.038 45.0787 398.55 44.9873C399.056 44.8851 399.546 44.6277 399.856 44.2094C400.509 43.3662 400.62 42.1097 401.15 40.9909C401.406 40.424 401.804 39.9012 402.322 39.522C402.852 39.1493 403.481 38.9797 404.093 38.9181C405.325 38.8376 406.509 39.0776 407.669 39.3306C408.832 39.5873 409.981 39.8853 411.126 40.1941C415.698 41.4644 420.302 42.5744 424.938 43.588C426.094 43.8599 427.253 44.1267 428.396 44.5146C428.963 44.7227 429.534 44.9562 430.055 45.3122C430.579 45.666 431.012 46.18 431.289 46.7427C431.435 47.0203 431.556 47.3299 431.613 47.6577C431.673 47.9861 431.662 48.3022 431.651 48.6082C431.617 49.2187 431.55 49.8052 431.494 50.3954C431.379 51.5729 431.269 52.7482 431.19 53.9271C431.018 56.2914 430.955 58.6355 430.878 61.0288C430.859 61.3326 430.837 61.64 430.777 61.9634C430.719 62.2867 430.592 62.6275 430.42 62.9103C430.077 63.4599 429.631 63.9616 429.066 64.3052C428.508 64.6569 427.892 64.8425 427.295 64.9759C426.694 65.1158 426.096 65.1927 425.502 65.2674C423.129 65.5226 420.79 65.7626 418.455 66.1193C416.12 66.468 413.808 66.9596 411.492 67.457C410.334 67.7079 409.176 67.9703 408.009 68.2023C406.844 68.4285 405.665 68.6511 404.461 68.6482C404.161 68.6352 403.86 68.6439 403.563 68.5808C403.415 68.5525 403.263 68.5446 403.117 68.5047L402.685 68.3684C402.121 68.1545 401.611 67.7796 401.24 67.3113C400.508 66.389 399.62 65.553 398.485 65.1847Z" fill="#541D5D"/>
<path fill-rule="evenodd" clip-rule="evenodd" d="M321.729 67.5025C323.381 66.9544 324.073 67.5997 324.917 67.1066C326.652 66.0938 325.339 62.4186 325.347 56.7444C325.354 50.3235 327.045 46.7548 325.347 45.6934C324.124 44.9306 322.789 46.4895 320.99 45.6934C318.82 44.7327 319.48 41.892 317.823 40.1686C315.609 37.8651 311.332 39.7147 300.004 42.5366C290.092 45.0053 287.386 45.0793 286.144 47.6669C285.421 49.1721 286.089 49.6622 286.54 57.5332C286.867 63.2574 286.563 63.8708 287.332 65.0323C289.051 67.6309 292.118 66.9015 300.004 68.1891C310.178 69.8531 315.786 72.8207 318.4 70.1228C319.008 69.4949 319.886 68.1137 321.729 67.5025Z" fill="url(#paint13_linear_54_190)"/>
<path d="M321.686 67.4947C321.078 67.7035 320.511 68.0203 320.011 68.4235C319.512 68.8273 319.087 69.3124 318.673 69.809C318.267 70.3194 317.712 70.7255 317.098 70.9575L316.626 71.1054C316.468 71.1496 316.303 71.1569 316.141 71.1873C315.817 71.2555 315.49 71.2468 315.162 71.2598C313.851 71.262 312.566 71.0177 311.295 70.7711C310.022 70.5174 308.761 70.2295 307.498 69.954C304.972 69.4081 302.449 68.8723 299.901 68.4894C298.626 68.3067 297.352 68.124 296.072 67.9783L292.213 67.5592C291.566 67.4802 290.915 67.3939 290.261 67.2467C289.612 67.1075 288.944 66.9031 288.337 66.5326C287.724 66.1686 287.23 65.6321 286.856 65.0397C286.667 64.7374 286.525 64.3734 286.457 64.0232C286.388 63.673 286.361 63.3359 286.34 63.0052C286.253 60.3958 286.185 57.8379 285.995 55.2582C285.908 53.9713 285.789 52.6887 285.661 51.4046C285.599 50.7608 285.525 50.1213 285.487 49.4572C285.474 49.1251 285.463 48.7814 285.527 48.4262C285.588 48.0716 285.718 47.7367 285.876 47.435C286.177 46.8238 286.646 46.2663 287.215 45.8835C287.781 45.4963 288.402 45.2425 289.019 45.0163C290.264 44.5936 291.528 44.3021 292.789 44.0056C297.845 42.8985 302.868 41.6869 307.857 40.3086C309.107 39.9737 310.361 39.6503 311.628 39.3704C312.894 39.0956 314.183 38.8346 315.523 38.918C316.187 38.9811 316.872 39.1522 317.451 39.5517C318.011 39.9621 318.459 40.5167 318.739 41.1337C319.325 42.3467 319.438 43.7199 320.151 44.6574C320.488 45.1243 321.025 45.4144 321.583 45.5304C322.148 45.642 322.731 45.5093 323.352 45.3288C323.664 45.2447 323.992 45.1468 324.364 45.12C324.731 45.0888 325.155 45.1736 325.484 45.3926C325.81 45.6152 326.079 45.9502 326.187 46.312C326.315 46.668 326.342 47.021 326.358 47.3633C326.355 48.7205 326.108 49.9843 325.954 51.2669C325.789 52.5451 325.634 53.8212 325.559 55.1052C325.381 57.674 325.562 60.2516 325.759 62.8327C325.797 63.4794 325.84 64.1269 325.83 64.778C325.799 65.4182 325.769 66.1157 325.366 66.6703C325.267 66.8074 325.155 66.9313 325.011 67.022C324.883 67.1322 324.725 67.1982 324.567 67.2511C324.24 67.3439 323.905 67.3127 323.585 67.2902C322.942 67.2293 322.298 67.2917 321.686 67.4947ZM321.664 67.4251C322.278 67.2119 322.943 67.1409 323.591 67.1945C323.913 67.2141 324.237 67.2373 324.536 67.1481C324.682 67.0966 324.828 67.0343 324.944 66.9299C325.078 66.8465 325.178 66.7283 325.269 66.6007C325.637 66.0859 325.666 65.4059 325.687 64.7765C325.695 64.1341 325.632 63.4903 325.571 62.8479C325.287 60.2827 325.018 57.69 325.105 55.0857C325.139 53.7849 325.234 52.4849 325.39 51.1973C325.527 49.9132 325.749 48.6176 325.731 47.3836C325.716 46.7673 325.548 46.2141 325.133 45.9378C324.717 45.642 324.142 45.7638 323.518 45.94C322.905 46.1126 322.186 46.2844 321.467 46.1365C320.768 45.99 320.096 45.6101 319.673 45.0207C319.241 44.445 319.04 43.7787 318.863 43.1559C318.686 42.528 318.531 41.9124 318.28 41.3476C318.039 40.7785 317.658 40.2927 317.186 39.9222C316.698 39.5676 316.1 39.3958 315.484 39.3204C314.236 39.2058 312.949 39.4226 311.689 39.6619C310.426 39.9164 309.173 40.2325 307.92 40.5515L300.41 42.5084L292.882 44.3913C291.632 44.7118 290.377 45.0294 289.181 45.4644C288.591 45.6942 288.012 45.9494 287.514 46.3047C287.016 46.6578 286.635 47.1312 286.374 47.6837C286.085 48.2304 286.024 48.7865 286.082 49.4224C286.132 50.0495 286.219 50.6934 286.294 51.335C286.451 52.6212 286.571 53.9147 286.675 55.2075C286.89 57.7857 286.985 60.3995 287.095 62.9581C287.139 63.5998 287.208 64.1675 287.515 64.6438C287.832 65.1412 288.231 65.5813 288.733 65.8807C289.23 66.1903 289.817 66.3781 290.427 66.5101C291.035 66.6507 291.669 66.737 292.305 66.8182C294.857 67.1133 297.457 67.3468 300.012 67.8079C302.573 68.2553 305.105 68.8317 307.609 69.49C308.862 69.8119 310.11 70.1498 311.366 70.4441C312.62 70.7334 313.885 71.0169 315.164 71.059C315.483 71.0568 315.805 71.0764 316.118 71.0206C316.276 70.9981 316.437 70.9894 316.59 70.9502L317.046 70.8139C317.64 70.5964 318.168 70.2259 318.578 69.7271C318.998 69.2377 319.436 68.749 319.95 68.3459C320.462 67.9428 321.044 67.6288 321.664 67.4251Z" fill="#541D5D"/>
<path fill-rule="evenodd" clip-rule="evenodd" d="M189.318 118.522C186.033 111.834 185.695 106.017 185.453 101.379C185.26 97.6925 184.956 90.5342 187.978 82.118C190.352 75.5049 192.897 68.4177 200.303 64.3546C207.115 60.617 215.462 60.8512 221.702 63.9022C226.057 66.0323 228.425 69.1362 232.578 74.5363C236.011 79.0011 238.428 83.5014 241.281 88.8116C242.995 92.0032 243.278 95.8865 246.596 98.4625C247.51 99.1731 249.009 100.104 250.757 100.852C252.913 101.772 254.135 101.851 256.799 102.543C260.529 103.511 262.393 103.995 263.271 104.746C267.596 108.446 263.978 126.295 251.912 134.473C247.161 137.693 242.783 138.283 235.236 139.306C217.848 141.665 202.994 137.707 203.054 136.169C203.077 135.579 205.299 135.302 205.271 134.489C205.241 133.612 202.634 133.074 201.781 132.855C195.398 131.209 191.333 122.627 189.318 118.522Z" fill="url(#paint14_radial_54_190)"/>
<path fill-rule="evenodd" clip-rule="evenodd" d="M340.812 113.717C339.235 116.298 345.961 124.824 354.587 129.427C361.419 133.071 367.79 133.373 372.23 133.536C378.248 133.755 387.511 134.079 395.914 128.702C408.493 120.653 413.442 103.465 409.932 100.418C408.259 98.9659 405.974 101.858 396.156 102.6C392.607 102.869 389.069 103.258 385.522 103.567C382.134 103.863 379.855 104.049 378.514 105.742C377.187 107.417 378.27 108.683 377.305 110.334C376.045 112.491 372.858 112.622 359.904 112.751C356.359 112.787 352.816 112.966 349.271 112.992C342.553 113.042 341.338 112.857 340.812 113.717Z" fill="url(#paint15_linear_54_190)"/>
<path d="M186.857 102.696C186.41 82.1072 198.077 65.1551 212.918 64.8332C227.758 64.5105 240.152 80.9392 240.599 101.527C241.047 122.116 229.379 139.068 214.539 139.39C199.699 139.713 187.305 123.284 186.857 102.696Z" fill="#030404"/>
<path d="M228.814 102.165C228.814 116.522 221.518 128.161 212.518 128.161C203.518 128.161 196.222 116.522 196.222 102.165C196.222 87.8066 203.518 76.1683 212.518 76.1683C221.518 76.1683 228.814 87.8066 228.814 102.165Z" fill="#928989"/>
<path fill-rule="evenodd" clip-rule="evenodd" d="M228.853 102.147C228.853 114.512 222.274 124.537 214.158 124.537C206.042 124.537 199.463 114.512 199.463 102.147C199.463 89.7815 206.042 79.7571 214.158 79.7571C222.274 79.7571 228.853 89.7815 228.853 102.147Z" fill="url(#paint16_radial_54_190)"/>
<path fill-rule="evenodd" clip-rule="evenodd" d="M49.535 83.3597C50.7559 85.2433 50.8226 87.3677 49.6843 88.1043C48.5467 88.8416 46.6355 87.9121 45.4146 86.0285C44.1943 84.1456 44.1276 82.0205 45.2652 81.2832C46.4035 80.5465 48.3147 81.4753 49.535 83.3597Z" fill="url(#paint17_linear_54_190)"/>
<path fill-rule="evenodd" clip-rule="evenodd" d="M40.0549 96.0658C40.0549 98.035 41.8393 99.6308 44.0405 99.6308C46.2417 99.6308 48.026 98.035 48.026 96.0658C48.026 94.0973 46.2417 92.5015 44.0405 92.5015C41.8393 92.5015 40.0549 94.0973 40.0549 96.0658Z" fill="url(#paint18_linear_54_190)"/>
<path fill-rule="evenodd" clip-rule="evenodd" d="M47.5474 104.931C46.7273 106.949 47.1123 109.011 48.408 109.538C49.7043 110.065 51.4198 108.857 52.2405 106.84C53.0606 104.823 52.6756 102.761 51.3799 102.234C50.0835 101.707 48.3681 102.914 47.5474 104.931Z" fill="url(#paint19_linear_54_190)"/>
<path fill-rule="evenodd" clip-rule="evenodd" d="M217.68 101.084C217.317 103.106 214.587 104.307 211.581 103.769C208.576 103.229 206.433 101.152 206.797 99.1297C207.16 97.1076 209.89 95.9062 212.896 96.4457C215.9 96.9844 218.043 99.0616 217.68 101.084Z" fill="url(#paint20_linear_54_190)"/>
<path fill-rule="evenodd" clip-rule="evenodd" d="M214.693 111.422C212.4 113.988 211.74 117.139 213.217 118.459C214.695 119.78 217.752 118.771 220.045 116.205C222.338 113.639 222.998 110.488 221.52 109.168C220.043 107.848 216.986 108.857 214.693 111.422Z" fill="url(#paint21_linear_54_190)"/>
<path fill-rule="evenodd" clip-rule="evenodd" d="M217.46 91.2968C215.342 89.1789 214.486 86.6007 215.548 85.5385C216.61 84.4763 219.188 85.3319 221.307 87.4504C223.425 89.5683 224.28 92.1465 223.218 93.2087C222.157 94.2709 219.578 93.4146 217.46 91.2968Z" fill="url(#paint22_linear_54_190)"/>
<path fill-rule="evenodd" clip-rule="evenodd" d="M224.139 98.8223C223.533 99.7431 222.006 99.8083 220.727 98.9673C219.448 98.127 218.901 96.6994 219.506 95.7778C220.111 94.8578 221.638 94.7932 222.918 95.6335C224.197 96.4739 224.743 97.9022 224.139 98.8223Z" fill="url(#paint23_linear_54_190)"/>
<path fill-rule="evenodd" clip-rule="evenodd" d="M222.797 103.606C223.25 104.391 222.492 105.677 221.104 106.479C219.715 107.28 218.223 107.294 217.77 106.508C217.317 105.724 218.074 104.438 219.463 103.636C220.851 102.835 222.343 102.821 222.797 103.606Z" fill="url(#paint24_linear_54_190)"/>
<path fill-rule="evenodd" clip-rule="evenodd" d="M302.096 61.194C302.451 60.8786 302.878 60.2884 302.679 54.9297C302.525 50.776 302.236 50.2372 301.854 49.8349C300.863 48.7879 299.34 48.8147 296.296 48.8684C293.036 48.9249 291.406 48.9532 290.495 50.0763C289.986 50.7042 290.062 51.2052 290.253 55.8766C290.414 59.7497 290.395 60.2159 290.893 60.7416C291.641 61.529 292.443 61.2832 297.021 61.4354C300.87 61.563 301.441 61.774 302.096 61.194Z" fill="url(#paint25_linear_54_190)"/>
<path fill-rule="evenodd" clip-rule="evenodd" d="M430.017 59.81C430.371 59.4946 430.798 58.9051 430.6 53.5464C430.445 49.3926 430.157 48.8532 429.775 48.4508C428.784 47.4039 427.261 47.4307 424.217 47.4843C420.957 47.5409 419.327 47.5699 418.416 48.6923C417.907 49.3201 417.982 49.8219 418.175 54.4926C418.334 58.3664 418.316 58.8326 418.814 59.3576C419.562 60.145 420.363 59.8999 424.942 60.0514C428.79 60.179 429.362 60.3907 430.017 59.81Z" fill="url(#paint26_linear_54_190)"/>
<path d="M323.859 61.194C324.215 60.8786 324.642 60.2884 324.443 54.9297C324.289 50.776 324 50.2372 323.618 49.8349C322.627 48.7879 321.105 48.8147 318.059 48.8684C314.8 48.9249 313.17 48.9532 312.259 50.0763C311.75 50.7042 311.826 51.2052 312.017 55.8766C312.177 59.7497 312.159 60.2159 312.657 60.7416C313.405 61.529 314.207 61.2832 318.784 61.4354C322.634 61.563 323.205 61.774 323.859 61.194Z" fill="#31110B"/>
<path d="M407.191 59.8508C407.521 59.5376 407.917 58.951 407.733 53.6249C407.59 49.4965 407.32 48.9614 406.965 48.5605C406.043 47.5208 404.626 47.5469 401.792 47.5998C398.759 47.6564 397.242 47.6846 396.395 48.8012C395.92 49.4247 395.99 49.9236 396.169 54.566C396.318 58.4159 396.301 58.8785 396.765 59.4013C397.461 60.1836 398.206 59.94 402.467 60.0908C406.049 60.2177 406.581 60.4279 407.191 59.8508Z" fill="#31110B"/>
<path fill-rule="evenodd" clip-rule="evenodd" d="M55.799 93.5875C55.2537 94.219 53.8769 94.2632 52.7234 93.6868C51.5698 93.1111 51.0768 92.1323 51.622 91.5008C52.168 90.8693 53.5448 90.8251 54.6976 91.4015C55.8512 91.9779 56.3442 92.9567 55.799 93.5875Z" fill="url(#paint27_linear_54_190)"/>
<path fill-rule="evenodd" clip-rule="evenodd" d="M54.5455 96.9408C54.9544 97.4795 54.2707 98.3611 53.0193 98.9107C51.7678 99.4603 50.4214 99.469 50.0133 98.931C49.6043 98.393 50.288 97.5114 51.5395 96.9618C52.7909 96.4115 54.1373 96.4028 54.5455 96.9408Z" fill="url(#paint28_linear_54_190)"/>
<path fill-rule="evenodd" clip-rule="evenodd" d="M199.608 46.6746C200.825 49.7749 184.078 54.2092 180.843 68.4352C179.937 72.4171 179.963 77.7244 177.374 89.6933C176.297 94.6678 175.95 95.337 175.44 95.9772C170.774 101.838 159.425 96.587 139.871 94.3901C124.296 92.6406 112.067 91.2667 96.5525 93.3018C89.6545 94.2067 80.2819 96.0251 75.596 90.8766C75.0319 90.2574 74.3743 89.3591 72.0013 82.4429C68.8792 73.343 67.3182 68.7926 67.651 67.4593C69.766 58.9909 99.0604 62.4594 130.488 59.2417C169.264 55.2721 197.965 42.4875 199.608 46.6746Z" fill="url(#paint29_linear_54_190)"/>
<path d="M284.708 42.3409C286.672 42.2996 289.267 41.5071 294.375 39.9243C301.394 37.7499 304.904 36.6624 305.009 36.0577C305.824 31.3515 266.983 19.1187 227.672 13.823C213.403 11.9009 209.316 12.2591 209.304 12.3729C209.273 12.6738 237.305 13.5997 238.305 20.1069C239.014 24.7116 224.986 29.9036 225.738 31.7075C226.308 33.0735 233.934 29.1437 244.589 29.2902C254.925 29.433 263.886 33.3526 271.174 36.5406C276.639 38.9318 279.32 42.4562 284.708 42.3409Z" fill="#892990"/>
<path d="M285.72 68.3718C288.723 67.3278 289.883 68.3726 300.221 70.3055C310.677 72.2595 312.835 71.8158 313.755 73.6886C315.671 77.59 309.083 84.4641 304.571 89.1565C299.31 94.627 294.754 99.3658 288.64 99.1838C287.01 99.1352 284.325 98.0644 278.953 95.9233C273.609 93.7932 270.923 92.6947 270.252 91.0895C269.079 88.2807 271.589 85.0854 276.053 78.5224C280.085 72.5945 282.102 69.6298 285.72 68.3718Z" fill="#140133"/>
<path d="M403.276 73.3344C404.938 70.8323 407.596 70.6648 415.196 68.8957C425.661 66.4589 429.786 64.6434 430.18 65.512C430.458 66.1239 428.578 67.3688 420.513 73.7288C414.359 78.583 413.713 79.2297 413.263 80.4963C411.339 85.9095 417.57 89.7493 416.035 93.9726C413.575 100.739 394.397 99.6439 394.412 99.8302C394.418 99.9056 397.579 100.648 399.914 98.8456C400.948 98.0473 402.771 96.0158 402.629 82.4293C402.564 76.1439 402.158 75.0187 403.276 73.3344Z" fill="#140133"/>
<path d="M248.432 27.5583C248.459 26.5911 252.225 26.5055 260.501 24.234C266.149 22.6846 266.339 22.1908 268.647 22.1183C271.257 22.0378 272.731 22.615 279.811 25.141C289.204 28.4928 290.052 28.7045 290.069 29.3716C290.127 31.6018 280.802 35.0646 271.664 34.2068C269.627 34.0162 270.462 33.8791 257.484 30.5809C250.993 28.9308 248.411 28.3623 248.432 27.5583Z" fill="#161010"/>
<path d="M286.258 13.3357C284.154 10.0854 275.713 14.2232 272.31 10.2304C270.469 8.06903 270.237 4.22922 271.868 2.46738C274.052 0.107374 278.922 2.16648 286.14 3.62526C287.45 3.8899 293.78 4.28505 306.441 5.07534C322.198 6.05922 336.025 5.65102 358.161 5.07534C371.572 4.7266 370.064 4.54171 384.745 4.10886C419.359 3.08728 440.415 2.53988 441.002 6.12157C441.335 8.14516 435.017 10.7865 432.543 11.6804C428.651 13.087 424.791 13.4336 409.101 12.4055C398.851 11.7334 398.235 12.0524 397.256 12.5875C390.337 16.3671 392.953 27.8865 385.713 32.6268C384.297 33.5541 382.977 33.9058 381.981 34.1719C377.893 35.2623 374.561 34.3147 370.245 33.1104C358.431 29.8137 355.343 29.093 355.448 28.3563C355.539 27.7241 357.75 27.6726 362.653 26.3458C363.621 26.0833 364.732 25.673 366.082 24.9726C367.936 24.0105 367.392 23.9467 374.112 19.0925C378.124 16.1953 378.754 15.9031 378.693 15.3535C378.525 13.8345 373.358 12.8876 353.702 12.2032C340.472 11.7428 330.201 11.7319 318.525 14.2594C312.11 15.6479 308.613 17.0791 306.145 20.1387C302.638 24.4868 303.271 29.5186 300.345 30.2893C298.163 30.8642 297.32 28.1707 292.128 26.4227C287.542 24.8783 285.529 26.0804 284.394 24.489C282.318 21.5751 288.139 16.2424 286.258 13.3357Z" fill="#140133"/>
<path d="M22.5838 70.098C19.5342 83.401 24.9873 90.7615 20.3992 94.908C17.3403 97.6719 12.1012 96.9468 11.5965 96.8707C10.7105 96.7366 7.68422 96.237 5.18284 93.7828C2.70539 91.3524 1.05883 87.3162 1.79909 83.6322C3.02875 77.5129 9.75493 77.7834 17.2663 67.6814C18.3046 66.2857 18.6751 65.6092 21.32 61.9696C26.1277 55.3558 27.6605 53.7962 29.8341 52.697C32.0789 51.5616 34.0306 51.4094 36.1173 51.247C44.2551 50.6133 51.8006 53.9775 51.5853 55.1136C51.2793 56.7297 35.8092 51.0055 27.601 58.8019C24.4971 61.7491 23.6416 65.4809 22.5838 70.098Z" fill="#140133"/>
<path d="M137.822 41.4235C109.911 44.6042 110.619 44.6898 103.504 45.2901C101.43 45.4656 54.2298 49.3772 53.7179 45.7737C53.4743 44.0561 69.1054 43.4826 91.4199 33.6902C98.2345 30.6995 100.219 29.2436 104.467 27.1112C106.657 26.0114 108.532 25.1631 111.639 23.8616C129.137 16.5293 137.886 12.8628 142.161 11.8724C148.931 10.3049 158.239 10.3346 176.853 10.3955C182.047 10.4122 185.992 10.6014 189.945 10.9233C194.206 11.2713 197.385 11.7042 199.209 11.9391C199.209 11.9391 203.725 12.4416 212.252 13.2623C228.697 14.8451 286.182 11.9398 286.319 13.366C286.38 14.012 274.813 16.9549 260.122 16.5228C249.943 16.2241 247.956 14.5898 229.648 11.8724C207.733 8.61988 201.046 9.54648 195.379 11.4606C191.581 12.7424 182.353 15.8123 180.716 22.4768C180.716 22.4768 179.599 27.0242 182.292 35.6232C182.291 35.6232 178.849 36.4106 178.685 36.4439C173.017 37.5844 166.085 38.2036 137.822 41.4235Z" fill="#02001D"/>
<path d="M231.453 133.494C231.259 132.835 231.83 132.195 232.457 131.397C238.125 124.186 240.346 114.322 241.399 109.646C242.414 105.137 242.401 102.302 243.937 101.912C245.539 101.505 246.348 104.386 249.616 106.02C255.251 108.839 260.693 104.202 263.483 106.774C265.192 108.348 264.636 111.457 264.117 114.358C263.671 116.855 262.027 126.05 253.725 131.518C244.716 137.453 232.226 136.125 231.453 133.494Z" fill="#3F4040"/>
<path fill-rule="evenodd" clip-rule="evenodd" d="M153.382 33.616C154.731 32.7786 153.57 33.3927 169.333 21.6529C178.37 14.9216 180.16 13.6702 179.846 12.5899C178.872 9.24385 158.784 11.1333 141.056 15.4901C109.272 23.2994 81.6769 39.8702 83.053 43.404C83.5591 44.7033 87.5889 43.2264 103.717 41.2289C136.277 37.1955 142.406 40.4234 153.382 33.616Z" fill="url(#paint30_linear_54_190)"/>
<path fill-rule="evenodd" clip-rule="evenodd" d="M182.499 30.6371C182.415 31.5136 182.823 31.8421 181.945 31.9109C176.88 32.3133 172.866 32.6316 169.497 32.8999C166.87 33.108 164.23 33.3161 161.608 33.0688C167.283 28.0356 172.958 23.0024 178.634 17.9685C181.537 15.3939 184.64 12.7178 188.454 12.0021C191.621 11.4083 194.861 12.2523 197.973 13.0904C193.346 14.6021 188.812 16.3973 184.404 18.4637C183.667 18.8088 182.926 19.1684 182.312 19.702C180.83 20.9941 180.337 23.1416 180.569 25.0934C180.802 27.0459 181.656 28.8614 182.499 30.6371Z" fill="url(#paint31_linear_54_190)"/>
<path fill-rule="evenodd" clip-rule="evenodd" d="M186.802 33.2241C183.812 30.5981 182.281 25.1762 184.265 22.3486C189.137 15.4035 213.241 26.9388 216.528 28.5114C218.097 29.2618 219.244 30.9461 220.153 31.4116C222.384 32.5542 224.401 32.2011 206.741 33.5867C191.823 34.7576 189.32 35.4362 186.802 33.2241Z" fill="url(#paint32_linear_54_190)"/>
<path d="M76.8738 41.1312C76.5823 43.8755 68.8802 47.8349 63.8231 44.0314C60.3124 41.3908 59.2379 35.8812 61.1006 34.1193C64.2414 31.1489 77.274 37.3682 76.8738 41.1312Z" fill="#140133"/>
<path d="M242.297 14.6361C242.367 14.0633 249.11 15.1291 261.151 14.987C269.993 14.8826 279.573 14.151 279.757 15.3611C279.8 15.641 279.297 15.7439 278.79 16.5698C277.689 18.3649 278.76 20.0093 278.307 20.92C277.178 23.1864 266.947 20.1884 258.973 18.2613C248.204 15.6584 242.232 15.1726 242.297 14.6361Z" fill="#161010"/>
<path d="M387.621 54.8854C383.744 50.7222 375.225 60.184 362.487 57.3027C354.747 55.5517 350.137 51.4697 342.669 53.4353C339.857 54.1756 338.656 57.096 335.902 56.8191C332.284 56.4551 330.927 52.057 329.618 52.4688C327.008 53.291 330.42 71.4315 331.552 71.3198C332.183 71.2575 331.2 65.616 333.969 64.0694C335.751 63.074 338.165 64.292 338.977 64.6807C347.215 68.6241 377.621 78.9161 395.839 71.8034C399.215 70.4853 401.683 68.7619 401.468 67.5953C401.094 65.5659 392.971 67.2335 389.555 62.6194C387.302 59.5749 389.561 56.9677 387.621 54.8854Z" fill="#AC79B5"/>
<path fill-rule="evenodd" clip-rule="evenodd" d="M338.846 69.1504C338.62 68.8032 386.605 69.1504 386.605 69.1504C386.719 74.7427 386.834 80.3356 386.949 85.9278C370.917 86.0765 354.886 86.2251 338.854 86.373C338.852 80.6321 338.849 74.8913 338.846 69.1504Z" fill="url(#paint33_linear_54_190)"/>
<path d="M338.792 69.1408L338.985 86.3633L338.799 86.1784L362.846 85.8261L386.893 85.5563L386.534 85.9254L386.224 69.148L386.548 69.4685L362.666 69.2357L350.724 69.1161L344.754 69.0654L341.769 69.0588C340.778 69.077 339.77 69.0306 338.792 69.1408ZM338.792 69.1408C339.768 69.0088 340.777 69.0335 341.768 68.9936L344.753 68.9356L350.724 68.8565C354.705 68.8051 358.687 68.7942 362.667 68.7855C370.63 68.7601 378.591 68.7623 386.554 68.8138L386.871 68.8159L386.878 69.1342L387.257 85.9109L387.265 86.277L386.899 86.2792L362.851 86.4554L338.802 86.5489L338.613 86.5497L338.615 86.3633L338.792 69.1408Z" fill="#541D5D"/>
<path fill-rule="evenodd" clip-rule="evenodd" d="M280.326 45.1995C284.689 50.2777 286.441 58.5467 284.194 64.5341C282.534 68.9547 279.769 69.2657 274.043 77.5848C269.266 84.5241 269.306 87.0458 267.275 87.2517C263.518 87.6331 261.499 79.1799 250.842 63.084C244.25 53.1293 241.257 50.6721 238.758 49.0661C232.814 45.2459 226.467 44.1772 226.673 42.783C226.85 41.5961 231.599 41.3858 232.957 41.3329C261.368 40.2214 275.668 39.7755 280.326 45.1995Z" fill="url(#paint34_linear_54_190)"/>
<path d="M317.776 40.102L359.891 39.8055L370.419 39.7264L380.947 39.7126C387.967 39.7714 394.986 39.8171 402.005 40.0172V40.0897C394.987 40.3043 387.967 40.3645 380.948 40.4377L370.42 40.4442L359.891 40.3862L317.776 40.1745V40.102Z" fill="#541D5D"/>
<defs>
<linearGradient id="paint0_linear_54_190" x1="221.608" y1="120.054" x2="221.608" y2="-0.000171739" gradientUnits="userSpaceOnUse">
<stop stop-color="#0F1037"/>
<stop offset="1" stop-color="#00FFF9" stop-opacity="0.6"/>
</linearGradient>
<linearGradient id="paint1_linear_54_190" x1="178.857" y1="79.1805" x2="291.013" y2="79.1805" gradientUnits="userSpaceOnUse">
<stop stop-color="#3B0C34"/>
<stop offset="0.838542" stop-color="#1E8697"/>
<stop offset="1" stop-color="#00FFF9"/>
</linearGradient>
<linearGradient id="paint2_linear_54_190" x1="71.6586" y1="107.132" x2="178.971" y2="107.132" gradientUnits="userSpaceOnUse">
<stop stop-color="#02001D"/>
<stop offset="1" stop-color="#00FFF9" stop-opacity="0.6"/>
</linearGradient>
<linearGradient id="paint3_linear_54_190" x1="19.912" y1="71.2067" x2="65.6288" y2="71.2067" gradientUnits="userSpaceOnUse">
<stop stop-color="#29134F"/>
<stop offset="1" stop-color="#00FFF9"/>
</linearGradient>
<linearGradient id="paint4_linear_54_190" x1="330.828" y1="120.583" x2="330.828" y2="79.9992" gradientUnits="userSpaceOnUse">
<stop stop-color="#221E1F"/>
<stop offset="1" stop-color="#181312"/>
</linearGradient>
<radialGradient id="paint5_radial_54_190" cx="0" cy="0" r="1" gradientUnits="userSpaceOnUse" gradientTransform="translate(51.1195 95.0384) scale(30.5926 67.3037)">
<stop stop-color="#050707"/>
<stop offset="0.9" stop-color="#0F0E0E"/>
<stop offset="1" stop-color="#221E1F"/>
</radialGradient>
<radialGradient id="paint6_radial_54_190" cx="0" cy="0" r="1" gradientUnits="userSpaceOnUse" gradientTransform="translate(46.3723 94.9878) scale(16.7734)">
<stop stop-color="#666767"/>
<stop offset="1" stop-color="#B4B3B4"/>
</radialGradient>
<linearGradient id="paint7_linear_54_190" x1="326.342" y1="35.494" x2="367.67" y2="35.494" gradientUnits="userSpaceOnUse">
<stop stop-color="#8B51A0"/>
<stop offset="1" stop-color="#B9529F"/>
</linearGradient>
<radialGradient id="paint8_radial_54_190" cx="0" cy="0" r="1" gradientUnits="userSpaceOnUse" gradientTransform="translate(343.406 94.1084) scale(4.30725 6.46086)">
<stop stop-color="#080F15"/>
<stop offset="0.5" stop-color="#091017"/>
<stop offset="0.6" stop-color="#2F3844"/>
<stop offset="0.8" stop-color="#8C94A2"/>
<stop offset="0.9" stop-color="#BAC1D1"/>
<stop offset="1" stop-color="#E8EEF8"/>
</radialGradient>
<radialGradient id="paint9_radial_54_190" cx="0" cy="0" r="1" gradientUnits="userSpaceOnUse" gradientTransform="translate(335.484 94.1084) scale(4.37562 6.56345)">
<stop stop-color="#080F15"/>
<stop offset="0.5" stop-color="#091017"/>
<stop offset="0.6" stop-color="#2F3844"/>
<stop offset="0.8" stop-color="#8C94A2"/>
<stop offset="0.9" stop-color="#BAC1D1"/>
<stop offset="1" stop-color="#E8EEF8"/>
</radialGradient>
<radialGradient id="paint10_radial_54_190" cx="0" cy="0" r="1" gradientUnits="userSpaceOnUse" gradientTransform="translate(389.944 92.549) scale(4.07028 6.1054)">
<stop stop-color="#080F15"/>
<stop offset="0.5" stop-color="#091017"/>
<stop offset="0.6" stop-color="#2F3844"/>
<stop offset="0.8" stop-color="#8C94A2"/>
<stop offset="0.9" stop-color="#BAC1D1"/>
<stop offset="1" stop-color="#E8EEF8"/>
</radialGradient>
<radialGradient id="paint11_radial_54_190" cx="0" cy="0" r="1" gradientUnits="userSpaceOnUse" gradientTransform="translate(396.874 92.5305) scale(3.78047 5.6707)">
<stop stop-color="#080F15"/>
<stop offset="0.5" stop-color="#091017"/>
<stop offset="0.6" stop-color="#2F3844"/>
<stop offset="0.8" stop-color="#8C94A2"/>
<stop offset="0.9" stop-color="#BAC1D1"/>
<stop offset="1" stop-color="#E8EEF8"/>
</radialGradient>
<linearGradient id="paint12_linear_54_190" x1="394.412" y1="53.8632" x2="431.286" y2="53.8632" gradientUnits="userSpaceOnUse">
<stop stop-color="#ED1879"/>
<stop offset="1" stop-color="#ED1074"/>
</linearGradient>
<linearGradient id="paint13_linear_54_190" x1="285.825" y1="55.1696" x2="326.104" y2="55.1696" gradientUnits="userSpaceOnUse">
<stop stop-color="#ED1879"/>
<stop offset="1" stop-color="#ED1074"/>
</linearGradient>
<radialGradient id="paint14_radial_54_190" cx="0" cy="0" r="1" gradientUnits="userSpaceOnUse" gradientTransform="translate(225.184 100.81) scale(39.5373 79.0748)">
<stop stop-color="#0A0A0B"/>
<stop offset="0.7" stop-color="#1C1D1D"/>
<stop offset="1" stop-color="#333333"/>
</radialGradient>
<linearGradient id="paint15_linear_54_190" x1="340.582" y1="116.825" x2="411.032" y2="116.825" gradientUnits="userSpaceOnUse">
<stop stop-color="#030404"/>
<stop offset="1" stop-color="#221E1F"/>
</linearGradient>
<radialGradient id="paint16_radial_54_190" cx="0" cy="0" r="1" gradientUnits="userSpaceOnUse" gradientTransform="translate(214.158 102.147) scale(18.9371 37.8742)">
<stop stop-color="#666767"/>
<stop offset="0.9" stop-color="#F1F2F3"/>
<stop offset="1" stop-color="white"/>
</radialGradient>
<linearGradient id="paint17_linear_54_190" x1="47.4754" y1="88.3573" x2="47.4754" y2="81.0304" gradientUnits="userSpaceOnUse">
<stop stop-color="#030404"/>
<stop offset="0.5" stop-color="#313131"/>
<stop offset="1" stop-color="#191919"/>
</linearGradient>
<linearGradient id="paint18_linear_54_190" x1="44.0408" y1="99.6308" x2="44.0408" y2="92.5012" gradientUnits="userSpaceOnUse">
<stop stop-color="#030404"/>
<stop offset="0.5" stop-color="#313131"/>
<stop offset="1" stop-color="#191919"/>
</linearGradient>
<linearGradient id="paint19_linear_54_190" x1="49.8943" y1="109.662" x2="49.8943" y2="102.11" gradientUnits="userSpaceOnUse">
<stop stop-color="#030404"/>
<stop offset="0.5" stop-color="#313131"/>
<stop offset="1" stop-color="#191919"/>
</linearGradient>
<linearGradient id="paint20_linear_54_190" x1="206.757" y1="100.107" x2="217.72" y2="100.107" gradientUnits="userSpaceOnUse">
<stop stop-color="#030404"/>
<stop offset="0.5" stop-color="#313131"/>
<stop offset="1" stop-color="#191919"/>
</linearGradient>
<linearGradient id="paint21_linear_54_190" x1="212.429" y1="113.813" x2="222.309" y2="113.813" gradientUnits="userSpaceOnUse">
<stop stop-color="#030404"/>
<stop offset="0.5" stop-color="#313131"/>
<stop offset="1" stop-color="#191919"/>
</linearGradient>
<linearGradient id="paint22_linear_54_190" x1="215.092" y1="89.3732" x2="223.674" y2="89.3732" gradientUnits="userSpaceOnUse">
<stop stop-color="#030404"/>
<stop offset="0.5" stop-color="#313131"/>
<stop offset="1" stop-color="#191919"/>
</linearGradient>
<linearGradient id="paint23_linear_54_190" x1="219.259" y1="97.3004" x2="224.385" y2="97.3004" gradientUnits="userSpaceOnUse">
<stop stop-color="#030404"/>
<stop offset="0.5" stop-color="#313131"/>
<stop offset="1" stop-color="#191919"/>
</linearGradient>
<linearGradient id="paint24_linear_54_190" x1="217.638" y1="105.058" x2="222.928" y2="105.058" gradientUnits="userSpaceOnUse">
<stop stop-color="#030404"/>
<stop offset="0.5" stop-color="#313131"/>
<stop offset="1" stop-color="#191919"/>
</linearGradient>
<linearGradient id="paint25_linear_54_190" x1="296.418" y1="61.5797" x2="296.418" y2="48.8471" gradientUnits="userSpaceOnUse">
<stop stop-color="#B63225"/>
<stop offset="0.2" stop-color="#E36528"/>
<stop offset="0.25" stop-color="#EE7332"/>
<stop offset="0.5" stop-color="#EF4532"/>
<stop offset="0.7" stop-color="#E36528"/>
<stop offset="0.75" stop-color="#EE7332"/>
<stop offset="1" stop-color="#EF4532"/>
</linearGradient>
<linearGradient id="paint26_linear_54_190" x1="424.339" y1="60.1964" x2="424.339" y2="47.4638" gradientUnits="userSpaceOnUse">
<stop stop-color="#94301E"/>
<stop offset="0.7" stop-color="#D84027"/>
<stop offset="1" stop-color="#EF4532"/>
</linearGradient>
<linearGradient id="paint27_linear_54_190" x1="51.4002" y1="92.5442" x2="56.0212" y2="92.5442" gradientUnits="userSpaceOnUse">
<stop stop-color="#030404"/>
<stop offset="0.5" stop-color="#313131"/>
<stop offset="1" stop-color="#191919"/>
</linearGradient>
<linearGradient id="paint28_linear_54_190" x1="49.8951" y1="97.9362" x2="54.6641" y2="97.9362" gradientUnits="userSpaceOnUse">
<stop stop-color="#030404"/>
<stop offset="0.5" stop-color="#313131"/>
<stop offset="1" stop-color="#191919"/>
</linearGradient>
<linearGradient id="paint29_linear_54_190" x1="133.639" y1="98.6591" x2="133.639" y2="45.8431" gradientUnits="userSpaceOnUse">
<stop stop-color="#4F2B78"/>
<stop offset="0.3" stop-color="#1F0D41"/>
<stop offset="0.5" stop-color="#0C0D1B"/>
<stop offset="0.9" stop-color="#331F5B"/>
<stop offset="1" stop-color="#37205D"/>
</linearGradient>
<linearGradient id="paint30_linear_54_190" x1="124.754" y1="16.3804" x2="139.384" y2="41.7199" gradientUnits="userSpaceOnUse">
<stop stop-color="#030404"/>
<stop offset="0.2" stop-color="#093532"/>
<stop offset="0.4" stop-color="#2C3E42"/>
<stop offset="1" stop-color="#022724"/>
</linearGradient>
<linearGradient id="paint31_linear_54_190" x1="176.814" y1="17.9249" x2="184.219" y2="30.75" gradientUnits="userSpaceOnUse">
<stop stop-color="#030404"/>
<stop offset="0.2" stop-color="#093532"/>
<stop offset="0.4" stop-color="#2C3E42"/>
<stop offset="1" stop-color="#022724"/>
</linearGradient>
<linearGradient id="paint32_linear_54_190" x1="183.372" y1="27.4096" x2="221.593" y2="27.4096" gradientUnits="userSpaceOnUse">
<stop stop-color="#572B85"/>
<stop offset="0.984275" stop-color="#11D5E2"/>
<stop offset="0.984375" stop-color="#00FFF9"/>
</linearGradient>
<linearGradient id="paint33_linear_54_190" x1="338.845" y1="77.6849" x2="386.949" y2="77.6849" gradientUnits="userSpaceOnUse">
<stop stop-color="#ED1879"/>
<stop offset="1" stop-color="#ED1074"/>
</linearGradient>
<linearGradient id="paint34_linear_54_190" x1="226.669" y1="63.9483" x2="285.174" y2="63.9483" gradientUnits="userSpaceOnUse">
<stop stop-color="#550634"/>
<stop offset="0.5" stop-color="#5E164F"/>
<stop offset="0.9" stop-color="#3A1F61"/>
<stop offset="1" stop-color="#3A1F61"/>
</linearGradient>
</defs>
</svg>
