<svg width="371" height="621" viewBox="0 0 371 621" fill="none" xmlns="http://www.w3.org/2000/svg">
<path d="M92.0402 1.5215L87.9846 3.043L84.8866 1.97231C81.7885 0.957975 81.7885 0.957975 78.5215 2.19772C76.719 2.87395 73.9589 4.39545 72.3817 5.6352C70.8609 6.81859 68.4951 8.05834 67.1995 8.39645C65.0027 9.01632 62.1863 10.8759 60.3838 12.961C59.9895 13.4118 58.7503 15.7222 57.6238 18.0327C56.4972 20.3431 55.1453 22.9353 54.582 23.7806C53.9624 24.5695 52.4416 28.1197 51.0897 31.6135C48.7802 37.7559 48.6113 38.094 45.4569 40.4608C40.669 44.1237 39.0918 47.6739 40.1057 52.6328C40.7816 56.0703 40.0494 58.099 37.0077 61.2547C34.9799 63.4524 34.4729 63.5088 31.5438 61.9873C29.9103 61.142 28.3331 60.8602 25.5167 60.9166L21.6864 60.973L25.2914 61.7619C29.347 62.6635 34.6982 65.6502 36.9513 68.3551C39.9367 71.8489 40.7253 74.5538 40.4437 80.3581C40.2747 85.0916 39.9931 85.9933 37.9089 90.276C36.6134 92.8682 35.0362 95.4604 34.4166 96.0803C33.2337 97.0946 33.2337 97.0946 33.2337 95.4604L33.1774 93.8262L32.2198 95.6295C29.516 100.645 25.7984 102.73 18.3067 103.406C12.7302 103.857 11.2657 103.35 9.74485 100.307C7.32274 95.6295 8.50563 91.4031 13.5752 86.275C15.1524 84.6972 16.2226 83.4011 15.9973 83.4011C15.8283 83.4011 14.3638 84.3591 12.7866 85.4861C6.75946 89.9379 5.12595 95.7422 8.22399 101.885C10.3081 106.111 11.829 106.731 19.4333 106.9C22.8693 106.956 25.7984 107.013 25.9674 107.069C26.1363 107.069 27.7135 108.309 29.4597 109.83C32.7267 112.704 34.9235 113.437 39.8804 113.493C41.6266 113.493 41.6829 113.549 40.7253 114.282C39.6551 115.071 33.6843 114.958 31.2622 114.057C30.2483 113.719 30.3046 113.831 31.5438 115.184C35.1488 119.185 40.6127 120.65 44.443 118.677C46.3581 117.663 48.7239 114.451 49.2872 112.084C49.5125 111.239 50.8081 109.492 52.2163 108.14L54.751 105.66L54.3567 107.858C54.1877 109.098 53.3428 111.352 52.6106 112.817C51.8783 114.282 51.315 115.522 51.484 115.522C52.3289 115.522 55.8776 108.929 56.6662 105.942C57.1731 103.913 57.7927 101.828 58.0744 101.265C58.9193 99.7432 63.5382 97.6582 69.171 96.3621C72.8887 95.4604 75.1418 94.6151 77.057 93.2063C80.8873 90.4451 85.9568 87.9092 87.5903 87.9092C89.8998 87.9092 92.2655 89.4308 93.4484 91.7412C94.5187 93.7699 94.575 93.7699 94.6313 92.3047C94.6313 91.4594 93.8991 89.6562 92.9415 88.3037C91.308 85.8806 89.6744 84.8099 86.7454 84.3591C85.6188 84.19 85.6752 84.0773 87.196 84.021C89.5055 83.9646 94.913 86.6695 97.1661 89.0363C98.9686 90.9523 101.391 92.4174 102.743 92.4174C103.193 92.4174 104.601 91.5158 105.897 90.4451C107.136 89.3744 109.108 88.3601 110.234 88.1347C111.699 87.8529 113.501 86.5568 116.994 83.232L121.781 78.7239L124.542 79.062C128.09 79.5128 132.202 81.3161 134.399 83.4574C135.357 84.3591 137.384 85.6552 138.905 86.275L141.665 87.4021L139.3 87.1203C137.553 86.9513 135.92 86.1623 133.498 84.3027C127.921 80.1327 123.415 80.02 119.866 83.9646C118.74 85.2043 117.557 87.064 117.219 88.022L116.599 89.8252L117.839 88.6418C119.303 87.2894 124.711 85.0916 126.513 85.0916C127.133 85.0916 129.329 86.1623 131.301 87.4021C135.357 90.0506 137.722 90.5578 141.384 89.5998C144.594 88.8109 144.369 88.7545 148.988 90.107C152.875 91.2904 155.353 92.9246 154.677 93.9953C154.508 94.277 153.72 94.3897 152.931 94.2207C151.41 93.9389 151.072 94.5588 152.199 95.6858C153.438 96.9256 152.142 97.0383 150.509 95.8549C148.481 94.3897 147.636 94.3334 148.875 95.6295C149.72 96.5875 149.382 96.6438 142.623 96.6438C136.145 96.6438 134.906 96.8692 129.273 98.5598C122.232 100.701 119.81 101.941 118.514 104.251L117.557 105.829L113.727 98.1653L109.953 90.4451L110.234 93.5445C110.854 100.927 112.093 104.251 115.135 106.956C116.261 107.914 117.163 108.872 117.163 109.041C117.163 109.21 115.304 109.154 113.107 108.985L108.995 108.647L111.811 110.337C114.909 112.141 116.43 113.662 115.811 114.226C115.642 114.451 114.74 113.944 113.896 113.155C113.051 112.366 111.868 111.577 111.248 111.352C110.516 111.126 110.797 111.521 111.98 112.479C114.346 114.338 115.135 115.916 114.966 118.396C114.909 119.523 115.078 121.044 115.416 121.777C116.43 124.425 120.655 129.441 126.682 134.963C133.047 140.88 136.765 143.36 141.947 145.388L145.045 146.572L143.074 144.43C142.003 143.247 140.313 141.444 139.412 140.429L137.722 138.57L139.412 139.19C143.017 140.542 146.904 140.88 156.761 140.486C167.971 140.091 167.971 139.64 156.818 138.682C151.635 138.288 148.875 137.724 145.552 136.485C143.074 135.583 139.919 134.4 138.511 133.893C137.103 133.385 135.469 132.596 134.85 132.089C133.836 131.244 133.836 131.244 135.188 131.582C135.976 131.751 137.497 132.033 138.567 132.146L140.539 132.427L138.849 131.638C137.948 131.131 136.652 130.793 136.089 130.737C135.3 130.737 135.695 130.286 137.497 129.159C138.849 128.257 140.313 127.13 140.764 126.623C141.384 125.891 148.03 123.411 149.439 123.411C149.608 123.411 149.495 124.2 149.157 125.102C148.537 127.018 149.27 129.553 150.79 130.85C151.579 131.469 151.635 131.3 151.185 129.61C150.678 127.299 150.79 123.918 151.466 123.242C151.692 123.017 152.875 122.622 154.114 122.453C156.198 122.115 156.254 122.115 155.297 123.073C153.269 125.158 154.79 128.483 157.831 128.483C158.62 128.483 159.634 128.088 160.028 127.525C160.761 126.679 160.704 126.679 159.578 127.299C157.719 128.257 155.916 127.187 156.142 125.271C156.367 123.467 157.775 122.509 159.183 123.129C159.803 123.355 160.479 123.524 160.704 123.467C160.986 123.411 161.887 123.806 162.845 124.369C164.985 125.665 165.098 128.483 163.07 130.455C161.831 131.751 161.211 131.864 156.761 131.92C154.057 131.977 149.27 132.146 146.172 132.371L140.539 132.709L143.186 133.442C145.27 133.949 148.199 134.005 156.423 133.554C167.971 132.878 173.829 132.033 167.407 131.92L163.859 131.864L164.985 130.399C165.661 129.553 166.168 128.37 166.168 127.75C166.168 126.623 166.224 126.623 167.745 128.032C168.59 128.765 172.984 131.244 177.603 133.498C185.77 137.499 185.996 137.668 192.98 144.374C203.119 154.236 208.245 162.407 211.231 173.564C211.906 176.213 213.146 180.383 213.934 182.863C215.174 186.807 215.399 188.61 215.624 197.514C215.849 207.939 215.906 207.488 213.146 220.618C212.639 222.76 211.794 225.577 211.231 226.817C210.667 228.057 209.146 231.269 207.907 233.974C206.612 236.622 205.598 238.989 205.598 239.158C205.598 239.947 207.795 239.44 209.203 238.313L210.667 237.186V239.102C210.667 240.116 211.456 243.272 212.413 246.033C213.315 248.794 214.61 252.626 215.174 254.542C215.737 256.515 216.807 258.881 217.483 259.896C219.004 262.037 224.186 272.688 224.186 273.702C224.186 274.097 225.144 275.393 226.326 276.632C228.974 279.45 232.354 280.126 237.31 278.83C240.521 277.985 240.521 277.985 239.733 279.168C239.282 279.901 238.043 280.521 236.522 280.746C232.241 281.479 223.454 284.691 220.018 286.719C218.159 287.79 214.723 289.424 212.301 290.213C209.766 291.115 205.147 293.538 201.26 295.961C197.599 298.272 193.093 300.751 191.234 301.427C189.375 302.104 186.784 303.174 185.432 303.85C182.447 305.259 180.757 304.921 178.955 302.442C175.293 297.595 174.955 293.256 175.519 256.12L176.025 224L177.828 223.83C180.926 223.549 181.151 222.591 179.405 217.744C178.448 215.096 177.377 213.18 176.532 212.673C175.856 212.166 173.153 211.433 170.562 210.982C165.661 210.137 140.989 209.01 137.215 209.517C134.568 209.855 134.624 208.841 137.328 207.038C139.525 205.516 138.849 205.122 133.892 205.122C129.893 205.122 126.682 205.911 120.092 208.503C114.459 210.644 111.53 210.531 111.53 208.221C111.53 207.263 111.868 206.812 112.487 206.812C112.994 206.812 115.191 205.854 117.388 204.671L121.387 202.586L127.865 202.755C131.414 202.811 135.469 202.755 136.877 202.529C139.356 202.135 139.3 202.079 133.779 201.121C124.654 199.486 121.049 199.825 113.67 203.093L111.53 203.995V201.121V198.247L113.67 198.585C119.81 199.599 121.162 199.599 123.866 198.697C127.471 197.514 128.822 197.57 134.005 198.867C143.806 201.346 144.707 201.459 145.777 200.388C146.679 199.43 146.679 199.43 145.214 200.106C143.468 200.839 141.834 200.444 142.229 199.317C142.679 198.303 137.328 194.02 133.047 191.992C129.611 190.414 129.217 190.357 124.485 190.695L119.585 191.09L119.19 189.287C118.683 186.694 118.683 186.751 120.542 185.962C121.725 185.455 123.359 185.398 125.499 185.624C127.245 185.849 129.836 186.187 131.245 186.356C134.962 186.807 135.357 186.018 134.343 181.116C133.554 177.453 133.61 177.171 134.681 176.044C136.652 173.903 137.103 171.085 135.807 168.38L134.737 165.957L134.681 168.493C134.568 171.987 133.498 173.621 133.498 170.296C133.498 168.267 133.16 167.535 131.808 166.239C130.907 165.393 129.442 164.492 128.597 164.266C127.696 164.097 124.767 162.632 122.007 161.111C115.98 157.786 114.121 157.617 109.558 160.04C107.812 160.942 105.503 161.73 104.545 161.73C102.517 161.73 101.278 162.858 99.1939 166.464C98.349 167.929 98.2363 168.436 98.7996 167.986C99.5882 167.309 99.7009 167.647 99.7009 171.367C99.7009 174.691 99.9825 175.931 100.94 177.509C102.01 179.143 102.348 180.89 102.855 187.371C103.419 194.584 103.419 195.373 102.517 196.387C101.447 197.627 100.264 199.712 100.264 200.388C100.264 200.67 100.996 199.994 101.954 198.923C104.263 196.218 104.038 197.57 101.334 203.037L99.0812 207.657L101.616 205.122L104.207 202.642V204.671C104.207 206.136 103.925 206.812 103.25 206.981C102.348 207.207 102.348 207.263 103.137 207.319C103.644 207.319 104.207 207.77 104.432 208.221C105.108 210.024 104.151 210.644 100.377 211.039C76.55 213.18 61.1161 216.392 59.9332 219.491C59.3699 220.9 58.8066 220.449 58.0744 217.914C56.7788 213.518 56.7788 213.18 57.6801 214.701C59.5389 217.744 58.4687 214.532 55.7086 208.841C54.1314 205.516 52.7232 201.74 52.6106 200.444L52.3852 198.078L53.1175 200.05C54.4131 203.713 58.2434 212.391 58.4687 212.166C59.0883 211.546 53.6808 194.753 51.484 190.47C47.9353 183.651 47.6537 180.721 48.4423 162.294C48.7802 154.067 49.2872 142.514 49.5688 136.654C49.7941 130.737 49.9068 125.834 49.8505 125.778C49.1182 124.989 48.2733 131.582 47.879 140.598C47.6537 146.459 47.4284 151.362 47.372 151.474C47.3157 151.531 45.7948 150.066 43.8797 148.262C42.0209 146.403 39.5988 144.487 38.5848 144.036C34.3602 142.007 27.5445 143.698 23.9395 147.642C22.644 149.108 22.475 149.389 23.3763 149.051C30.6426 146.29 40.0494 148.206 42.9221 153.052C43.7107 154.405 44.2177 154.856 44.4993 154.348C44.7809 153.898 45.2879 154.179 45.9638 155.306C46.9214 156.715 47.0341 158.124 47.0341 168.831C47.0341 180.439 46.9777 180.721 46.0202 179.256C45.5132 178.467 45.0626 177.284 45.1189 176.664C45.2879 174.184 44.9499 173.452 42.7531 171.029C41.3449 169.507 39.4298 168.155 37.8526 167.591C35.4305 166.746 32.8957 164.717 33.4027 164.154C33.9096 163.646 40.0494 166.408 43.0348 168.493C46.3581 170.803 46.6961 170.803 45.3442 168.493C44.443 166.859 44.1613 161.449 45.0626 162.858C45.4569 163.477 45.6259 163.252 45.6259 161.9C45.6259 159.815 42.5278 154.63 40.2184 152.771C37.9089 150.967 34.9235 150.291 30.3609 150.573C27.5445 150.742 25.2914 151.305 23.3763 152.207L20.5599 153.559L25.3477 153.898C33.797 154.517 37.9089 156.659 41.1196 162.125C42.3025 164.097 42.1898 164.097 38.9791 161.956C37.9652 161.223 35.8248 160.265 34.1913 159.702C32.5577 159.195 30.7552 158.518 30.1356 158.18C29.516 157.842 28.3895 157.504 27.6572 157.448C26.9249 157.335 24.3338 156.264 21.9117 155.081L17.5181 152.883L19.208 155.025C20.1656 156.208 23.0383 158.631 25.6857 160.378C28.2768 162.125 30.4173 163.759 30.4173 164.041C30.4173 164.323 29.2907 163.703 27.9388 162.632C26.587 161.618 23.4889 159.533 21.0105 158.011C14.7017 154.123 13.0119 152.771 11.998 150.798C11.491 149.84 10.1392 147.924 8.95626 146.515C7.8297 145.107 6.59048 143.078 6.25251 142.007C5.74556 140.373 5.68923 140.711 5.97087 144.261C6.70313 154.292 8.95626 158.969 14.7581 162.632C17.5745 164.435 18.0251 164.323 16.0536 162.294L14.4764 160.603L16.6169 161.73C17.7434 162.294 20.1656 163.139 21.9117 163.477C24.6155 164.097 27.4319 165.506 26.8686 166.013C26.8123 166.126 25.6294 165.788 24.2775 165.337C22.9256 164.886 21.7427 164.604 21.5738 164.774C21.4611 164.886 22.813 165.901 24.6155 166.971C27.4319 168.662 28.0515 169.394 28.8964 171.705C30.023 174.804 30.0793 177.284 29.2344 180.89C28.3895 184.384 28.4458 198.416 29.347 201.008C30.9806 206.136 37.7963 213.856 42.6968 216.167C44.443 217.068 46.6961 218.308 47.5973 218.984C48.5549 219.66 51.0334 220.9 53.1175 221.633C55.258 222.422 57.1168 223.154 57.2858 223.323C58.2434 224.281 56.1592 226.141 50.5264 229.353C43.4854 233.41 38.1906 236.735 38.4722 237.017C39.0918 237.637 52.6106 231.551 57.3984 228.508C59.2573 227.381 60.1585 227.155 61.623 227.437C63.4819 227.775 63.5382 227.888 64.1578 231.213C65.5097 239.384 65.5097 239.609 64.1015 239.215C63.3692 238.989 62.2427 238.482 61.5667 238.031C60.6091 237.468 60.3838 237.411 60.5528 237.919C60.7218 238.313 60.1022 239.102 59.1446 239.609C58.2434 240.116 57.4548 240.905 57.4548 241.356C57.4548 241.863 56.8352 242.032 55.3706 241.863C53.2865 241.694 53.2865 241.694 56.6098 243.441C60.9471 245.751 61.4541 246.202 64.3268 250.71C65.6223 252.739 66.9742 254.655 67.3122 254.88C67.5938 255.106 71.9311 255.219 76.888 255.162C85.3935 254.993 86.1258 254.88 89.5618 253.359C92.8852 251.894 94.0117 251.725 101.954 251.33C109.896 250.992 111.023 250.823 114.346 249.358C117.782 247.836 118.458 247.78 124.654 247.836C130.794 247.949 131.583 248.062 134.23 249.471C137.948 251.499 140.144 254.655 140.651 258.487C140.933 261.305 140.933 261.417 139.469 261.812C136.934 262.432 135.244 261.586 133.329 258.769C131.019 255.388 128.766 253.19 126.119 251.837C123.753 250.654 123.359 250.541 123.359 251.218C123.359 251.443 124.147 252.119 125.105 252.683C126.006 253.246 128.147 255.5 129.836 257.754C133.948 263.39 135.807 264.179 140.426 262.319C141.215 261.981 141.384 262.206 141.384 263.39C141.384 264.517 140.989 265.024 139.806 265.475C138.962 265.813 137.046 266.658 135.469 267.391C131.752 269.138 125.555 270.884 121.5 271.392C118.514 271.73 118.064 271.617 116.712 270.321C115.36 269.081 112.037 267.109 111.304 267.109C111.192 267.109 113.389 269.476 116.205 272.35C121.612 277.759 123.584 280.915 124.26 285.085C124.654 287.508 124.598 287.565 123.302 287.17C122.57 287.001 120.768 286.663 119.247 286.438C116.825 286.156 116.318 286.325 113.501 288.185C110.009 290.495 107.361 293.82 106.348 297.088C105.446 300.131 106.517 303.231 109.615 306.555C112.149 309.26 112.656 309.598 119.979 312.923C122.288 313.937 127.414 316.924 131.414 319.404C142.848 326.786 147.636 328.814 163.633 333.435C174.505 336.591 197.036 344.029 212.639 349.608C216.694 351.074 223.397 353.891 227.566 355.92C237.817 360.935 241.253 362.457 240.859 361.837C240.69 361.555 238.888 360.372 236.86 359.188C234.888 358.005 233.311 356.99 233.367 356.878C233.48 356.821 234.438 356.99 235.508 357.272C236.578 357.61 245.14 359.245 254.603 360.991C277.698 365.162 285.696 366.965 296.173 370.29C304.904 373.107 310.988 374.741 312.621 374.741C313.86 374.741 305.749 370.346 301.468 368.712C295.835 366.57 289.132 364.711 281.472 363.133C271.84 361.161 238.831 355.751 233.762 355.3C230.438 354.962 228.242 354.342 223.623 352.257C220.356 350.792 213.934 348.2 209.259 346.565C204.64 344.875 200.697 343.466 200.528 343.353C200.416 343.241 200.922 342.564 201.711 341.888C203.514 340.31 208.02 334.957 211.512 330.223C214.441 326.166 221.82 311.796 226.439 300.92C228.073 297.032 230.495 292.467 231.734 290.777C234.945 286.325 245.647 274.435 248.52 272.068C258.265 264.066 273.304 257.754 286.879 255.895C301.074 253.923 315.156 256.12 328.111 262.375C332.505 264.46 334.138 265.7 340.504 271.786C351.769 282.549 353.121 284.747 357.12 298.384C358.585 303.512 358.867 305.147 358.585 307.964C357.796 315.628 353.515 332.477 352.332 332.477C352.22 332.477 348.615 330.223 344.334 327.462C336.73 322.616 333.35 320.643 332.561 320.643C332.336 320.643 335.152 322.616 338.87 325.039C348.558 331.407 359.711 341.212 365.513 348.538C370.414 354.68 377.229 366.289 377.905 369.67C380.271 380.658 383.144 398.466 383.426 403.481C383.876 411.934 382.017 421.795 378.356 430.248C376.61 434.362 373.624 438.983 372.78 438.983C372.498 438.983 371.371 439.659 370.357 440.448C368.104 442.195 365.006 443.153 359.148 444.054C349.178 445.576 335.997 442.364 320.225 434.644C316.508 432.84 312.734 431.093 311.776 430.755L310.086 430.192L312.34 429.459C313.579 429.008 317.127 427.543 320.225 426.078C325.802 423.486 325.915 423.486 331.773 423.542C335.04 423.542 341.011 423.768 345.122 424.049C353.628 424.557 356.951 423.824 358.191 421.176C359.092 419.203 359.036 419.034 356.782 415.878C354.529 412.723 351.6 410.863 340.447 405.284C326.309 398.184 315.607 394.296 306.143 392.83C288.344 390.069 284.288 389.787 272.347 390.295C244.858 391.534 230.889 390.802 212.92 387.139C208.414 386.237 202.5 385.054 199.683 384.603C196.923 384.096 192.699 383.251 190.389 382.631C188.08 382.011 183.123 380.884 179.405 380.038C172.589 378.573 166.055 376.545 160.085 374.009C158.338 373.22 155.466 372.318 153.776 371.924C143.242 369.557 125.274 360.372 111.53 350.397C103.587 344.593 102.968 344.311 93.9554 343.466C86.858 342.79 85.6188 342.508 82.0138 340.761C77.3949 338.451 75.4798 336.647 72.3817 331.519C71.1425 329.434 69.4527 327.293 68.6641 326.729C66.6362 325.208 61.9047 324.081 55.4833 323.686C48.7239 323.292 45.1189 321.827 39.3171 317.037C35.3741 313.768 33.0647 310.444 32.3888 307.119C32.1634 306.048 31.7128 304.808 31.3185 304.358C30.8679 303.794 30.6989 298.272 30.6426 286.325C30.5863 276.858 30.2483 265.926 29.854 262.094C29.4597 258.262 29.347 253.923 29.516 252.514C29.9666 249.358 33.628 243.103 36.726 240.342C39.2045 238.031 39.2608 237.299 36.7823 238.538C34.6982 239.665 32.2198 242.427 29.7977 246.259L27.8825 249.358L27.9952 257.529C28.0515 262.037 28.2768 267.729 28.5021 270.208C28.6711 272.688 28.8964 283.057 28.9527 293.313L29.0091 311.909L31.3749 318.727C35.1488 329.716 42.6968 343.86 47.4284 348.707C50.9207 352.313 52.1599 354.342 52.6106 357.272C53.1175 360.259 54.8073 362.569 58.4123 365.218C64.3268 369.557 69.34 374.798 73.2266 380.715C75.4234 383.927 81.3379 386.801 90.6884 389.111C95.8142 390.407 101.109 392.549 105.052 394.972C106.911 396.099 109.108 397.395 110.009 397.789C111.924 398.804 111.924 399.536 110.065 401.283C108.206 402.974 102.517 410.638 95.9269 420.105C92.0402 425.796 88.3226 432.502 79.648 449.69C64.3831 480.007 57.7927 494.997 54.3567 507C52.8359 512.466 46.8088 531.287 44.4993 537.993C41.4013 546.841 40.6127 551.518 38.9228 570.565C38.6412 573.946 38.5848 577.778 38.8102 579.018C39.2045 581.103 39.2608 580.877 39.8804 576.2C40.2184 573.383 40.669 569.325 40.838 567.184C41.6266 558.449 42.9221 552.194 45.6259 544.079C47.2031 539.402 50.4138 529.653 52.7232 522.384C61.8484 493.982 68.1571 478.486 79.7607 456.452C82.4645 451.324 86.6327 443.096 89.0548 438.137C92.3782 431.206 95.0256 426.867 100.264 419.541C104.038 414.244 108.15 408.158 109.446 406.017C110.685 403.819 112.037 401.509 112.487 400.832L113.22 399.593L115.923 401.171C117.388 402.016 124.316 406.524 131.245 411.145C138.229 415.822 146.735 421.288 150.227 423.373C155.747 426.698 159.071 429.008 164.478 433.291C165.717 434.306 165.774 434.587 165.21 435.545C164.197 437.123 164.309 439.828 165.379 440.899C166.506 442.026 168.027 442.026 170.393 440.899C172.251 440.053 172.364 440.053 174.843 441.8C176.251 442.758 177.434 443.716 177.434 443.942C177.434 444.787 172.026 446.985 169.21 447.267C167.069 447.492 165.943 447.323 164.704 446.59C163.07 445.632 163.07 445.632 164.929 447.379C166.337 448.732 167.238 449.126 168.984 449.126C171.632 449.126 174.617 447.999 177.265 445.97C179.124 444.562 179.124 444.562 180.87 445.576C182.503 446.534 182.56 446.759 182.222 449.126C181.884 451.662 178.335 463.665 176.307 469.244C174.505 474.146 170.843 481.078 165.548 489.531C162.788 493.926 160.535 497.645 160.535 497.758C160.535 498.265 169.491 496.349 173.772 494.884C176.251 494.095 178.786 493.363 179.405 493.363C186.052 493.024 205.203 485.473 210.217 481.19L212.075 479.613L207.006 481.472C204.246 482.543 201.204 483.67 200.247 484.064C198.05 484.91 198.275 484.741 204.471 480.627C207.4 478.711 211.794 475.274 214.16 472.907L218.497 468.737L223.172 471.216C225.763 472.569 230.889 475.668 234.607 478.091C238.324 480.514 243.45 483.557 246.041 484.853C248.576 486.093 250.66 487.333 250.66 487.615C250.66 487.896 247.618 491.334 243.901 495.222C240.24 499.11 237.254 502.379 237.367 502.492C237.423 502.604 241.422 500.857 246.21 498.66C250.998 496.462 256.124 494.151 257.589 493.588L260.292 492.517L263.052 493.926C265.7 495.279 265.812 495.391 266.263 498.547C267.446 507 265.7 518.89 262.32 525.483C259.053 531.795 247.393 542.276 238.662 546.897C232.692 549.94 235.226 550.391 243.619 547.742C250.266 545.601 259.447 543.798 263.785 543.798C267.615 543.798 270.375 544.925 272.347 547.291C273.529 548.7 273.755 549.546 273.755 552.87C273.755 557.266 273.079 559.013 269.981 562.45C264.573 568.424 253.139 575.186 246.098 576.538C241.929 577.327 240.014 578.116 242.211 578.172C243.169 578.172 241.817 579.074 237.986 580.934C232.128 583.808 231.396 584.371 235.395 582.962C241.366 580.877 265.587 578.849 271.783 579.919C276.008 580.652 279.444 582.455 280.401 584.54C281.021 585.836 281.021 586.569 280.232 589.33C279.05 593.331 276.233 596.149 270.544 599.192C268.347 600.319 263.672 603.418 260.123 606.067C256.631 608.659 250.097 612.942 245.591 615.478C237.536 620.098 237.479 620.155 239.676 620.267C240.915 620.324 267.108 620.493 297.863 620.549L353.797 620.718L354.36 618.577C355.994 612.547 357.571 594.74 357.965 579.13C358.078 571.917 358.416 564.028 358.585 561.549C358.923 556.815 360.218 548.588 360.725 547.799C360.894 547.517 361.627 543.29 362.303 538.388C363.26 531.682 363.598 526.554 363.654 518.157L363.711 506.887L365.964 504.52C371.315 499.054 375.596 490.432 378.469 479.5C379.032 477.133 380.778 472.174 382.186 468.511C385.228 460.847 388.157 449.859 389.622 440.617C391.143 430.868 390.974 410.807 389.284 400.945C387.932 392.943 386.073 385.167 383.82 377.953C382.017 372.206 376.723 359.977 374.244 355.863L372.385 352.764L373.005 348.087C374.075 340.141 372.949 327.687 370.357 318.671C364.274 297.201 354.586 281.535 338.926 267.672C332.561 261.981 327.999 259.501 319.944 257.247C312.677 255.275 306.256 254.204 298.539 253.81C292.963 253.528 290.766 253.697 283.049 254.993C278.092 255.838 272.628 257.078 270.938 257.754C265.643 259.839 252.181 266.94 249.815 268.969C247.112 271.279 245.14 272.293 239.958 274.209C235.057 275.956 232.41 276.069 229.425 274.491C226.664 273.082 225.144 271.166 223.228 266.376C222.44 264.46 220.468 259.952 218.835 256.402C214.779 247.667 213.484 243.441 213.089 237.975L212.751 233.41L215.793 229.353C218.835 225.239 220.863 223.718 223.228 223.718C224.017 223.718 226.045 223.098 227.735 222.309C231.058 220.844 232.917 218.646 237.141 211.151C238.155 209.404 239.451 207.657 240.014 207.376C241.479 206.53 243.901 202.868 243.901 201.346C243.901 200.67 244.746 199.036 245.76 197.683C246.774 196.331 248.463 193.738 249.421 191.879C250.435 190.019 253.139 185.906 255.392 182.693C260.63 175.424 262.151 171.141 261.87 164.717C261.701 161.674 261.25 159.589 260.405 157.842L259.166 155.363L260.518 153.616C263.165 150.122 263.785 147.642 263.672 141.275C263.616 137.724 261.813 135.809 258.659 135.809C255.899 135.809 251.843 138.344 250.153 141.106C249.421 142.233 248.801 143.134 248.689 143.134C248.013 143.134 250.21 137.781 251.843 135.47C254.603 131.413 259.166 126.905 260.968 126.51C263.503 125.834 265.137 126.567 265.531 128.539C266.207 131.92 265.7 137.837 264.404 142.289C264.179 143.078 264.235 143.247 264.63 142.853C265.7 141.782 267.559 135.076 267.559 132.146C267.559 128.708 266.319 124.313 264.968 122.791C263.39 121.044 260.067 120.424 257.645 121.439C255.054 122.509 254.997 122.509 255.786 121.101C256.293 120.086 255.955 120.199 253.758 121.721C250.435 124.031 248.125 127.187 246.999 131.131C246.492 132.822 246.041 134.174 245.929 134.062C245.816 133.949 245.929 132.258 246.098 130.286C246.436 126.905 246.605 126.623 249.928 123.242C253.984 119.128 254.603 118.001 254.603 115.127C254.603 111.239 255.166 111.352 260.968 116.818C264.968 120.537 266.714 122.622 267.277 124.256C267.784 125.722 268.066 126.116 268.122 125.271C268.178 122.115 264.292 117.269 258.433 113.155C256.631 111.859 255.166 110.675 255.166 110.45C255.166 110.225 255.673 109.605 256.293 109.041C256.913 108.478 257.42 107.632 257.42 107.182C257.42 105.773 251.392 98.3907 249.027 96.9256C247.844 96.1367 246.267 94.5024 245.647 93.2627C244.971 92.023 243.788 90.107 243 89.0926C242.098 87.7965 241.76 86.8386 242.042 86.275C242.267 85.7679 242.493 83.6828 242.493 81.5978C242.493 77.4841 241.817 76.3007 238.155 74.103L236.297 73.0323L238.381 75.4554C240.915 78.3857 242.042 82.7249 241.141 85.9933C240.859 87.1203 240.746 87.9092 240.915 87.6838C241.366 87.2894 244.408 93.9953 244.464 95.3477C244.464 95.8549 245.14 96.7565 245.985 97.32C248.182 98.7852 254.547 105.435 254.941 106.674C255.11 107.294 254.997 108.027 254.66 108.365C254.322 108.703 254.04 109.436 254.04 109.999C254.04 110.563 253.815 111.014 253.477 111.014C253.195 111.014 252.913 110.394 252.913 109.661C252.913 106.336 252.294 106.336 249.477 109.492C246.774 112.535 241.873 115.973 241.197 115.296C241.028 115.071 241.929 113.888 243.169 112.535C245.647 109.999 248.407 106.111 248.407 105.209C248.407 104.928 247.45 105.773 246.267 107.125C241.141 112.986 241.084 113.042 241.422 111.859C241.648 111.239 242.267 110.225 242.831 109.605C244.577 107.576 246.154 104.251 246.154 102.561C246.154 100.025 244.013 100.588 242.324 103.575C241.591 104.871 240.24 106.505 239.226 107.182L237.479 108.478L238.775 106.336C239.451 105.209 239.958 103.744 239.845 103.124C239.676 101.997 239.62 101.997 237.705 103.406C236.635 104.251 234.1 105.773 232.072 106.787C230.044 107.802 226.608 110.225 224.355 112.141C220.863 115.127 220.13 116.085 218.666 119.635C217.765 121.89 216.807 124.2 216.525 124.82C216.244 125.609 215.962 124.538 215.737 121.326C215.568 118.79 215.286 116.536 215.117 116.367C214.892 116.198 214.441 117.607 214.047 119.579L213.371 123.073L212.413 120.875C211.512 118.734 211.512 118.734 213.033 117.1C214.441 115.578 215.174 113.888 215.962 110.281C216.3 108.872 216.187 108.76 214.498 108.703C212.977 108.647 213.258 108.534 215.737 107.971C217.427 107.632 219.454 106.956 220.13 106.562C220.863 106.167 221.595 105.998 221.764 106.167C221.933 106.336 221.257 108.647 220.243 111.239C217.99 117.156 218.272 118.565 220.75 113.662C222.102 111.014 222.552 109.436 222.44 107.802C222.271 105.886 222.609 105.153 224.299 103.181C228.242 98.5034 232.635 88.0783 232.635 83.2884C232.635 81.5978 228.298 75.3991 226.439 74.3847C225.876 74.0466 224.017 73.8212 222.384 73.8212C220.243 73.8212 219.623 73.6522 220.243 73.2577C221.539 72.4124 219.961 72.5815 217.765 73.4831C215.061 74.6102 213.484 76.9206 213.484 79.6818C213.484 82.9503 214.667 84.3027 219.454 86.5568C223.848 88.6418 224.693 89.7689 223.904 92.5301C223.566 93.7699 223.566 93.7699 224.411 92.7555C226.439 90.2197 224.524 86.5004 220.412 85.0916C218.046 84.2464 217.652 83.0066 219.454 82.1613C220.637 81.5978 221.482 81.7105 224.073 82.5558C226.777 83.5138 227.34 83.9646 227.791 85.4861C228.805 89.2617 222.44 98.6161 218.835 98.6161C217.765 98.6161 217.258 98.1653 216.638 96.7002C215.511 94.0516 213.146 92.023 209.428 90.6705C204.133 88.6982 200.359 83.5138 199.458 76.9206L199.064 74.103L198.331 79.2874C197.937 82.105 197.712 87.6275 197.768 91.5721L197.937 98.6725L196.078 100.476L194.219 102.279L195.121 100.419C195.966 98.7289 197.261 91.2904 196.698 91.2904C196.585 91.2904 195.966 91.8539 195.346 92.5301C194.332 93.7135 194.276 93.7135 194.67 92.6992C196.022 88.8672 196.585 85.2607 196.585 80.1327C196.585 74.3847 196.642 74.2157 198.275 72.2997C199.233 71.2854 199.965 69.9893 199.965 69.4821C199.965 68.9186 199.458 69.3131 198.669 70.4401C197.993 71.5108 197.092 72.4124 196.754 72.5815C195.515 72.9759 195.966 71.229 197.993 67.8479C199.12 65.9883 200.359 63.3961 200.81 61.9873L201.598 59.4514V61.5365C201.655 63.0016 202.218 64.3541 203.626 66.2137C204.978 67.9606 205.767 69.6512 205.992 71.4544C206.161 72.9196 206.612 74.5538 207.006 75.1173C207.569 75.9626 207.738 75.6808 208.02 73.145C208.696 67.6788 208.583 67.2844 205.598 63.9596C204.021 62.269 202.781 60.3531 202.781 59.6769C202.781 59.057 202.556 58.6625 202.274 58.8316C201.993 59.0006 201.598 57.5918 201.429 55.7322C201.204 53.8162 200.922 52.4074 200.754 52.5201C200.641 52.6892 199.909 54.8306 199.176 57.3664C196.923 65.0867 193.544 69.3694 187.573 72.0743C185.151 73.145 185.094 73.2014 186.615 73.5395C188.474 74.0466 191.234 73.5395 193.431 72.4124C195.628 71.2854 195.74 71.3417 194.445 73.0887C193.881 73.8776 192.248 75.061 190.896 75.6245L188.418 76.6952L190.558 76.3571C191.685 76.188 192.642 76.2444 192.642 76.4698C192.642 76.6952 192.135 78.4985 191.516 80.4144C190.896 82.3867 190.107 85.6552 189.77 87.7402C189.094 91.8539 187.967 94.5588 186.502 95.6295C185.996 96.024 184.418 96.5875 182.954 96.9256C181.433 97.32 180.419 97.8272 180.588 98.109C180.982 98.7852 180.87 98.7852 177.828 97.7145C174.674 96.6438 174.279 95.7422 177.321 96.5311C180.306 97.32 182.391 96.6438 184.869 94.0516C187.46 91.3467 187.685 90.0506 185.263 92.0793C183.179 93.8262 181.771 94.2207 178.504 93.9953C175.913 93.7699 176.138 93.5445 180.137 92.4738C184.644 91.234 188.699 85.5988 188.023 81.5415C187.854 80.5835 187.629 80.8652 187.122 82.6122C186.221 85.6552 183.686 89.0926 181.32 90.3324C179.574 91.2904 179.687 91.1777 182.053 88.9236C185.489 85.8242 186.446 83.4011 186.39 78.2167C186.39 74.1593 186.39 74.103 185.432 75.5118C184.024 77.5968 176.194 86.8386 176.025 86.6695C175.969 86.5568 176.082 85.2043 176.251 83.6265C176.645 80.5835 175.913 78.9493 174.674 80.189C174.336 80.5271 174.054 80.5835 174.054 80.2454C174.054 79.9073 172.646 79.7945 170.505 79.9073C167.633 80.0763 166.45 79.9073 164.535 78.8929C163.183 78.2167 162.225 77.5968 162.338 77.5405C162.394 77.4278 164.422 77.5968 166.731 77.8786C171.97 78.6112 176.025 78.5548 177.321 77.8222C178.053 77.3714 177.49 77.2587 174.955 77.2024H171.632L173.096 76.0753C173.941 75.3991 175.462 74.9483 176.983 74.8919C180.306 74.7792 182.729 74.2157 182.672 73.5395C182.672 73.2014 183.348 72.5251 184.193 72.018C185.094 71.5108 186.221 70.7219 186.84 70.2147C187.404 69.7639 188.699 68.6932 189.713 67.9043C192.023 65.9883 192.98 64.1287 194.05 59.5078C194.501 57.4791 195.064 55.3941 195.29 54.8306C195.628 53.9853 195.515 53.9289 194.783 54.5488C193.994 55.225 193.938 55.056 194.388 52.9146C195.064 50.0406 194.67 49.4208 193.825 51.9566C193.149 53.7599 193.093 53.7599 192.361 52.6892C191.91 52.0693 191.347 51.2804 191.121 50.9986C190.896 50.6605 190.107 49.3644 189.375 48.012L188.08 45.6452H193.712H199.402L200.19 47.4484L200.979 49.3081L201.035 47.2794C201.091 45.9833 200.754 44.9126 200.134 44.4618C198.951 43.4475 195.515 43.4475 191.403 44.4618L188.136 45.2507L185.77 42.6585C183.404 40.179 181.94 39.3337 178.673 38.5448C177.49 38.2631 177.772 38.6012 179.912 40.0663C181.433 41.137 184.306 43.7856 186.221 45.9833C189.15 49.2517 189.601 49.9279 188.587 49.9279C187.967 49.8716 187.347 50.2097 187.235 50.6042C187.178 50.9986 187.235 51.055 187.404 50.7169C188.305 48.8573 190.952 51.7312 190.952 54.6615C190.952 56.4648 190.558 57.3664 188.925 59.1697C186.221 62.1563 179.518 65.5375 177.152 65.0303C174.561 64.5231 169.66 61.5928 165.943 58.3808L162.563 55.5632L164.478 59.057C165.492 61.0293 167.351 63.7342 168.534 65.0867L170.787 67.6225L168.309 66.4955C166.957 65.8756 165.21 65.0867 164.422 64.6922C163.633 64.3541 162.45 63.3397 161.887 62.4381C160.254 60.015 159.916 60.5785 161.099 63.9033C162.394 67.7352 163.183 69.2567 164.704 70.9473L165.886 72.2997L164.535 71.5671C161.605 70.0456 158.338 66.4391 157.437 63.6215C156.367 60.5221 155.747 60.1277 156.592 63.1143L157.099 64.9739L155.747 63.6779C153.889 61.9309 153.945 61.0857 156.254 56.972C160.085 50.2661 162.338 47.5048 166.731 44.3491L168.14 43.3911L166.337 43.7292C164.816 44.011 164.535 43.8983 164.816 43.1657C165.379 41.6442 166.957 42.1514 169.548 44.7999C170.9 46.2087 172.308 47.3357 172.646 47.3357C172.984 47.3357 174.617 48.2374 176.307 49.3081C180.081 51.6749 180.532 51.7312 179.461 49.6462C177.941 46.8286 171.914 43.1657 165.83 41.4188C164.028 40.968 158.902 43.1093 156.311 45.4198L154.057 47.4484L156.311 46.1524C158.282 45.0253 158.451 44.969 157.662 45.9833C155.578 48.4064 153.213 55.6759 153.213 59.5641C153.213 60.8039 153.1 60.9166 152.311 60.2404C151.579 59.6205 151.466 59.7332 151.804 61.1984C152.03 62.4381 151.973 62.5508 151.635 61.7055C151.354 61.0857 151.072 57.9299 151.016 54.6615C150.959 51.3931 150.678 47.8429 150.452 46.7722L149.946 44.7999L149.889 46.6032C149.833 48.3501 148.763 49.3081 148.65 47.7302C148.594 47.3921 148.256 48.0683 147.861 49.3081L147.129 51.5622L146.453 49.7589C146.115 48.7445 145.608 48.012 145.327 48.0683C145.101 48.1247 144.256 47.3357 143.524 46.2651C141.553 43.3347 140.989 43.5038 140.708 46.9976C140.37 50.7169 139.412 52.013 135.807 53.3091C134.399 53.8162 131.864 54.8306 130.231 55.5632L127.245 56.8592L128.259 55.056C128.822 54.0416 131.526 51.055 134.23 48.3501L139.243 43.5038L136.765 43.7856C131.977 44.4054 127.358 46.6595 122.739 50.6042L120.599 52.4638L121.106 50.8859C121.331 50.0406 121.95 48.181 122.457 46.8286C122.964 45.4761 123.359 44.2364 123.359 44.1237C123.359 43.6729 120.43 45.6452 118.74 47.223C117.444 48.4064 117.163 48.5191 117.163 47.7302C117.163 46.096 118.909 43.9546 121.5 42.4331C125.443 40.1227 133.667 39.9536 138.793 42.0386C140.539 42.7149 139.3 41.2497 137.272 40.179C136.258 39.6155 133.554 39.1083 130.963 38.9393L126.457 38.6012L128.597 37.3614C131.188 35.7836 132.596 32.7969 132.146 29.8666L131.864 27.8943L133.498 29.8666C134.399 30.9373 135.357 32.3461 135.526 32.966C136.596 36.1217 144.707 44.7435 145.721 43.7856C146.397 43.053 143.524 36.8543 141.046 33.5858L138.455 30.3174L141.271 31.8389C142.792 32.6842 145.327 34.4311 146.791 35.7836L149.551 38.1504L147.974 41.1934C147.129 42.8839 146.453 45.0253 146.453 45.9269C146.51 47.6175 146.51 47.6175 147.185 46.3214C147.58 45.6452 148.087 45.1944 148.256 45.3634C148.425 45.5888 149.157 44.8563 149.833 43.8419C150.565 42.8276 151.917 41.137 152.875 40.0663L154.621 38.1504L152.537 39.3337C150.284 40.6298 150.058 40.5735 150.959 38.8266C151.41 38.0377 151.241 37.1924 150.34 35.3891C148.087 30.8246 146.059 29.3031 140.82 28.2324C139.131 27.8379 136.765 26.9363 135.638 26.1474C133.554 24.8513 132.765 24.964 134.23 26.4291C134.793 26.9926 134.681 27.049 133.779 26.7109C133.16 26.4855 131.808 25.4148 130.794 24.3441C129.724 23.3298 128.766 22.5408 128.654 22.7099C128.541 22.8226 128.822 24.175 129.273 25.6965C131.301 32.3461 129.217 37.9813 124.373 39.1647L122.795 39.5592L123.922 37.136C125.217 34.2621 125.33 30.8809 124.204 28.4578C123.471 26.8236 123.471 26.9363 123.415 30.8809C123.359 35.2764 122.401 40.01 121.612 40.01C120.599 40.01 115.923 44.7999 114.853 46.8849C114.29 48.012 113.783 49.7025 113.783 50.5478C113.727 51.7312 113.614 51.9003 113.276 51.2804C112.656 50.2661 111.53 43.1093 111.53 40.4608V38.6012H114.853C117.557 38.6012 118.458 38.3758 119.585 37.3051C120.88 36.0653 122.007 33.6985 121.162 33.9803C120.993 34.0367 120.148 33.5858 119.303 33.0223C117.951 32.1207 117.444 32.1207 114.74 32.6842C111.98 33.3041 111.53 33.3041 109.164 32.0643L106.573 30.7119L107.868 28.007C109.446 24.7949 108.939 24.5131 107.024 27.6125C106.122 29.134 104.038 30.9373 101.109 32.7969C95.5889 36.4034 91.2516 40.5735 91.2516 42.3768C91.1953 45.4761 87.2523 46.9413 85.7315 44.4618C83.76 41.3061 77.5076 40.6862 74.5785 43.3911C73.283 44.6872 73.2266 44.6872 73.2266 43.5602C73.2266 42.9403 72.607 41.1934 71.8184 39.6719C71.0298 38.1504 70.4102 36.8543 70.4102 36.8543C70.4102 36.7979 71.3115 36.967 72.438 37.1924C75.0291 37.8122 79.3101 36.5725 80.9436 34.8256C83.253 32.2897 83.929 30.092 83.929 25.4711C83.929 19.2161 84.4923 18.6525 90.4067 18.4271L94.913 18.2581L95.9269 16.2294C97.1098 13.8063 96.7155 12.3411 93.8991 9.69255C91.8712 7.72023 87.534 6.19872 83.9853 6.19872C81.6759 6.19872 77.5639 8.05834 76.1557 9.7489C75.6487 10.4251 74.2405 11.4395 73.114 12.0593C71.0862 13.0737 69.2837 15.7786 69.2837 17.6945C69.2837 18.9906 67.4248 18.8216 66.5799 17.4691C65.397 15.5532 63.4255 16.0603 60.8908 18.9343C59.5952 20.3994 58.5813 21.4138 58.5813 21.2447C58.5813 21.0193 59.2573 19.4415 60.0459 17.7509C61.8484 13.9753 64.6084 11.5522 68.1571 10.7069C69.7343 10.3124 71.9311 9.12903 73.6773 7.66387C75.3108 6.36778 77.8455 4.84627 79.4227 4.28275C82.0138 3.38111 82.3518 3.32476 83.9853 4.17004C86.6891 5.52249 89.5055 5.29709 93.6737 3.38111C98.0673 1.40879 99.9262 1.29609 102.236 2.81759L103.925 3.94464H101.729C99.7009 3.94464 94.237 6.02966 94.8003 6.53683C94.913 6.64954 96.4338 6.48048 98.2363 6.14237C102.236 5.29709 103.193 6.02966 100.546 7.83293C98.6869 9.07268 98.518 9.12903 97.1661 8.22739C95.0256 6.81859 94.8003 7.1567 96.6028 9.01632C98.5743 11.1014 99.0812 11.1014 102.574 9.12903C105.39 7.55117 106.01 6.31142 104.489 5.07168C104.038 4.67721 103.756 4.17004 103.925 3.94464C104.038 3.71923 103.419 2.87395 102.517 1.97231C100.208 -0.225419 97.1098 -0.394475 92.0402 1.5215ZM55.7649 27.7252C54.751 30.3738 54.751 30.8246 55.4833 32.3461C55.9902 33.2477 56.1592 34.1494 55.8776 34.3184C48.8929 39.221 48.5549 39.3901 50.0195 37.3051C50.7517 36.3471 52.4416 33.135 53.7934 30.1484C56.4972 24.3441 57.5674 23.048 55.7649 27.7252ZM119.81 34.7129C120.092 35.5582 118.233 36.009 116.205 35.6145L114.628 35.3327L116.318 34.6002C118.233 33.7549 119.528 33.8112 119.81 34.7129ZM64.0452 35.4455C64.3831 35.5018 66.0166 36.5161 67.5938 37.8122C71.1425 40.6298 73.114 44.3491 72.0437 46.3214C71.0862 48.181 71.0862 48.181 69.9033 47.1103C66.242 43.7856 59.1446 43.8419 55.2016 47.1103C53.0612 48.97 52.9485 50.0406 55.089 48.4628C55.9902 47.7866 57.8491 47.1103 59.2009 46.9413L61.6794 46.6032L59.7079 47.9556C57.6801 49.3081 55.5396 53.0273 54.92 56.0703C54.6384 57.5918 54.6947 57.6482 55.3143 56.6902C55.7086 56.0703 56.8915 54.6052 57.9617 53.4218C60.2712 50.7732 62.7496 50.4915 64.7774 52.6892C65.904 53.8726 65.9603 54.098 65.1154 54.098C63.4255 54.098 60.8908 55.7886 59.9895 57.4791C58.8066 59.7332 58.2434 64.2414 59.0883 64.2414C59.4263 64.2414 59.7079 63.6779 59.7079 62.9453C59.7642 59.9023 64.2141 54.6615 66.1856 55.4504C66.6926 55.6195 67.7065 57.141 68.4387 58.8316C69.2273 60.5785 70.5229 62.3818 71.5368 63.1143C73.0577 64.2414 73.283 64.6922 73.0577 66.2137C72.3817 70.4401 71.2552 71.9616 67.9318 73.2014C66.242 73.8212 63.2566 74.6102 61.3414 74.8919C57.2295 75.5681 56.8915 75.7936 58.356 76.9206C60.8908 78.9493 64.7211 79.231 67.7628 77.6532C68.3261 77.3714 68.9457 77.2587 69.1147 77.4278C69.6216 77.9349 67.8755 79.9073 64.7774 82.274C62.2427 84.19 61.3414 84.5281 59.8769 84.3027C57.2858 83.9083 53.3991 81.0906 51.0334 77.8786C49.9068 76.3571 48.6113 74.7792 48.1606 74.3847C47.372 73.7649 47.372 73.8212 47.8227 75.1737C48.1606 75.9626 48.7802 77.3714 49.2309 78.273C50.0758 79.8509 50.0195 79.9073 48.7239 80.189C47.4284 80.4144 47.3157 80.2454 47.3157 78.0476C47.3157 71.9616 44.1613 67.0026 38.6412 64.4668C37.064 63.7906 36.1627 63.1707 36.6697 63.1707C38.1342 63.1143 41.1196 59.3387 41.1196 57.5918C41.1759 56.1267 41.1759 56.0703 42.0772 57.1974C42.9221 58.3244 42.9221 58.2681 42.6405 56.9156C41.5702 52.182 41.5702 49.7025 42.6968 47.223C43.8797 44.4618 45.2879 43.2784 50.4138 40.6862C52.2726 39.7846 54.8637 38.1504 56.1592 37.136C58.4687 35.2764 59.5952 35.051 64.0452 35.4455ZM144.989 57.3101C143.017 58.7752 142.51 58.099 143.918 56.014C144.707 54.8869 145.383 53.6472 145.439 53.3091C145.439 52.971 145.608 53.5908 145.721 54.6615C145.89 56.0703 145.721 56.8029 144.989 57.3101ZM151.297 63.3397C152.368 65.0303 152.424 65.3684 151.692 66.7209C150.79 68.4114 151.016 68.3551 148.819 67.5661C146.51 66.7772 146.228 65.1994 148.03 63.1707C148.875 62.2127 149.664 61.4801 149.833 61.4801C150.002 61.4801 150.621 62.3254 151.297 63.3397ZM155.466 71.7362C155.466 72.8632 155.466 72.8632 154.621 71.7926C154.17 71.229 153.776 70.271 153.776 69.7639C153.776 69.144 153.494 68.9186 152.931 69.0877C152.311 69.3131 152.142 69.144 152.368 68.5241C152.537 68.017 152.818 67.1717 152.987 66.6645C153.213 65.9319 153.551 66.27 154.395 68.1297C154.959 69.4821 155.466 71.1163 155.466 71.7362ZM217.652 75.3991C216.751 76.2444 215.906 76.8642 215.737 76.7515C215.455 76.5261 218.384 73.8212 218.947 73.8212C219.116 73.8212 218.553 74.4975 217.652 75.3991ZM225.313 80.5835C225.313 80.8652 224.806 80.9216 224.186 80.7525C223.566 80.5835 223.059 80.2454 223.059 80.02C223.059 79.7382 223.566 79.6818 224.186 79.8509C224.806 80.02 225.313 80.3581 225.313 80.5835ZM199.796 82.9503C199.627 83.4011 199.458 83.232 199.458 82.6122C199.402 81.9923 199.571 81.6542 199.74 81.8796C199.909 82.0486 199.965 82.5558 199.796 82.9503ZM60.3275 85.0916C61.5667 85.0916 61.623 85.148 60.7218 87.064C59.9332 88.7545 59.7079 88.8109 56.8915 87.3457C55.2016 86.5004 54.6384 85.8806 54.6384 84.8099C54.6384 83.4574 54.6384 83.4574 56.9478 84.2464C58.2434 84.6972 59.7642 85.0916 60.3275 85.0916ZM212.751 95.0096C214.329 95.7422 215.793 96.8129 215.962 97.2637C216.244 98.0526 216.018 98.109 214.216 97.7709C211.456 97.2637 209.597 96.2494 207.851 94.3897L206.443 92.8119L208.132 93.2063C209.09 93.4318 211.118 94.2207 212.751 95.0096ZM192.079 96.5875C192.079 97.0946 190.276 98.6161 189.713 98.6161C189.375 98.6161 189.713 98.109 190.445 97.4891C191.854 96.3057 192.079 96.193 192.079 96.5875ZM134.681 102.843C140.313 105.097 146.228 106.505 150.284 106.505C155.691 106.505 161.549 105.547 164.253 104.251C169.66 101.603 174.054 103.97 177.884 111.633C180.081 116.029 180.25 116.536 179.687 118.508C179.011 120.875 176.983 122.453 174.617 122.453C173.322 122.453 172.251 121.721 169.886 119.297C168.196 117.494 166.45 116.085 165.999 116.085C165.605 116.085 164.366 115.634 163.295 115.071C161.718 114.282 159.916 114.113 153.494 114.113C143.074 114.113 138.849 115.296 135.131 119.297C133.723 120.819 132.033 122.904 131.357 124.087C129.217 127.525 127.752 127.468 125.781 123.975C124.316 121.495 124.204 120.875 125.161 121.495C125.781 121.89 123.753 118.17 122.683 116.931C122.457 116.649 122.232 116.029 122.232 115.578C122.232 115.127 121.556 113.888 120.768 112.873C119.472 111.183 119.359 110.732 119.923 109.548C120.261 108.76 120.542 107.689 120.542 107.069C120.542 105.547 122.908 103.012 125.105 102.223C128.09 101.152 130.963 101.321 134.681 102.843ZM164.197 103.124C163.577 103.406 162.563 103.631 161.943 103.631C160.986 103.688 160.986 103.575 161.662 103.124C162.112 102.843 163.126 102.617 163.915 102.617C165.21 102.617 165.21 102.673 164.197 103.124ZM211.4 107.971C212.075 108.196 211.456 108.985 209.203 111.07C207.513 112.591 205.992 113.831 205.879 113.831C205.71 113.831 206.612 112.422 207.907 110.732C209.203 109.041 210.329 107.632 210.386 107.632C210.498 107.632 210.949 107.802 211.4 107.971ZM252.575 117.494C251.223 120.368 250.998 119.579 252.181 115.916C252.97 113.549 253.251 113.099 253.364 114.113C253.477 114.902 253.139 116.367 252.575 117.494ZM160.028 116.142C162.394 116.649 163.633 117.381 165.999 119.635C167.633 121.157 168.984 122.904 168.984 123.467C168.984 124.031 170.167 125.947 171.576 127.694L174.223 130.906L172.026 129.159C170.843 128.201 169.097 126.454 168.252 125.383C167.351 124.256 165.379 122.397 163.859 121.157C160.366 118.396 157.043 117.889 151.016 119.128C146.284 120.143 144.2 121.326 139.187 125.947C137.328 127.75 135.751 128.934 135.751 128.652C135.751 128.37 136.032 127.863 136.314 127.581C136.652 127.243 137.666 125.102 138.567 122.791C139.469 120.481 140.764 118.17 141.496 117.663C143.918 115.86 154.677 115.015 160.028 116.142ZM224.13 121.044C223.341 123.129 220.919 127.243 220.243 127.637C219.905 127.863 220.187 126.623 220.863 124.989C221.539 123.355 222.215 121.608 222.384 121.157C222.89 119.805 223.735 118.903 224.242 119.185C224.468 119.354 224.468 120.199 224.13 121.044ZM231.565 132.089L233.424 132.878L230.495 133.047C227.453 133.273 227.115 133.104 228.242 131.977C229.087 131.131 229.312 131.131 231.565 132.089ZM231.002 136.09C235.395 137.612 237.141 138.852 239 141.725C241.535 145.557 242.774 148.882 242.774 151.813C242.774 154.63 243.225 156.208 243.901 155.814C244.689 155.363 244.971 158.18 245.14 166.52C245.253 173.564 245.14 174.804 243.957 178.298C241.648 185.004 236.184 189.343 230.1 189.343C221.764 189.343 216.582 183.764 216.694 175.086C216.751 172.437 217.032 170.916 217.652 170.24C218.159 169.676 218.553 168.549 218.553 167.704C218.553 166.859 218.779 165.731 219.06 165.224C219.285 164.717 219.68 162.463 219.905 160.209C220.187 156.997 220.074 155.983 219.398 155.306C218.215 154.179 218.215 149.333 219.398 149.333C219.849 149.333 220.243 148.826 220.243 148.206C220.243 146.966 222.158 142.853 223.397 141.444C224.242 140.429 224.073 138.288 223.116 138.513C222.158 138.739 224.299 135.921 225.313 135.639C227.002 135.132 228.58 135.245 231.002 136.09ZM261.363 138.401C262.602 139.64 262.489 147.924 261.194 150.178L260.18 151.869L260.518 149.277C260.968 145.839 260.123 143.867 257.701 142.74C255.899 141.895 255.617 141.838 253.815 142.74C252.35 143.416 251.449 144.487 250.153 147.192C248.182 151.193 247.956 150.967 249.421 146.403C251.787 139.19 257.983 135.076 261.363 138.401ZM32.4451 174.184C33.797 176.269 35.4305 179.538 35.9938 181.341C36.557 183.201 37.5709 185.511 38.3032 186.525C39.7677 188.61 39.5988 189.005 37.5146 188.216C36.6697 187.934 35.2052 187.652 34.2476 187.652C32.6704 187.652 32.8394 187.822 35.9938 189.456C39.7114 191.372 40.2747 192.161 37.9652 192.161C36.726 192.161 36.557 192.273 37.1766 193.006C37.5709 193.457 38.8665 194.133 40.0494 194.527C42.4715 195.204 43.0348 196.105 40.838 195.654C39.2608 195.373 38.9791 196.162 40.2747 197.232C40.7253 197.57 41.2323 198.472 41.4576 199.092C41.6266 199.768 42.6968 201.29 43.8234 202.417C44.9499 203.6 45.5695 204.558 45.2879 204.558C44.9499 204.558 44.2177 204.051 43.6544 203.431C42.5841 202.248 39.2608 200.952 38.1342 201.346C37.7963 201.459 38.7538 202.135 40.2747 202.868L43.0911 204.164L41.4013 204.558L39.7114 204.953L44.9499 210.024C47.7663 212.842 50.1321 215.265 50.1321 215.434C50.1321 215.603 48.4423 215.209 46.3581 214.589C39.8241 212.616 35.2615 209.066 32.5014 203.769C30.7552 200.388 30.6989 200.219 30.6989 192.442C30.6989 188.103 30.9242 182.355 31.2059 179.65C31.7128 174.917 31.6565 174.691 30.1356 172.099C27.8262 168.155 29.5724 169.732 32.4451 174.184ZM111.361 173.677C114.402 177.002 120.768 194.415 118.683 193.682C117.782 193.4 112.656 183.201 112.656 181.735C112.656 180.777 112.544 180.777 112.093 181.454C111.642 182.13 111.53 182.017 111.53 180.89C111.53 180.101 111.248 179.087 110.966 178.636C110.516 177.96 110.403 178.129 110.403 179.312C110.403 180.214 110.122 180.89 109.727 180.89C109.277 180.89 109.22 184.384 109.502 194.696C109.727 202.304 110.009 208.897 110.178 209.292C110.516 210.137 107.08 211.095 106.404 210.362C105.953 209.912 105.165 202.135 104.094 187.54C103.362 177.34 103.756 174.691 106.348 173.339C108.544 172.156 110.009 172.268 111.361 173.677ZM44.1613 175.593C44.6683 176.946 43.7107 176.438 42.2462 174.579L40.8943 172.832L42.3588 173.79C43.2038 174.297 43.9923 175.142 44.1613 175.593ZM111.586 190.414C112.431 192.386 112.487 192.668 111.699 192.95C110.572 193.4 110.629 193.513 110.178 190.245C109.784 187.145 110.122 187.145 111.586 190.414ZM155.916 210.757C166.224 211.32 174.11 212.391 176.082 213.462C177.321 214.138 179.292 219.942 178.166 219.548C175.969 218.702 168.196 217.012 163.915 216.448C141.215 213.462 109.671 214.42 82.5208 218.928C75.1981 220.168 63.7072 222.816 60.7218 224C59.8769 224.338 59.7079 224.112 59.7079 222.873C59.7079 220.562 60.5528 219.435 63.4819 218.195C71.4241 214.814 92.0402 212.278 123.64 210.813C137.328 210.137 144.031 210.137 155.916 210.757ZM55.6523 220.844C55.8213 221.295 55.3706 221.238 54.4131 220.618C52.6106 219.435 52.5542 219.097 54.1877 219.717C54.8637 219.942 55.5396 220.506 55.6523 220.844ZM125.161 230.48C125.217 236.679 125.274 242.708 125.33 243.835V245.977L121.106 246.371C118.796 246.54 115.642 247.048 114.065 247.386C112.544 247.724 108.206 248.231 104.489 248.513C96.4338 249.076 94.406 249.358 87.0834 250.823C76.888 252.795 70.3539 252.007 68.0445 248.4C67.5938 247.667 66.8052 243.723 66.2983 239.215C65.735 234.876 65.1717 230.424 65.0027 229.297L64.6648 227.324L68.7767 226.085C81.2816 222.478 103.306 219.435 118.458 219.266L125.049 219.21L125.161 230.48ZM174.617 236.284C174.617 253.303 173.434 333.83 173.209 334.055C173.096 334.168 172.139 333.999 171.125 333.661L169.266 333.041L169.041 315.008L168.872 296.976H170.562H172.195L172.533 279.056C172.758 269.25 173.096 252.908 173.265 242.708C173.491 232.565 173.885 224.281 174.11 224.281C174.392 224.281 174.617 229.691 174.617 236.284ZM150.959 311.176C151.354 319.347 151.579 326.448 151.466 326.955C151.241 327.8 150.903 327.744 147.411 326.56C142.736 324.87 136.314 321.432 130.681 317.488C123.922 312.81 124.091 313.149 126.682 307.908C127.921 305.485 129.273 302.16 129.611 300.638C129.949 299.061 130.343 297.483 130.456 297.088C130.625 296.581 133.103 296.412 140.426 296.412H150.227L150.959 311.176Z" fill="white" fill-opacity="0.21"/>
<path d="M59.0883 40.0664C56.0466 40.7426 51.2587 42.7713 49.3999 44.0674C46.9214 45.8706 45.0626 50.2661 45.1189 54.3798C45.2316 60.0714 45.9638 61.1984 46.3018 56.0704C46.5835 51.055 47.9917 47.6739 50.4701 45.7016C52.3289 44.2364 60.2149 41.7006 62.8623 41.7006C65.2281 41.7006 68.5514 42.9967 70.2413 44.6309C70.9735 45.3071 71.5368 45.5889 71.5368 45.3071C71.5368 44.3491 67.9318 41.2498 65.7913 40.3481C63.4819 39.3902 62.1863 39.3338 59.0883 40.0664Z" fill="white" fill-opacity="0.21"/>
<path d="M44.7246 61.6492C45.4569 64.6358 47.372 67.9606 49.5688 70.1584C50.8081 71.3981 51.822 72.187 51.822 72.018C51.822 71.5672 46.6961 63.058 45.4569 61.4238L44.3303 60.015L44.7246 61.6492Z" fill="white" fill-opacity="0.21"/>
<path d="M152.368 109.943C150.509 110.225 147.073 110.957 144.763 111.577L140.539 112.648L144.763 112.366C153.1 111.859 164.309 110.225 162.507 109.83C160.197 109.323 156.367 109.379 152.368 109.943Z" fill="white" fill-opacity="0.21"/>
<path d="M226.834 140.317C225.651 141.049 223.623 144.938 223.623 146.346C223.679 146.966 224.073 146.572 224.749 145.276C227.622 139.922 231.734 140.26 235.733 146.29C239.113 151.362 242.211 166.69 241.028 172.381C240.24 176.438 239.057 179.312 237.874 180.158C237.311 180.608 237.198 180.89 237.648 180.89C238.831 180.89 240.972 178.073 242.042 175.086C243.281 171.479 243.225 165.337 241.929 159.476C241.422 157.166 240.747 154.123 240.465 152.714C239.733 149.108 237.367 144.712 234.888 142.289C233.255 140.655 232.185 140.148 230.27 139.979C228.974 139.81 227.397 139.979 226.834 140.317Z" fill="white" fill-opacity="0.21"/>
<path d="M230.157 146.572C232.241 147.192 233.255 148.206 235.452 152.207C236.747 154.461 237.085 154.799 236.804 153.559C236.24 150.967 234.494 147.812 233.086 146.854C232.41 146.346 231.058 145.952 230.1 146.008L228.411 146.065L230.157 146.572Z" fill="white" fill-opacity="0.21"/>
<path d="M223.623 154.687C223.623 160.322 222.496 165.732 220.581 169.282C218.779 172.663 218.722 174.353 220.356 175.48C222.271 176.833 224.355 176.551 226.721 174.692C229.312 172.663 229.65 172.607 232.072 174.41C233.142 175.199 234.438 175.819 235.001 175.819C236.409 175.819 237.817 173.452 238.099 170.521C238.381 168.211 238.268 167.873 236.015 165.563C234.494 163.985 233.762 163.534 233.987 164.266C234.212 164.999 233.818 164.774 232.804 163.534C231.903 162.463 229.763 160.096 228.016 158.18C225.763 155.87 224.749 154.348 224.749 153.334C224.749 152.545 224.468 151.474 224.186 151.024C223.792 150.46 223.623 151.587 223.623 154.687Z" fill="white" fill-opacity="0.21"/>
<path d="M109.84 5.57887C105.84 6.14239 106.854 6.19874 119.697 6.3678C132.371 6.53685 135.018 7.26943 140.032 11.6649C147.016 17.8073 146.509 17.5819 156.254 18.089C170.167 18.7653 176.532 21.1884 184.7 29.0777C187.122 31.3318 189.995 33.6422 191.121 34.093C192.248 34.5438 195.628 35.2201 198.669 35.5018C201.711 35.8399 204.922 36.3471 205.823 36.6289C208.358 37.4741 211.061 39.7846 213.202 42.9967C215.568 46.4341 215.793 46.0397 213.653 42.2077C211.118 37.4741 207.4 35.3328 200.81 34.7129C192.135 33.8676 191.347 33.5859 186.164 28.7396C176.983 20.2304 170.618 17.6946 156.198 16.962C146.735 16.4548 147.918 16.9056 141.046 11.1014C135.638 6.53685 132.427 5.63522 121.387 5.35346C116.768 5.24076 111.53 5.35346 109.84 5.57887Z" fill="white" fill-opacity="0.21"/>
<path d="M109.84 11.6085C107.925 12.4538 104.207 15.6095 104.207 16.3985C104.207 16.6239 105.446 16.004 106.967 15.046C108.488 14.0317 110.685 12.6792 111.868 12.003C114.459 10.5378 112.994 10.2561 109.84 11.6085Z" fill="white" fill-opacity="0.21"/>
<path d="M126.344 14.0317C122.345 15.1587 119.81 16.7366 113.952 21.5829C109.502 25.2457 108.77 26.091 111.699 24.3441C112.656 23.7242 114.797 22.4845 116.318 21.5829C117.895 20.6249 120.599 18.9907 122.401 17.8073C124.147 16.6802 126.795 15.2151 128.146 14.6516C129.555 14.0317 130.681 13.4118 130.681 13.2428C130.681 12.8483 130.287 12.9046 126.344 14.0317Z" fill="white" fill-opacity="0.21"/>
<path d="M139.412 19.4415C141.665 22.9917 147.073 29.2468 149.946 31.6136C151.579 32.966 152.649 33.6986 152.311 33.2478C146.904 26.0347 143.693 22.2028 141.271 20.1741C138.624 17.9764 138.455 17.92 139.412 19.4415Z" fill="white" fill-opacity="0.21"/>
<path d="M146.51 22.2591C146.622 22.5408 147.693 24.4568 148.819 26.4855C151.298 30.881 153.438 33.0223 155.747 33.5295L157.437 33.8676L155.916 33.0223C155.128 32.5152 153.551 30.6555 152.424 28.9086C150.734 26.091 145.946 20.6812 146.51 22.2591Z" fill="white" fill-opacity="0.21"/>
<path d="M157.325 26.7672C158.845 28.1197 159.127 28.176 163.408 27.8379C167.858 27.4434 167.858 27.4434 167.858 28.7959C167.858 29.5848 167.464 30.7119 167.013 31.4444C166.224 32.5151 166.224 32.6278 166.957 32.3461C168.083 31.8952 169.548 29.5848 169.548 28.2324C169.548 26.8799 167.52 25.3584 165.774 25.3584C165.098 25.3584 163.352 25.7529 162 26.2037C159.69 26.9926 159.24 26.9926 157.606 26.2037L155.747 25.3021L157.325 26.7672Z" fill="white" fill-opacity="0.21"/>
<path d="M89.6745 27.3308C88.9985 27.838 88.0973 29.5285 87.5903 31.2755C86.6891 34.3185 84.1543 38.3195 82.0138 40.1227C80.6056 41.3061 81.1689 41.4188 83.2531 40.3481C85.3935 39.2211 88.3789 35.3892 89.3928 32.3461C90.1814 29.9794 91.4206 28.7396 92.2092 29.4722C92.3782 29.6412 91.7586 31.4445 90.801 33.4168C88.7169 37.9814 88.2663 39.841 88.9422 41.9823L89.4492 43.6729L89.5055 41.7006C89.5618 40.4608 90.5194 38.2068 92.0966 35.5019C94.913 30.8246 95.2509 28.6833 93.3921 27.3872C91.8149 26.2601 91.2517 26.2601 89.6745 27.3308Z" fill="white" fill-opacity="0.21"/>
<path d="M175.8 28.4014C176.251 28.8522 184.024 31.5571 184.869 31.5571C186.334 31.5008 180.25 28.7395 177.884 28.4014C176.589 28.176 175.631 28.176 175.8 28.4014Z" fill="white" fill-opacity="0.21"/>
<path d="M168.984 37.4741C168.59 37.9813 168.365 38.4321 168.477 38.4885C169.548 39.2774 177.434 43.6729 180.757 45.3071L184.869 47.3921L182.447 44.5181C178.898 40.3481 173.716 36.6288 171.463 36.6288C170.505 36.6288 169.379 37.0233 168.984 37.4741Z" fill="white" fill-opacity="0.21"/>
<path d="M186.446 38.883C188.587 39.5592 192.023 39.5592 190.953 38.883C190.502 38.6012 188.981 38.3758 187.573 38.3758C185.489 38.4322 185.263 38.4885 186.446 38.883Z" fill="white" fill-opacity="0.21"/>
<path d="M156.198 40.0664C155.24 40.6862 154.001 41.8696 153.494 42.6586C152.593 44.011 152.649 44.011 154.79 42.3204C156.029 41.3061 158.282 40.1791 159.747 39.7282L162.507 38.9957L160.254 38.9393C158.902 38.9393 157.268 39.3338 156.198 40.0664Z" fill="white" fill-opacity="0.21"/>
<path d="M204.697 42.8276C203.852 43.1657 203.345 44.18 202.838 46.4905C201.542 52.1257 202.612 54.3798 209.034 59.7332C210.836 61.1984 212.583 62.5508 213.033 62.6635C213.54 62.8326 213.315 63.5088 212.188 64.974C210.329 67.3971 210.78 67.6789 213.033 65.5375C213.878 64.6922 215.793 63.3961 217.258 62.6072C220.806 60.6912 221.257 59.2824 220.018 54.2671C219.229 50.8296 218.779 50.1534 216.131 47.7866C213.146 45.0253 208.302 42.2641 206.781 42.3204C206.274 42.3204 205.373 42.5458 204.697 42.8276Z" fill="white" fill-opacity="0.21"/>
<path d="M182.109 50.1534C183.236 52.5202 184.193 52.9146 185.263 51.6185C185.939 50.8296 185.32 50.2097 182.165 48.5755L180.982 47.9556L182.109 50.1534Z" fill="white" fill-opacity="0.21"/>
<path d="M164.76 49.2517C163.858 49.6462 162.507 50.6605 161.774 51.4494C160.31 53.0273 159.465 57.0847 160.479 57.7045C160.873 57.9863 161.098 57.5918 161.098 56.5775C161.098 54.3798 163.126 51.5058 165.774 49.8716C168.252 48.4064 167.632 48.012 164.76 49.2517Z" fill="white" fill-opacity="0.21"/>
<path d="M222.215 52.0693C223.792 53.4781 227.059 56.014 229.537 57.7045C234.438 61.0293 235.677 62.1563 236.522 64.2414C237.085 65.6502 237.085 65.6502 237.085 64.3541C237.198 61.5928 235.452 59.7896 228.242 55.056C219.173 49.139 218.778 48.9136 222.215 52.0693Z" fill="white" fill-opacity="0.21"/>
<path d="M179.124 52.2947C179.124 52.6328 179.912 53.6472 180.87 54.6052C183.686 57.4791 187.629 56.8592 187.516 53.5345C187.516 52.182 187.46 52.182 187.009 53.3091C186.052 55.7886 183.855 55.7322 180.87 53.1964C179.912 52.4074 179.124 52.013 179.124 52.2947Z" fill="white" fill-opacity="0.21"/>
<path d="M166.731 54.9996C166.731 56.014 169.379 58.5498 171.069 59.226C171.914 59.5641 173.66 60.0713 174.899 60.3531C176.87 60.7475 176.702 60.8039 173.716 60.5785C171.857 60.4658 169.829 60.184 169.21 60.0149C168.647 59.8459 168.928 60.0713 169.829 60.5221C172.083 61.6492 180.475 61.6492 182.785 60.5785C184.475 59.7332 184.475 59.7332 181.715 60.0713C180.194 60.2404 178.617 60.5221 178.11 60.7475C177.603 60.9166 177.377 60.8039 177.603 60.4658C177.884 60.0713 177.096 59.6768 175.631 59.4514C172.421 58.8879 168.59 57.0846 167.576 55.6195C167.126 54.9433 166.731 54.6615 166.731 54.9996Z" fill="white" fill-opacity="0.21"/>
<path d="M172.927 54.9996C172.984 56.4084 176.42 59.1697 178.11 59.1697C178.504 59.1697 178.335 58.8316 177.715 58.4935C177.096 58.1553 175.744 57.141 174.786 56.183C173.772 55.225 172.927 54.6615 172.927 54.9996Z" fill="white" fill-opacity="0.21"/>
<path d="M227.566 60.1841C227.566 60.4095 229.481 62.4381 231.79 64.6359C236.015 68.6369 237.592 68.9186 234.212 65.0867C232.297 62.889 227.566 59.3951 227.566 60.1841Z" fill="white" fill-opacity="0.21"/>
<path d="M217.145 64.6922C215.906 65.2557 214.047 66.6645 213.033 67.8479C211.287 69.8202 208.639 74.3848 209.259 74.3848C209.372 74.3848 210.836 73.5958 212.357 72.6379C216.694 69.9893 221.482 68.6369 225.256 69.0313C227.002 69.2567 229.425 69.2004 230.664 68.9186L232.917 68.4114L229.256 66.2137C224.806 63.5088 220.75 63.0016 217.145 64.6922Z" fill="white" fill-opacity="0.21"/>
<path d="M18.6446 65.143C17.4054 66.0446 17.3491 66.3828 17.6871 69.4258C17.9687 72.2434 17.7997 73.145 16.5042 75.7372C15.2649 78.273 15.096 79.062 15.6592 80.1327L16.2789 81.4288V79.9073C16.3352 79.1183 16.9548 77.7095 17.6871 76.8079C19.9965 74.0466 20.4471 72.6942 20.0528 69.8202C19.7149 67.3971 19.7712 67.059 20.7288 67.059C22.8692 67.059 27.6008 74.272 25.8546 74.8919C25.4603 75.0046 24.5591 75.6808 23.8268 76.4134C22.6439 77.6532 22.4749 77.6532 22.137 76.7515C21.9117 76.2444 21.7427 74.9483 21.7427 73.8776C21.7427 72.018 21.7427 72.018 20.7851 73.2014C19.9402 74.272 19.7712 75.5681 19.8275 82.1613C19.8839 89.0363 19.7712 90.107 18.701 92.1357C17.6307 94.0516 17.5744 94.5024 18.2503 95.5168C20.2218 98.5598 27.8824 95.9112 31.6001 90.8959C33.7406 88.022 34.9235 86.0496 34.9235 85.2607C34.9235 85.0353 34.1912 85.9933 33.2899 87.4021C31.1495 90.8396 27.3755 93.7699 24.2774 94.5588C20.6724 95.4041 19.6022 94.7279 20.4471 92.1357C21.0104 90.276 21.1794 90.1633 22.6439 90.4451C24.7281 90.9523 27.4881 88.8672 30.1356 84.9226C33.4026 80.02 33.2899 76.0753 30.0229 76.0753C28.8964 76.0753 28.671 75.9063 29.1217 75.4554C29.5723 75.0046 30.8115 74.9483 32.8956 75.1737C36.1627 75.6245 37.1766 76.4698 37.1766 78.8366C37.1766 79.5128 37.4582 80.02 37.7399 80.02C38.8101 80.02 38.3595 76.1317 37.1766 74.9483C35.7121 73.4831 29.8539 73.3141 28.671 74.7229C28.0514 75.5118 27.8824 75.4554 27.2628 74.272C26.8122 73.5395 26.5306 72.4688 26.4742 71.9053C26.4742 69.8766 24.1085 65.9319 22.4749 65.0867C20.5035 64.016 20.2781 64.016 18.6446 65.143Z" fill="white" fill-opacity="0.21"/>
<path d="M239.732 70.9473C240.577 72.2434 241.366 73.145 241.535 73.0323C241.929 72.5815 239.789 69.144 238.944 68.8623C238.493 68.7495 238.888 69.6512 239.732 70.9473Z" fill="white" fill-opacity="0.21"/>
<path d="M200.246 76.188C200.81 82.8939 204.696 87.7402 211.399 90.1633C213.315 90.8959 215.455 91.7975 216.187 92.2484C216.92 92.6992 217.427 92.7555 217.427 92.4174C217.427 91.7975 215.173 90.3324 209.146 86.8949C205.316 84.7535 202.725 81.316 201.035 76.3007L199.965 72.9759L200.246 76.188Z" fill="white" fill-opacity="0.21"/>
<path d="M6.59044 77.315C2.14052 81.5978 -0.394249 88.1346 0.169032 94.1079C0.450673 97.3763 2.42216 101.885 4.9006 105.209C6.98474 107.914 11.3783 109.887 15.1523 109.83L18.3067 109.774L15.7719 109.098C11.7163 107.971 9.18153 106.562 7.09739 104.195C4.61895 101.546 2.42216 97.1509 1.9152 94.2206C1.18294 89.5434 4.28099 80.9215 8.05497 77.146C10.3081 74.8919 8.95622 75.0609 6.59044 77.315Z" fill="white" fill-opacity="0.21"/>
<path d="M235.17 77.5968C235.621 78.7802 235.959 80.978 236.015 82.5558C236.015 84.0773 236.184 86.3878 236.409 87.6275C236.747 89.6562 236.804 89.7689 237.198 88.4728C238.325 84.5281 237.423 78.1604 235.508 76.4134C234.438 75.4555 234.438 75.5118 235.17 77.5968Z" fill="white" fill-opacity="0.21"/>
<path d="M237.198 92.981C236.634 94.7279 229.424 103.97 226.777 106.449C224.637 108.478 224.974 108.929 227.678 107.576C231.509 105.604 235.846 101.152 236.803 98.109C238.381 93.2627 238.775 88.5855 237.198 92.981Z" fill="white" fill-opacity="0.21"/>
<path d="M81.9575 93.9389C81.0562 94.4461 78.8594 95.9112 77.1696 97.2073C73.3956 100.138 71.0298 101.377 67.9881 101.997L65.6223 102.448L67.6501 102.504C70.8608 102.617 74.1842 101.096 78.5215 97.6582C84.7739 92.6992 85.1682 92.192 81.9575 93.9389Z" fill="white" fill-opacity="0.21"/>
<path d="M100.151 95.066C99.3065 97.151 98.9122 106.449 99.5881 108.196C99.9824 109.267 100.208 108.083 100.489 102.843C100.715 99.1233 100.996 95.5168 101.165 94.7842C101.503 93.0373 100.94 93.2064 100.151 95.066Z" fill="white" fill-opacity="0.21"/>
<path d="M82.4643 101.377C82.9713 102.166 87.9845 105.378 88.6604 105.378C89.3364 105.378 87.4212 103.632 84.7738 101.941C82.9713 100.814 81.9574 100.532 82.4643 101.377Z" fill="white" fill-opacity="0.21"/>
<path d="M90.3503 104.195C91.5332 105.491 91.8148 105.66 91.8148 104.815C91.8148 104.533 91.2515 103.97 90.5756 103.632C89.28 102.955 89.28 102.955 90.3503 104.195Z" fill="white" fill-opacity="0.21"/>
<path d="M80.2676 105.097C81.3378 105.998 81.2252 106.055 78.1835 105.66C74.3531 105.209 73.9588 105.66 77.2259 106.505C79.648 107.182 86.7453 106.731 86.7453 105.942C86.7453 105.717 85.6751 105.378 84.3795 105.153C83.0277 104.928 81.3378 104.646 80.5492 104.477C79.141 104.195 79.141 104.195 80.2676 105.097Z" fill="white" fill-opacity="0.21"/>
<path d="M72.1002 107.182C76.4938 108.421 76.2121 108.703 70.692 108.478C66.8617 108.309 65.6788 108.365 66.918 108.703C69.7344 109.436 69.7344 109.887 66.8617 109.887C65.4535 109.887 64.1016 110.168 63.8763 110.506C63.651 110.957 64.2706 111.014 65.9604 110.788L68.4388 110.506L66.3547 111.408C65.1718 111.859 64.2142 112.591 64.2142 112.986C64.2142 113.38 63.8199 114 63.3693 114.395C62.806 114.846 62.5807 115.691 62.7497 116.592C63.0313 117.945 62.7497 118.227 59.6517 119.692C57.7928 120.537 56.3846 121.382 56.4973 121.495C56.9479 121.946 62.975 119.466 63.7073 118.565C64.8902 117.156 67.0306 116.592 69.6781 116.987C72.5508 117.381 72.3255 118.001 68.4388 120.255C66.2984 121.551 63.7073 124.256 62.2427 126.792C61.7358 127.637 67.1996 123.186 71.1426 119.523L73.2267 117.55V119.072C73.2267 120.255 73.7337 120.932 75.2545 121.833L77.2824 123.017L74.1843 124.651C69.2838 127.074 65.8477 130.962 63.5383 136.485C62.4681 139.021 61.3978 142.176 61.1725 143.416C60.9472 144.656 60.3276 146.29 59.877 147.079C58.9757 148.488 58.9757 148.488 60.1023 147.473C60.7782 146.91 61.4542 145.614 61.6231 144.656C62.1301 142.007 65.0028 136.147 67.1433 133.498C70.692 129.046 76.5501 126.229 82.1266 126.229C84.1544 126.229 84.5487 126.398 84.267 127.13C84.0981 127.637 83.9291 128.37 83.9291 128.821C83.9291 129.384 83.0842 129.61 80.662 129.61C73.9027 129.61 67.087 134.851 65.0592 141.669C64.6085 143.191 64.2706 144.487 64.3832 144.599C64.4395 144.656 65.9041 143.022 67.5939 140.993C71.1426 136.767 71.8185 136.372 72.2692 138.175C72.7761 140.148 75.5362 142.514 77.733 142.853L79.7045 143.191L78.0146 142.402C75.7615 141.331 73.3957 138.682 72.9451 136.767C72.6071 135.414 72.7761 135.132 74.5786 134.4C77.2824 133.273 77.733 133.329 77.733 134.963C77.733 138.457 82.8025 139.979 84.9993 137.161C85.6752 136.316 86.1822 135.301 86.1822 134.907C86.1822 134.456 86.4638 134.118 86.8018 134.118C87.8157 134.118 87.0271 138.344 85.6753 140.204C85.0556 141.106 84.6613 142.007 84.8303 142.176C85.1683 142.514 81.169 144.036 78.0146 144.769C75.9305 145.219 75.8742 145.276 77.5077 145.332C80.0424 145.388 84.436 143.98 87.5904 141.951C90.3505 140.204 90.4068 140.204 88.9986 141.726C87.4214 143.472 83.7038 145.445 78.3526 147.473C74.6349 148.882 72.8888 149.164 68.0445 149.277C66.5237 149.333 65.3408 149.558 65.3408 149.897C65.3408 150.967 75.6488 149.897 79.0285 148.488C81.2253 147.586 79.7045 148.77 75.9305 151.024C73.6774 152.376 71.7059 153.503 71.5932 153.616C71.4806 153.728 71.7059 154.236 72.1002 154.743C72.6635 155.363 73.3957 155.532 74.6913 155.25C77.5077 154.743 87.2524 150.066 90.4068 147.699C94.6314 144.543 94.6878 144.543 93.2232 147.755C91.1954 152.094 91.5334 152.883 93.7865 149.108C94.8567 147.361 96.3776 145.05 97.2225 144.092C98.0674 143.078 99.3067 141.049 100.039 139.584L101.278 136.823L101.672 139.19C101.898 140.486 102.123 141.444 102.236 141.331C102.799 140.768 103.644 120.086 103.137 118.621L102.63 116.931L102.574 118.565C102.517 120.03 102.348 119.805 100.828 116.818C99.4756 114.057 98.6307 113.211 96.7156 112.253C91.2517 109.548 87.9847 108.647 82.8025 108.196C79.8735 107.971 76.7191 107.52 75.8742 107.125C74.9729 106.787 73.3394 106.505 72.2128 106.562L70.1287 106.618L72.1002 107.182ZM85.4499 133.78C85.9006 134.231 84.4924 136.316 83.3095 136.936C81.7886 137.781 80.0424 137.105 79.3665 135.414C78.5779 133.273 79.2538 132.822 82.4082 133.16C83.9291 133.385 85.3373 133.611 85.4499 133.78ZM90.9138 136.09C93.4485 137.161 93.5049 137.894 91.1391 138.908C90.1252 139.359 88.548 140.204 87.5904 140.88C85.1683 142.458 84.605 142.289 86.3512 140.429C87.1961 139.584 88.041 138.063 88.21 137.048C88.4353 136.034 88.6606 135.245 88.717 135.245C88.7733 135.245 89.7872 135.639 90.9138 136.09Z" fill="white" fill-opacity="0.21"/>
<path d="M103.925 111.69C101.109 114.451 101.109 114.451 103.25 113.211C105.221 112.084 107.474 109.548 106.967 109.098C106.855 108.985 105.503 110.168 103.925 111.69Z" fill="white" fill-opacity="0.21"/>
<path d="M54.5821 112.761C53.2302 114.676 50.9207 117.719 49.4562 119.523C47.0904 122.397 46.4145 122.848 43.7671 123.467C40.1621 124.256 34.7546 123.749 33.5153 122.453C33.0084 122.002 32.2761 120.932 31.8818 120.143C30.6426 117.776 26.9813 114.676 24.3338 113.606C21.4048 112.479 16.7296 112.422 15.6593 113.493C15.2087 113.888 14.3074 114.395 13.6315 114.62C12.4486 115.015 10.1392 117.494 10.1392 118.396C10.1392 118.621 10.9278 118.452 11.829 117.945C13.7442 117.043 15.9973 117.325 19.1517 118.903L21.1231 119.917L18.8137 120.537C16.0536 121.27 13.8005 122.96 12.6739 125.045C11.998 126.398 11.7163 129.046 12.2233 129.046C12.336 129.046 13.6315 128.145 15.1524 127.074C16.6169 126.003 18.701 124.933 19.6586 124.764C22.2497 124.2 27.6009 125.552 29.5724 127.187C30.5863 128.032 30.8679 128.483 30.2483 128.257C29.685 128.088 28.7838 127.919 28.2768 127.919C27.4319 127.919 27.4319 127.807 28.1642 127.299C28.7838 126.849 28.5585 126.792 27.1503 127.018C24.3902 127.525 22.2497 129.272 20.8978 132.202C20.2219 133.611 19.7149 134.907 19.8276 135.02C19.9403 135.132 20.8978 134.005 21.9681 132.596C23.0383 131.131 24.5592 129.497 25.3478 128.99C26.6996 127.976 26.8686 127.976 30.7553 129.272C37.3456 131.469 40.838 133.836 43.4291 137.95L45.0063 140.429L44.9499 138.232C44.9499 137.048 45.5696 134.287 46.3018 132.033C47.0341 129.835 47.4284 128.145 47.2031 128.257C46.1328 128.934 44.4993 133.104 44.4993 135.076V137.217L43.4291 135.47C42.8658 134.512 41.4013 132.935 40.2184 131.977C38.7538 130.737 38.3596 130.173 38.9792 130.173C39.9367 130.173 42.4152 129.103 46.7524 126.849C48.2733 126.06 49.2872 124.764 51.0334 121.382C52.2726 118.903 54.2441 115.409 55.3706 113.606C57.2858 110.506 57.7928 109.323 57.2295 109.323C57.1168 109.323 55.9339 110.901 54.5821 112.761Z" fill="white" fill-opacity="0.21"/>
<path d="M9.01245 113.099C4.33722 116.085 2.36573 118.227 1.2955 121.382C0.0562802 125.158 0.112608 130.399 1.46448 133.498L2.53472 135.921L2.59105 129.779C2.64737 122.171 3.26698 120.65 8.61816 115.127C10.815 112.873 12.4485 111.014 12.3358 111.07C12.2232 111.07 10.7023 111.972 9.01245 113.099Z" fill="white" fill-opacity="0.21"/>
<path d="M58.8065 112.648C57.173 114.677 55.9901 117.156 55.5395 119.466C55.1452 121.27 55.2579 121.213 56.8914 118.339C58.7502 115.127 60.3837 111.464 60.1584 111.295C60.0457 111.239 59.4825 111.803 58.8065 112.648Z" fill="white" fill-opacity="0.21"/>
<path d="M5.35121 124.707C4.22465 127.412 3.26707 131.808 3.66137 132.484C4.22465 133.385 5.40754 133.047 6.75942 131.582C8.39293 129.835 9.06887 130.23 8.44926 132.596L7.94231 134.4L9.01254 133.047C9.63215 132.315 10.1391 130.962 10.1391 130.061C10.1391 128.37 10.0828 128.37 7.99864 128.708L5.85817 129.046L6.25246 126.06C6.70309 122.453 6.47778 122.059 5.35121 124.707Z" fill="white" fill-opacity="0.21"/>
<path d="M115.36 127.356C115.135 128.145 114.966 131.526 114.966 134.963C115.022 140.429 115.078 140.824 115.529 138.457C116.149 135.189 115.98 125.214 115.36 127.356Z" fill="white" fill-opacity="0.21"/>
<path d="M13.4061 130.511C12.5611 130.962 11.2093 132.484 10.3643 133.893C9.12513 135.978 8.89982 136.936 9.12513 139.133C9.4631 142.289 11.1529 144.994 13.6314 146.29C14.5326 146.741 15.4339 147.079 15.5465 146.91C15.6592 146.797 15.3212 145.557 14.7016 144.205C12.8991 140.035 12.6738 136.879 14.0257 134.231C14.6453 132.991 15.4339 131.808 15.7718 131.582C16.5604 131.075 16.4478 129.61 15.6592 129.61C15.2649 129.666 14.251 130.004 13.4061 130.511Z" fill="white" fill-opacity="0.21"/>
<path d="M26.4743 135.865C23.3762 137.274 21.0668 139.359 19.6586 142.12C18.5883 144.205 18.9263 145.05 20.2219 143.472C21.7427 141.669 26.6996 140.148 32.0508 139.866C35.7684 139.697 37.233 139.753 36.9513 140.204C36.726 140.542 38.1342 141.669 40.3873 142.909C42.5278 144.036 44.8372 145.557 45.5695 146.177L46.8651 147.361L46.4708 145.952C46.2455 145.163 45.0062 143.529 43.767 142.233C42.4715 140.993 40.9506 139.246 40.331 138.344C37.9652 134.907 31.3185 133.667 26.4743 135.865Z" fill="white" fill-opacity="0.21"/>
<path d="M68.8894 146.91C69.3964 147.023 70.2976 147.023 70.8609 146.91C71.3679 146.741 70.9172 146.628 69.847 146.628C68.7768 146.628 68.3261 146.741 68.8894 146.91Z" fill="white" fill-opacity="0.21"/>
<path d="M119.021 149.051C120.148 149.84 121.106 150.685 121.106 150.911C121.106 151.869 125.274 155.588 128.203 157.222C129.893 158.18 131.752 159.758 132.371 160.772C132.991 161.73 133.498 162.35 133.498 162.125C133.498 161.843 134.793 162.688 136.427 163.928C138.004 165.224 139.412 166.126 139.525 166.013C140.032 165.562 136.37 160.716 134.286 159.026C133.16 158.068 131.583 157.166 130.794 156.941C128.259 156.321 124.542 153.785 122.739 151.531C121.781 150.291 120.261 148.939 119.359 148.488C116.881 147.192 116.712 147.473 119.021 149.051Z" fill="white" fill-opacity="0.21"/>
<path d="M62.2426 150.404C60.9471 151.869 60.8344 152.207 61.7357 151.7C63.2002 150.911 64.3831 149.502 64.1015 148.882C64.0451 148.657 63.2002 149.333 62.2426 150.404Z" fill="white" fill-opacity="0.21"/>
<path d="M100.546 153.278C100.377 153.559 99.7008 155.701 99.1375 157.955C98.5179 160.265 97.2786 163.59 96.3211 165.393C94.6876 168.493 94.0116 172.325 95.1945 171.592C95.5325 171.423 95.7578 170.634 95.7578 169.958C95.7578 169.225 96.5464 167.197 97.504 165.393C98.4615 163.647 99.7008 160.04 100.264 157.448C101.222 152.94 101.278 152.038 100.546 153.278Z" fill="white" fill-opacity="0.21"/>
<path d="M96.2085 176.664C96.5465 177.284 97.7294 178.692 98.8559 179.763C100.151 180.947 100.715 181.285 100.377 180.608C100.039 179.989 98.8559 178.58 97.7294 177.509C96.4338 176.326 95.8705 175.988 96.2085 176.664Z" fill="white" fill-opacity="0.21"/>
<path d="M127.471 189.174C127.696 189.512 128.879 189.907 130.118 190.076C131.357 190.245 133.667 191.203 135.244 192.161C139.018 194.64 139.356 193.964 135.638 191.428C133.667 190.076 131.695 189.23 129.893 189.005C128.034 188.723 127.245 188.78 127.471 189.174Z" fill="white" fill-opacity="0.21"/>
<path d="M125.105 257.529C127.696 260.628 132.371 264.686 132.371 263.84C132.371 262.15 124.992 254.711 123.246 254.711C122.964 254.711 123.809 256.008 125.105 257.529Z" fill="white" fill-opacity="0.21"/>
<path d="M248.576 330.505C248.407 331.012 248.407 332.815 248.632 334.619C249.759 345.326 249.759 344.649 248.351 345.664C246.661 346.791 245.422 346.791 243.168 345.664L241.366 344.706L242.436 345.945C243.056 346.565 243.394 347.298 243.225 347.467C242.718 347.918 240.183 344.424 238.887 341.494C238.268 340.085 237.705 339.352 237.705 339.803C237.705 341.325 239.789 345.1 241.704 347.129C243.844 349.383 250.998 355.3 253.589 356.934C254.941 357.779 255.504 357.892 256.631 357.329C258.039 356.709 258.039 356.652 257.645 352.032C257.307 347.523 252.969 331.97 251.674 330.336C250.885 329.378 249.027 329.491 248.576 330.505Z" fill="white" fill-opacity="0.21"/>
<path d="M106.967 437.799C102.179 441.068 95.9832 446.816 95.251 448.732C94.9693 449.464 94.575 451.437 94.3497 453.127C94.0681 455.719 94.2934 457.015 95.8706 461.749L97.7857 467.272L104.714 451.38C108.544 442.646 111.53 435.376 111.361 435.264C111.248 435.095 109.22 436.278 106.967 437.799Z" fill="white" fill-opacity="0.21"/>
<path d="M109.614 450.929C106.404 458.875 104.996 463.552 102.799 473.639C101.447 479.838 99.3064 488.065 98.0109 491.954C94.9128 501.252 94.6875 504.689 96.3773 518.27C97.0533 524.074 97.7855 528.977 98.0109 529.146C98.2362 529.315 98.8558 531.626 99.4191 534.331C99.9823 537.092 100.489 539.289 100.602 539.289C101.841 539.289 104.32 537.148 107.418 533.429C109.502 530.893 114.909 525.032 119.472 520.412C127.189 512.466 127.921 511.564 131.301 505.196C133.216 501.477 135.413 497.476 136.201 496.293C136.934 495.053 137.441 493.982 137.328 493.87C137.046 493.644 125.893 499.336 122.457 501.477C121.162 502.266 118.796 504.013 117.219 505.309C111.811 509.705 107.812 509.761 105.052 505.535C103.362 502.999 102.573 499.449 102.123 492.855C101.897 488.46 102.066 486.488 103.644 478.993C106.178 466.764 107.925 459.27 109.614 453.803C111.192 448.675 111.192 447.097 109.614 450.929Z" fill="white" fill-opacity="0.21"/>
<path d="M249.252 500.125C248.013 500.576 245.027 501.421 242.605 502.041C237.311 503.506 229.706 506.549 224.749 509.31C213.991 515.227 202.838 522.609 203.514 523.342C203.626 523.455 205.485 522.553 207.626 521.369C224.806 511.677 227.171 510.494 234.325 508.014C240.69 505.816 248.069 502.379 251.787 499.843C252.97 499.054 251.956 499.167 249.252 500.125Z" fill="white" fill-opacity="0.21"/>
<path d="M86.6328 536.19C86.4075 537.092 85.9568 540.642 85.6189 544.079C84.3233 556.421 79.1975 566.958 69.2274 577.891C66.9179 580.37 66.242 581.328 67.3686 580.596C71.6495 577.553 78.8032 568.536 82.1265 561.999C84.267 557.886 86.0695 551.349 86.7454 545.657C87.4214 539.684 87.365 533.034 86.6328 536.19Z" fill="white" fill-opacity="0.21"/>
<path d="M32.7829 580.99C30.3045 583.3 30.4735 587.64 33.1772 590.232C34.4164 591.415 35.4303 591.81 37.4018 591.866C39.8803 591.979 39.9929 592.035 39.9929 593.726C39.9929 594.684 40.6125 597.332 41.4011 599.643C42.1897 601.953 43.2036 605.334 43.7106 607.194C44.1612 609.053 45.3441 612.547 46.3017 614.914L48.1042 619.309H50.2446C51.4275 619.309 52.3851 619.197 52.3851 619.084C52.3851 618.295 45.3441 598.29 43.4853 593.951C42.246 591.021 41.0632 587.301 40.8378 585.78C40.6125 584.202 40.2746 583.244 40.1619 583.639C40.0492 584.033 39.5986 584.202 39.2043 584.033C38.7537 583.864 37.5145 584.371 36.3316 585.16C33.2899 587.245 32.107 587.132 32.107 584.709C32.107 583.244 32.5013 582.399 33.8531 581.328C34.8107 580.539 35.205 579.863 34.8107 579.863C34.3601 579.863 33.4589 580.37 32.7829 580.99Z" fill="white" fill-opacity="0.21"/>
<path d="M80.493 590.964C71.8184 599.868 68.833 603.925 62.0737 616.097L60.2148 619.366L67.7065 619.197L75.1981 619.028L77.7329 614.745C81.2816 608.941 84.7176 599.868 86.0695 593.106C87.6466 585.442 87.7593 584.371 87.365 584.371C87.1397 584.371 84.0416 587.358 80.493 590.964Z" fill="white" fill-opacity="0.21"/>
<path d="M71.7057 591.528C65.1716 598.685 58.6939 608.264 56.8914 613.561C56.4408 614.858 56.4408 614.914 57.0604 614.012C62.8058 605.165 66.0729 600.544 69.9595 595.642C75.0854 589.217 77.3948 586.062 77.0005 586.062C76.8879 586.062 74.4658 588.541 71.7057 591.528Z" fill="white" fill-opacity="0.21"/>
<path d="M55.3705 597.501C52.4978 602.573 50.6953 606.799 50.6953 608.434C50.6953 608.884 51.7092 607.25 53.0048 604.827C55.4832 599.981 58.6939 592.768 58.4123 592.486C58.3559 592.373 56.9477 594.684 55.3705 597.501Z" fill="white" fill-opacity="0.21"/>
</svg>
