<svg width="212" height="134" viewBox="0 0 212 134" fill="none" xmlns="http://www.w3.org/2000/svg">
<path d="M105.952 0.463135C60.6676 0.463135 22.0172 28.705 6.8263 68.5307H205.078C189.887 28.705 151.236 0.463135 105.952 0.463135ZM211.904 103.761H0C0 104.527 0 105.197 0 105.963C0 107.974 0.0961422 109.984 0.192287 111.994H211.808C211.904 109.984 212 107.974 212 105.963C211.904 105.197 211.904 104.527 211.904 103.761ZM208.827 80.5934H3.07664C2.30748 83.7526 1.63446 87.0076 1.15374 90.2626H210.75C210.269 86.9119 209.596 83.7526 208.827 80.5934ZM205.27 69.0094H6.63401C5.38412 72.3601 4.23039 75.9023 3.36508 79.3488H208.539C207.577 75.8066 206.52 72.3601 205.27 69.0094ZM211.039 92.1773H0.8653C0.48072 95.1451 0.192281 98.1129 0.0961363 101.081H211.808C211.712 98.1129 211.423 95.1451 211.039 92.1773ZM1.34603 122.813H210.654C211.039 120.323 211.327 117.834 211.615 115.345H0.384575C0.576865 117.834 0.961445 120.419 1.34603 122.813Z" fill="url(#paint0_linear_34_40)"/>
<defs>
<linearGradient id="paint0_linear_34_40" x1="150.5" y1="20.5" x2="149" y2="216.5" gradientUnits="userSpaceOnUse">
<stop stop-color="#FF5C7E"/>
<stop offset="0.130208" stop-color="#FF8251"/>
<stop offset="0.302083" stop-color="#FF9E2E"/>
<stop offset="0.541667" stop-color="#FFB315"/>
<stop offset="0.692708" stop-color="#FFC005"/>
<stop offset="0.859375" stop-color="#FFC400"/>
</linearGradient>
</defs>
</svg>
