<svg width="1440" height="253" viewBox="0 0 1440 253" fill="none" xmlns="http://www.w3.org/2000/svg">
<path d="M719.127 0.485474L718.614 257.582" stroke="#5EF5FF" stroke-width="0.4" stroke-linecap="round" stroke-linejoin="round"/>
<path d="M353.065 257.582L653.627 0.485474" stroke="#5EF5FF" stroke-width="0.4" stroke-linecap="round" stroke-linejoin="round"/>
<path d="M784.631 0.485474L1084.16 257.582" stroke="#5EF5FF" stroke-width="0.4" stroke-linecap="round" stroke-linejoin="round"/>
<path d="M-12.9036 101.131L457.122 0.485718" stroke="#5EF5FF" stroke-width="0.4" stroke-linecap="round" stroke-linejoin="round"/>
<path d="M-12.9036 7.08457L64.1134 0.485229" stroke="#5EF5FF" stroke-width="0.4" stroke-linecap="round" stroke-linejoin="round"/>
<path d="M-12.9036 14.0518L129.613 0.485474" stroke="#5EF5FF" stroke-width="0.4" stroke-linecap="round" stroke-linejoin="round"/>
<path d="M-12.9036 22.7627L195.118 0.485229" stroke="#5EF5FF" stroke-width="0.4" stroke-linecap="round" stroke-linejoin="round"/>
<path d="M-12.9036 33.9592L260.618 0.485229" stroke="#5EF5FF" stroke-width="0.4" stroke-linecap="round" stroke-linejoin="round"/>
<path d="M-12.9036 48.8859L326.117 0.484619" stroke="#5EF5FF" stroke-width="0.4" stroke-linecap="round" stroke-linejoin="round"/>
<path d="M-12.9036 69.787L391.624 0.485596" stroke="#5EF5FF" stroke-width="0.4" stroke-linecap="round" stroke-linejoin="round"/>
<path d="M-12.9036 153.357L522.622 0.485596" stroke="#5EF5FF" stroke-width="0.4" stroke-linecap="round" stroke-linejoin="round"/>
<path d="M-22 261.658L578.605 4.56128" stroke="#5EF5FF" stroke-width="0.4" stroke-linecap="round" stroke-linejoin="round"/>
<path d="M1451.16 1.38157L1439.65 0.485229" stroke="#5EF5FF" stroke-width="0.4" stroke-linecap="round" stroke-linejoin="round"/>
<path d="M1451.16 7.08456L1374.15 0.485229" stroke="#5EF5FF" stroke-width="0.4" stroke-linecap="round" stroke-linejoin="round"/>
<path d="M1451.16 14.0574L1308.65 0.485229" stroke="#5EF5FF" stroke-width="0.4" stroke-linecap="round" stroke-linejoin="round"/>
<path d="M1451.16 22.7721L1243.14 0.48584" stroke="#5EF5FF" stroke-width="0.4" stroke-linecap="round" stroke-linejoin="round"/>
<path d="M1451.16 33.9743L1177.64 0.485779" stroke="#5EF5FF" stroke-width="0.4" stroke-linecap="round" stroke-linejoin="round"/>
<path d="M1112.14 0.485474L1451.16 48.914" stroke="#5EF5FF" stroke-width="0.4" stroke-linecap="round" stroke-linejoin="round"/>
<path d="M1046.64 0.484985L1451.28 69.8533" stroke="#5EF5FF" stroke-width="0.4" stroke-linecap="round" stroke-linejoin="round"/>
<path d="M981.137 0.484741L1451.16 101.216" stroke="#5EF5FF" stroke-width="0.4" stroke-linecap="round" stroke-linejoin="round"/>
<path d="M915.638 0.485596L1451.16 153.531" stroke="#5EF5FF" stroke-width="0.4" stroke-linecap="round" stroke-linejoin="round"/>
<path d="M850.132 0.485718L1449.71 257.583" stroke="#5EF5FF" stroke-width="0.4" stroke-linecap="round" stroke-linejoin="round"/>
</svg>
